<mxfile host="drawio-plugin" agent="Mozilla/5.0 (Macintosh; Intel Mac OS X 10_15_7) AppleWebKit/537.36 (KHTML, like Gecko) Chrome/122.0.0.0 Safari/537.36" modified="2025-09-18T07:56:33.365Z" version="22.1.22" etag="xkigP_0tckmOfuVGh2gi" type="embed">
  <diagram name="Pagina-1" id="1pUZJStIu91S8na9uN5X">
    <mxGraphModel dx="1377" dy="1488" grid="1" gridSize="10" guides="1" tooltips="1" connect="1" arrows="1" fold="1" page="1" pageScale="1" pageWidth="1169" pageHeight="827" background="none" math="0" shadow="0">
      <root>
        <mxCell id="0" />
        <mxCell id="1" parent="0" />
        <mxCell id="atDbLLzjIxGfExJ--USy-28" value="" style="group" parent="1" vertex="1" connectable="0">
          <mxGeometry x="658" y="240" width="50" height="50" as="geometry" />
        </mxCell>
        <mxCell id="atDbLLzjIxGfExJ--USy-29" value="" style="points=[[0.145,0.145,0],[0.5,0,0],[0.855,0.145,0],[1,0.5,0],[0.855,0.855,0],[0.5,1,0],[0.145,0.855,0],[0,0.5,0]];shape=mxgraph.bpmn.event;html=1;verticalLabelPosition=bottom;labelBackgroundColor=none;verticalAlign=top;align=center;perimeter=ellipsePerimeter;outlineConnect=0;aspect=fixed;outline=standard;symbol=general;strokeColor=none;strokeWidth=2;fontFamily=Fira Sans;fontSource=https://fonts.googleapis.com/css?family=Fira+Sans;fontSize=14;fillColor=#01689b;labelPosition=center;spacingLeft=4;" parent="atDbLLzjIxGfExJ--USy-28" vertex="1">
          <mxGeometry width="50" height="50" as="geometry" />
        </mxCell>
        <mxCell id="atDbLLzjIxGfExJ--USy-30" value="" style="shape=image;verticalLabelPosition=bottom;verticalAlign=top;imageAspect=0;aspect=fixed;image=data:image/svg+xml,PHN2ZyB4bWxucz0iaHR0cDovL3d3dy53My5vcmcvMjAwMC9zdmciIGZpbGw9Im5vbmUiIHZpZXdCb3g9IjYuMDE4Nzk3Mzk3NjEzNTI1IDUuMDAwNDkwMTg4NTk4NjMzIDUwLjk4MzUwMTQzNDMyNjE3IDUzLjg5OTUxMzI0NDYyODkwNiIgaGVpZ2h0PSI1My44OTk1MTMyNDQ2Mjg5MDYiIHdpZHRoPSI1MC45ODM1MDE0MzQzMjYxNyI+JiN4YTs8cGF0aCBmaWxsPSJ3aGl0ZSIgZD0iTTI5LjUzNTkgNTBDMjkuMTg5OCA1MC42NzkgMjguNzk0OCA1MS40MDg4IDI4LjM0MjEgNTIuMTM5N0MyNS45NjIxIDU1Ljk4MjQgMjIuNjU0NCA1Ni44NDAzIDIwLjQwNjMgNTYuMDQ2OUMxOS45MDM0IDU1Ljg2OTQgMjAuMDk4MiA1NS41NjY0IDIwLjA5ODIgNTUuNTY2NEMyMy4xNDgxIDU1LjU2NjQgMjUuMjczNiA1My4xMDQ5IDI3LjAyMzkgNTBDMjcuMzg3MiA0OS4zNTU2IDI3LjczNCA0OC42ODM4IDI4LjA2OTcgNDhINDQuODgzNUM0NC43MDQ0IDQ2Ljc5MyA0NC42MzU1IDQ1LjI2NzggNDQuNjY3MSA0My40Njc0QzQ1LjAxMzUgMzYuMTc5MyA0Ni44ODgyIDI0LjAwNjMgNDguMDg4NyAxOC4wMDI3QzQ4LjQyMSAxNi4zNDExIDQ4LjYxODIgMTMuNzc1OCA0OC4zNTA0IDEyLjA1ODVDNDguMDM0MSAxMC4wMzAxIDQ3LjE5OTYgOC42MzM0OSA0Ni40MTA3IDcuNjcxMzlDNDUuMDE5NiA1Ljk3NDA5IDQzLjAwNTkgNS4wMDA0OSA0MC44ODY4IDUuMDAwNDlIMTQuMDc1OUM5LjE2NjA2IDUuMDAwNDkgNi4zMzkyNiA4LjIyNjk5IDYuMDQ3NzYgMTEuODY0OUM1LjYzMzA2IDE3LjAzMjkgOS43MzczNiAyMC4zMTYxIDE0LjE0OTEgMjEuMDE1OEMxNC40NTk4IDE5LjMxNTcgMTQuNzI0NyAxNy45NDYyIDE0Ljg5NDUgMTcuMDg4N0MxMi45OTM3IDE2LjgwODggOS43NzA2NiAxNS40OCAxMC4wMzUxIDEyLjE4NTJDMTAuMTgyNCAxMC4zNDQgMTEuNzQxMiA4LjkwMjc5IDEzLjU4MzkgOC45MDA0OUgxMy41OTJDMTQuNTIwMiA4LjkwMTU5IDE1LjM4MjIgOS4zMjk3OSAxNi4wMTkgMTAuMTA3MUMxNy4yMTcyIDExLjU2OCAxNy41NCAxNC4wNTczIDE2LjkyODIgMTcuMTE2OUMxNS41NiAyMy45NTc3IDEyLjcyNzEgNDAuMjc4IDEzLjA5MzggNDcuMDA5NUMxMy4yNDYgNDkuNzk4NCAxNC4zMzU0IDU4LjkgMjEuOTY1OCA1OC45SDQ2QzUxLjkzODggNTguOSA1NS4zMzgzIDUzLjY5NjkgNTcuMDAyMyA1MEgyOS41MzU5Wk0yNC45MDM2IDI2LjM3NTNDMjQuMTAzNiAyNi4zNzUzIDIzLjQwMzYgMjcuMDc1MyAyMy40MDM2IDI3Ljg3NTNDMjMuNDAzNiAyOC42NzUzIDI0LjEwMzYgMjkuMzc1MyAyNC45MDM2IDI5LjM3NTNDMjUuNzAzNiAyOS4zNzUzIDI2LjQwMzYgMjguNjc1MyAyNi40MDM2IDI3Ljg3NTNDMjYuNDAzNiAyNy4wNzUzIDI1LjgwMzYgMjYuMzc1MyAyNC45MDM2IDI2LjM3NTNaTTI0LjQxNTEgMjAuOTc1M0MyNC40MTUxIDIwLjE3NTMgMjUuMTE1MSAxOS40NzUzIDI1LjkxNTEgMTkuNDc1M0MyNi44MTUxIDE5LjQ3NTMgMjcuNDE1MSAyMC4xNzUzIDI3LjQxNTEgMjAuOTc1M0MyNy40MTUxIDIxLjc3NTMgMjYuNzE1MSAyMi40NzUzIDI1LjkxNTEgMjIuNDc1M0MyNS4xMTUxIDIyLjQ3NTMgMjQuNDE1MSAyMS43NzUzIDI0LjQxNTEgMjAuOTc1M1pNMjQuMDAzNyAzMy4zNzUzQzIzLjIwMzcgMzMuMzc1MyAyMi41MDM3IDM0LjA3NTMgMjIuNTAzNyAzNC44NzUzQzIyLjUwMzcgMzUuNjc1MyAyMy4yMDM3IDM2LjM3NTMgMjQuMDAzNyAzNi4zNzUzQzI0LjgwMzcgMzYuMzc1MyAyNS41MDM3IDM1LjY3NTMgMjUuNTAzNyAzNC44NzUzQzI1LjUwMzcgMzMuOTc1MyAyNC45MDM3IDMzLjM3NTMgMjQuMDAzNyAzMy4zNzUzWk0yMS45MDM2IDQxLjg3NTNDMjEuOTAzNiA0MS4wNzUzIDIyLjYwMzYgNDAuMzc1MyAyMy40MDM2IDQwLjM3NTNDMjQuMjAzNiA0MC4zNzUzIDI0LjkwMzYgNDEuMDc1MyAyNC45MDM2IDQxLjg3NTNDMjQuOTAzNiA0Mi42NzUzIDI0LjIwMzYgNDMuMzc1MyAyMy40MDM2IDQzLjM3NTNDMjIuNjAzNiA0My4zNzUzIDIxLjkwMzYgNDIuNjc1MyAyMS45MDM2IDQxLjg3NTNaTTI4LjEwMzcgMjkuNDc1M0g0Mi4wMDM3QzQyLjA1MzcgMjguOTc1MyA0Mi4xMjg3IDI4LjQ3NTMgNDIuMjAzNyAyNy45NzUzQzQyLjI3ODcgMjcuNDc1MyA0Mi4zNTM3IDI2Ljk3NTMgNDIuNDAzNyAyNi40NzUzSDI4LjUwMzdDMjguMzAzNyAyNy40NzUzIDI4LjIwMzcgMjguNDc1MyAyOC4xMDM3IDI5LjQ3NTNaTTQzLjE2NjMgMjIuNTc1M0gyOS4xMTMxQzI5LjIwNTMgMjEuNjUzMyAyOS4zOTA0IDIwLjczMTMgMjkuNTc1NCAxOS44MDkzTDI5LjYyMjMgMTkuNTc1M0g0My41OTA3QzQzLjU0MDcgMjAuMDc1MyA0My40NTk2IDIwLjU3NTMgNDMuMzc4NSAyMS4wNzUzQzQzLjI5NzQgMjEuNTc1MyA0My4yMTYzIDIyLjA3NTMgNDMuMTY2MyAyMi41NzUzWk0yNy4yMDM3IDM2LjQ3NTNINDEuMTAzN0w0MS40MDM3IDMzLjQ3NTNIMjcuNjAzN0MyNy40MDM3IDM0LjQ3NTMgMjcuMzAzNyAzNS40NzUzIDI3LjIwMzcgMzYuNDc1M1pNNDAuNjAzNyA0My40NzUzSDI2LjcwMzdDMjYuNzAzNyA0My4wNDc5IDI2LjcyNjIgNDIuNTk3OSAyNi43NDk5IDQyLjEyNTNDMjYuNzc2MSA0MS42MDI5IDI2LjgwMzcgNDEuMDUyOSAyNi44MDM3IDQwLjQ3NTNINDAuODAzN0M0MC43OTQ1IDQwLjU3NjIgNDAuNzg1MyA0MC42NzYyIDQwLjc3NjIgNDAuNzc1NEM0MC42ODYyIDQxLjc1NzkgNDAuNjAzNyA0Mi42NTc5IDQwLjYwMzcgNDMuNDc1M1oiIGNsaXAtcnVsZT0iZXZlbm9kZCIgZmlsbC1ydWxlPSJldmVub2RkIi8+JiN4YTs8L3N2Zz4=;" parent="atDbLLzjIxGfExJ--USy-28" vertex="1">
          <mxGeometry x="13.2" y="12.5" width="25.97" height="27.5" as="geometry" />
        </mxCell>
        <mxCell id="atDbLLzjIxGfExJ--USy-31" style="edgeStyle=none;html=1;entryX=0.5;entryY=0;entryDx=0;entryDy=0;entryPerimeter=0;strokeColor=#FFFFFF;strokeWidth=2;rounded=0;curved=1;sketch=1;curveFitting=1;jiggle=2;endArrow=open;endFill=0;" parent="1" target="atDbLLzjIxGfExJ--USy-29" edge="1">
          <mxGeometry relative="1" as="geometry">
            <Array as="points">
              <mxPoint x="628" y="170" />
            </Array>
            <mxPoint x="515.78" y="186.30616693021057" as="sourcePoint" />
          </mxGeometry>
        </mxCell>
        <mxCell id="atDbLLzjIxGfExJ--USy-32" style="edgeStyle=none;html=1;strokeColor=#FFFFFF;strokeWidth=2;entryX=0;entryY=0.5;entryDx=0;entryDy=0;entryPerimeter=0;rounded=0;curved=1;sketch=1;curveFitting=1;jiggle=2;endArrow=open;endFill=0;" parent="1" target="atDbLLzjIxGfExJ--USy-29" edge="1">
          <mxGeometry relative="1" as="geometry">
            <Array as="points">
              <mxPoint x="628" y="260" />
            </Array>
            <mxPoint x="612.689796875" y="235.5" as="sourcePoint" />
          </mxGeometry>
        </mxCell>
        <mxCell id="atDbLLzjIxGfExJ--USy-146" value="" style="group" parent="1" vertex="1" connectable="0">
          <mxGeometry x="130" y="-120" width="176" height="179.75" as="geometry" />
        </mxCell>
        <mxCell id="atDbLLzjIxGfExJ--USy-56" value="" style="whiteSpace=wrap;html=1;aspect=fixed;strokeColor=none;strokeWidth=2;rounded=1;labelPosition=center;verticalLabelPosition=bottom;align=center;verticalAlign=top;sketch=1;curveFitting=1;jiggle=2;fillColor=#8FCAE7;fillStyle=solid;" parent="atDbLLzjIxGfExJ--USy-146" vertex="1">
          <mxGeometry x="96" y="47" width="80" height="80" as="geometry" />
        </mxCell>
        <mxCell id="atDbLLzjIxGfExJ--USy-57" value="" style="group;" parent="atDbLLzjIxGfExJ--USy-146" vertex="1" connectable="0">
          <mxGeometry x="111" y="64" width="50" height="50" as="geometry" />
        </mxCell>
        <mxCell id="atDbLLzjIxGfExJ--USy-58" value="" style="points=[[0.145,0.145,0],[0.5,0,0],[0.855,0.145,0],[1,0.5,0],[0.855,0.855,0],[0.5,1,0],[0.145,0.855,0],[0,0.5,0]];shape=mxgraph.bpmn.event;html=1;verticalLabelPosition=bottom;labelBackgroundColor=none;verticalAlign=top;align=center;perimeter=ellipsePerimeter;outlineConnect=0;aspect=fixed;outline=standard;symbol=general;strokeColor=none;strokeWidth=2;fontFamily=Fira Sans;fontSource=https%3A%2F%2Ffonts.googleapis.com%2Fcss%3Ffamily%3DFira%2BSans;fontSize=14;fillColor=#d52b1e;labelPosition=center;spacingLeft=4;" parent="atDbLLzjIxGfExJ--USy-57" vertex="1">
          <mxGeometry width="50" height="50" as="geometry" />
        </mxCell>
        <mxCell id="atDbLLzjIxGfExJ--USy-59" value="" style="shape=image;verticalLabelPosition=bottom;verticalAlign=top;imageAspect=0;aspect=fixed;image=data:image/svg+xml,PHN2ZyB4bWxucz0iaHR0cDovL3d3dy53My5vcmcvMjAwMC9zdmciIGZpbGw9Im5vbmUiIHZpZXdCb3g9IjcuNSA3LjQyNjUwOTg1NzE3NzczNCA1MCA0OC45OTk5ODg1NTU5MDgyIiBoZWlnaHQ9IjQ4Ljk5OTk4ODU1NTkwODIiIHdpZHRoPSI1MCI+JiN4YTs8cGF0aCBmaWxsPSJ3aGl0ZSIgZD0iTTkuNSA3LjQyNjUxSDU1LjVDNTYuNjA0NSA3LjQyNjUxIDU3LjUgOC4zMjIwMSA1Ny41IDkuNDI2NTFWNDQuNDI2NkM1Ny41IDQ1LjUzMTEgNTYuNjA0NSA0Ni40MjY2IDU1LjUgNDYuNDI2NkgzMC4zMzM4QzMwLjI5NjkgNDYuNTEyNSAzMC4yNTc4IDQ2Ljc0NjkgMzAuNTc4MSA0Ni44MDk0QzM1LjE1MjkgNDcuNzAyIDM5LjU1NTMgNDguMzQxNyAzOS41NTUzIDQ4LjM0MTdDMzkuNzk3MyA0OS4xNTU5IDQwLjExMTkgNTAuMTkzNSA0MC41IDUxLjQyNjVDNDEuMDc3OSA1My4yNjM4IDQyLjg3OTEgNTMuNDE4NSA0My4zNjkxIDUzLjQyNjVINDUuNUM0Ni4wNTI3IDUzLjQyNjUgNDYuNSA1My44NzQzIDQ2LjUgNTQuNDI2NVY1Ni40MjY1SDE4LjVWNTQuNDI2NUMxOC41IDUzLjg3NDMgMTguOTQ3MyA1My40MjY1IDE5LjUgNTMuNDI2NUgyMS42MzA5QzIyLjEyMDkgNTMuNDE4NSAyMy45MjIxIDUzLjI2MzggMjQuNSA1MS40MjY1QzI1LjQ2NTggNDguMzU3NyAyNiA0Ni40MTY1IDI2IDQ2LjQxNjVIOS41QzguMzk1NSA0Ni40MTY1IDcuNSA0NS41MjEgNy41IDQ0LjQxNjVWOS40MjY1MUM3LjUgOC4zMjIwMSA4LjM5NTUgNy40MjY1MSA5LjUgNy40MjY1MVpNMTIuNSAzOS40MjY1SDUyLjVWMTIuNDI2NUgxMi41VjM5LjQyNjVaTTMzLjU0NDMgMjEuMjE5NUMzNC4xNDEyIDIxLjM0NTYgMzQuNzYxNCAyMS40NzkyIDM1LjM5NjIgMjEuNjE5M0MzNS43NTg5IDIxLjY5OTMgMzUuODkyOSAyMi4xMjc4IDM1Ljg5MjkgMjIuNjIyOUMzNS44OTI5IDIzLjExODEgMzUuNzU3MiAyMy41NDEzIDM1LjM5NjEgMjMuNjI2NkMzNC43NTkgMjMuNzc3MSAzNC4xMzI5IDIzLjkxODQgMzMuNTI4NyAyNC4wNTAyQzMzLjE3NDQgMjQuMTI3NSAzMi44ODQxIDI0LjM3MjMgMzIuNzQ2NSAyNC43MDc3TDMyLjczMjkgMjQuNzQwNEMzMi41OTE5IDI1LjA3NzggMzIuNjI0MiAyNS40NTkxIDMyLjgyMzcgMjUuNzY1NUMzMy4xNTY2IDI2LjI3NjcgMzMuNTAwOSAyNi44MDk3IDMzLjg1MDYgMjcuMzU3N0MzNC4wNTA0IDI3LjY3MDggMzMuODQyMiAyOC4wNjg1IDMzLjQ5MjEgMjguNDE4N0MzMy4xNDE5IDI4Ljc2ODcgMzIuNzQ2NyAyOC45NzIxIDMyLjQzMTEgMjguNzc3MUMzMS44NzQyIDI4LjQzMzEgMzEuMzMxOSAyOC4wOTAzIDMwLjgxMTQgMjcuNzU2M0MzMC41MDgxIDI3LjU2MTYgMzAuMTMyOCAyNy41Mjg2IDI5Ljc5OTQgMjcuNjY1OEwyOS43NjY1IDI3LjY3OTJDMjkuNDI1NiAyNy44MTcgMjkuMTc1OSAyOC4xMTA5IDI5LjA5OTggMjguNDcwOEMyOC45NzM3IDI5LjA2NzcgMjguODQwMyAyOS42ODc5IDI4LjcwMDEgMzAuMzIyN0MyOC42MiAzMC42ODUzIDI4LjE5MTYgMzAuODE5NCAyNy42OTY0IDMwLjgxOTRDMjcuMjAxMyAzMC44MTk0IDI2Ljc3OCAzMC42ODM3IDI2LjY5MjggMzAuMzIyNUMyNi41NDI0IDI5LjY4NTcgMjYuNDAxMiAyOS4wNiAyNi4yNjk0IDI4LjQ1NTlDMjYuMTkxOCAyOC4xMDAyIDI1Ljk0NDggMjcuODA5OSAyNS42MDc5IDI3LjY3MTlMMjUuNTk2NCAyNy42NjcyQzI1LjI2MiAyNy41Mjk0IDI0Ljg4NTQgMjcuNTYxMSAyNC41ODEgMjcuNzU2NUMyNC4wNjA2IDI4LjA5MDQgMjMuNTE4NSAyOC40MzMxIDIyLjk2MTcgMjguNzc3QzIyLjY0NjEgMjguOTcyIDIyLjI1MDkgMjguNzY4NiAyMS45MDA4IDI4LjQxODZDMjEuNTUwNiAyOC4wNjg0IDIxLjM0MjUgMjcuNjcwNyAyMS41NDIzIDI3LjM1NzZDMjEuODkyMSAyNi44MDk2IDIyLjIzNjIgMjYuMjc2NyAyMi41NjkxIDI1Ljc2NTRDMjIuNzY4NiAyNS40NTkgMjIuODAwOSAyNS4wNzc3IDIyLjY1OTkgMjQuNzQwM0wyMi42NDY0IDI0LjcwNzZDMjIuNTA4NyAyNC4zNzIzIDIyLjIxODQgMjQuMTI3NCAyMS44NjQxIDI0LjA1MDJDMjEuMjU5OCAyMy45MTg0IDIwLjYzMzkgMjMuNzc3MSAxOS45OTY3IDIzLjYyNjZDMTkuNjM1NyAyMy41NDEzIDE5LjUgMjMuMTE4MSAxOS41IDIyLjYyMjlDMTkuNSAyMi4xMjc4IDE5LjYzNCAyMS42OTkzIDE5Ljk5NjcgMjEuNjE5M0MyMC42MzE1IDIxLjQ3OTEgMjEuMjUxNiAyMS4zNDU2IDIxLjg0ODYgMjEuMjE5NUMyMi4yMDg0IDIxLjE0MzQgMjIuNTAyNSAyMC44OTM4IDIyLjY0MDIgMjAuNTUyOEwyMi42NTM2IDIwLjUxOThDMjIuNzkwOCAyMC4xODY1IDIyLjc1NzcgMTkuODExMyAyMi41NjMxIDE5LjUwNzlDMjIuMjI5IDE4Ljk4NzUgMjEuODg2MyAxOC40NDUxIDIxLjU0MjMgMTcuODg4MkMyMS4zNDczIDE3LjU3MjUgMjEuNTUwNiAxNy4xNzc0IDIxLjkwMDggMTYuODI3MkMyMi4yNTA5IDE2LjQ3NzEgMjIuNjQ4NiAxNi4yNjg5IDIyLjk2MTcgMTYuNDY4N0MyMy41MDY0IDE2LjgxNjQgMjQuMDM2MiAxNy4xNTg1IDI0LjU0NDggMTcuNDg5N0MyNC44NTY4IDE3LjY5MjggMjUuMjQ1MSAxNy43MjUyIDI1LjU4OSAxNy41ODIyTDI1LjYwMTkgMTcuNTc2OEMyNS45NDMyIDE3LjQzNiAyNi4xOTI4IDE3LjE0MDggMjYuMjcxNiAxNi43OEMyNi40MDI3IDE2LjE3OSAyNi41NDMxIDE1LjU1NjcgMjYuNjkyOCAxNC45MjMyQzI2Ljc3OCAxNC41NjIyIDI3LjIwMTMgMTQuNDI2NSAyNy42OTY0IDE0LjQyNjVDMjguMTkxNiAxNC40MjY1IDI4LjYyIDE0LjU2MDUgMjguNyAxNC45MjMyQzI4LjgzOTMgMTUuNTU0NCAyOC45NzIxIDE2LjE3MTMgMjkuMDk3NiAxNi43NjUyQzI5LjE3NDggMTcuMTMwMiAyOS40MjcyIDE3LjQyOTEgMjkuNzcyNiAxNy41Njk4TDI5LjgwNyAxNy41ODM5QzMwLjE0OTYgMTcuNzI2MSAzMC41MzY2IDE3LjY5MjUgMzAuODQ3NSAxNy40OUMzMS4zNTYzIDE3LjE1ODggMzEuODg2MiAxNi44MTY1IDMyLjQzMTIgMTYuNDY4N0MzMi43NDQ0IDE2LjI2ODkgMzMuMTQyIDE2LjQ3NzEgMzMuNDkyMiAxNi44MjcyQzMzLjg0MjMgMTcuMTc3NCAzNC4wNDU3IDE3LjU3MjYgMzMuODUwNyAxNy44ODgyQzMzLjUwNjYgMTguNDQ1MSAzMy4xNjM5IDE4Ljk4NzUgMzIuODI5OSAxOS41MDc5QzMyLjYzNTIgMTkuODExMiAzMi42MDIxIDIwLjE4NjYgMzIuNzM5MyAyMC41MTk4TDMyLjc1MjggMjAuNTUyOEMzMi44OTA2IDIwLjg5MzggMzMuMTg0NSAyMS4xNDM0IDMzLjU0NDMgMjEuMjE5NVpNMjUuMDcxNyAyMi42MjI4QzI1LjA3MTcgMjQuMDcyNSAyNi4yNDY5IDI1LjI0NzUgMjcuNjk2NCAyNS4yNDc1QzI5LjE0NiAyNS4yNDc1IDMwLjMyMTEgMjQuMDcyNSAzMC4zMjExIDIyLjYyMjhDMzAuMzIxMSAyMS4xNzMyIDI5LjE0NiAxOS45OTgyIDI3LjY5NjQgMTkuOTk4MkMyNi4yNDY5IDE5Ljk5ODIgMjUuMDcxNyAyMS4xNzMzIDI1LjA3MTcgMjIuNjIyOFpNNDYuMDkxIDI5Ljk5MjhDNDUuNTY4MiAyOS44Nzc1IDQ1LjA1NzUgMjkuNzY3NSA0NC41NjU5IDI5LjY2MzZDNDQuMjY5NiAyOS42MDEgNDQuMDI3NSAyOS4zOTU0IDQzLjkxNCAyOS4xMTQ2TDQzLjkwMjkgMjkuMDg3NEM0My43OSAyOC44MTI5IDQzLjgxNzIgMjguNTAzOCA0My45Nzc2IDI4LjI1NEM0NC4yNTI2IDI3LjgyNTUgNDQuNTM0OSAyNy4zNzg4IDQ0LjgxODIgMjYuOTIwMkM0NC45Nzg4IDI2LjY2MDMgNDQuODExMyAyNi4zMzQ4IDQ0LjUyMyAyNi4wNDY0QzQ0LjIzNDYgMjUuNzU4MSA0My45MDcxIDI1LjU4NjYgNDMuNjQ5MiAyNS43NTExQzQzLjIwMDQgMjYuMDM3NiA0Mi43NjQgMjYuMzE5NSA0Mi4zNDUgMjYuNTkyMkM0Mi4wODkgMjYuNzU5IDQxLjc3MDIgMjYuNzg2NyA0MS40ODgxIDI2LjY2OTVMNDEuNDU5OCAyNi42NThDNDEuMTc1NCAyNi41NDIxIDQwLjk2NzUgMjYuMjk1OSA0MC45MDM5IDI1Ljk5NTNDNDAuODAwNSAyNS41MDYyIDQwLjY5MTIgMjQuOTk4MiA0MC41NzY0IDI0LjQ3ODRDNDAuNTEwNiAyNC4xNzk3IDQwLjE1NzggMjQuMDY5NCAzOS43NSAyNC4wNjk0QzM5LjM0MjIgMjQuMDY5NCAzOC45OTM3IDI0LjE4MTEgMzguOTIzNSAyNC40Nzg0QzM4LjgwMDIgMjUuMDAwMSAzOC42ODQ2IDI1LjUxMjYgMzguNTc2NiAyNi4wMDc2QzM4LjUxMTcgMjYuMzA0NiAzOC4zMDYxIDI2LjU0NzcgMzguMDI1MSAyNi42NjM3TDM4LjAxNDUgMjYuNjY4MkMzNy43MzEzIDI2Ljc4NiAzNy40MTE1IDI2Ljc1OTMgMzcuMTU0NSAyNi41OTJDMzYuNzM1NyAyNi4zMTkzIDM2LjI5OTQgMjYuMDM3NSAzNS44NTA4IDI1Ljc1MTFDMzUuNTkzIDI1LjU4NjYgMzUuMjY1NSAyNS43NTgxIDM0Ljk3NzEgMjYuMDQ2NEMzNC42ODg4IDI2LjMzNDggMzQuNTIxMyAyNi42NjAyIDM0LjY4MTkgMjYuOTIwMkMzNC45NjUyIDI3LjM3ODggMzUuMjQ3NCAyNy44MjU1IDM1LjUyMjUgMjguMjU0QzM1LjY4MjggMjguNTAzOSAzNS43MTAxIDI4LjgxMjkgMzUuNTk3MSAyOS4wODc0TDM1LjU4NiAyOS4xMTQ2QzM1LjQ3MjYgMjkuMzk1NCAzNS4yMzA0IDI5LjYwMSAzNC45MzQyIDI5LjY2MzZDMzQuNDQyNSAyOS43Njc1IDMzLjkzMTggMjkuODc3NCAzMy40MDkgMjkuOTkyOEMzMy4xMTA0IDMwLjA1ODggMzMgMzAuNDExNiAzMyAzMC44MTk0QzMzIDMxLjIyNzEgMzMuMTExNyAzMS41NzU3IDMzLjQwOSAzMS42NDU5QzMzLjkzMzggMzEuNzY5OCAzNC40NDkzIDMxLjg4NjIgMzQuOTQ2OSAzMS45OTQ3QzM1LjIzODcgMzIuMDU4MyAzNS40Nzc3IDMyLjI2IDM1LjU5MTEgMzIuNTM2MkwzNS42MDIyIDMyLjU2MzFDMzUuNzE4NCAzMi44NDEgMzUuNjkxOCAzMy4xNTQ5IDM1LjUyNzUgMzMuNDA3MkMzNS4yNTMzIDMzLjgyODQgMzQuOTcgMzQuMjY3MiAzNC42ODE5IDM0LjcxODVDMzQuNTE3MyAzNC45NzYzIDM0LjY4ODggMzUuMzAzOCAzNC45NzcxIDM1LjU5MjNDMzUuMjY1NSAzNS44ODA1IDM1LjU5MDkgMzYuMDQ4IDM1Ljg1MDggMzUuODg3NEMzNi4zMDkzIDM1LjYwNDIgMzYuNzU1OCAzNS4zMjIgMzcuMTg0NCAzNS4wNDdDMzcuNDM1MSAzNC44ODYxIDM3Ljc0NTIgMzQuODYgMzguMDIwNiAzNC45NzM1TDM4LjAzIDM0Ljk3NzRDMzguMzA3NSAzNS4wOTEgMzguNTEwOSAzNS4zMyAzOC41NzQ4IDM1LjYyM0MzOC42ODMzIDM2LjEyMDUgMzguNzk5NiAzNi42MzU3IDM4LjkyMzUgMzcuMTYwMkMzOC45OTM3IDM3LjQ1NzYgMzkuMzQyMiAzNy41Njk0IDM5Ljc1IDM3LjU2OTRDNDAuMTU3OCAzNy41Njk0IDQwLjUxMDYgMzcuNDU5IDQwLjU3NjUgMzcuMTYwM0M0MC42OTIgMzYuNjM3NSA0MC44MDE5IDM2LjEyNjkgNDAuOTA1OCAzNS42MzUyQzQwLjk2ODQgMzUuMzM4OCA0MS4xNzQgMzUuMDk2OCA0MS40NTQ3IDM0Ljk4MzNMNDEuNDgxOSAzNC45NzIzQzQxLjc1NjQgMzQuODU5MyA0Mi4wNjU1IDM0Ljg4NjUgNDIuMzE1MiAzNS4wNDY5QzQyLjc0MzkgMzUuMzIxOSA0My4xOTA1IDM1LjYwNDIgNDMuNjQ5MSAzNS44ODc1QzQzLjkwOSAzNi4wNDgxIDQ0LjIzNDUgMzUuODgwNiA0NC41MjI5IDM1LjU5MjNDNDQuODExMiAzNS4zMDM5IDQ0Ljk4MjcgMzQuOTc2NCA0NC44MTgxIDM0LjcxODZDNDQuNTMwMSAzNC4yNjczIDQ0LjI0NjYgMzMuODI4NCA0My45NzI1IDMzLjQwNzNDNDMuODA4MiAzMy4xNTUgNDMuNzgxNiAzMi44NDEgNDMuODk3NyAzMi41NjMyTDQzLjkwODkgMzIuNTM2MkM0NC4wMjIyIDMyLjI2MDEgNDQuMjYxMyAzMi4wNTg0IDQ0LjU1MzEgMzEuOTk0N0M0NS4wNTA3IDMxLjg4NjIgNDUuNTY2MiAzMS43Njk4IDQ2LjA5MDkgMzEuNjQ1OUM0Ni4zODgzIDMxLjU3NTcgNDYuNSAzMS4yMjcxIDQ2LjUgMzAuODE5NEM0Ni41IDMwLjQxMTYgNDYuMzg5NyAzMC4wNTg4IDQ2LjA5MSAyOS45OTI4Wk0zOS43NSAzMi45ODA4QzM4LjU1NjMgMzIuOTgwOCAzNy41ODg1IDMyLjAxMzEgMzcuNTg4NSAzMC44MTkzQzM3LjU4ODUgMjkuNjI1NiAzOC41NTYzIDI4LjY1NzggMzkuNzUgMjguNjU3OEM0MC45NDM4IDI4LjY1NzggNDEuOTExNSAyOS42MjU1IDQxLjkxMTUgMzAuODE5M0M0MS45MTE1IDMyLjAxMzEgNDAuOTQzOCAzMi45ODA4IDM5Ljc1IDMyLjk4MDhaIiBjbGlwLXJ1bGU9ImV2ZW5vZGQiIGZpbGwtcnVsZT0iZXZlbm9kZCIvPiYjeGE7PC9zdmc+;" parent="atDbLLzjIxGfExJ--USy-57" vertex="1">
          <mxGeometry x="10" y="9.57" width="31.05" height="30.43" as="geometry" />
        </mxCell>
        <mxCell id="atDbLLzjIxGfExJ--USy-62" value="" style="group" parent="atDbLLzjIxGfExJ--USy-146" vertex="1" connectable="0">
          <mxGeometry y="99" width="87" height="80.75" as="geometry" />
        </mxCell>
        <mxCell id="atDbLLzjIxGfExJ--USy-63" value="" style="whiteSpace=wrap;html=1;aspect=fixed;strokeColor=none;strokeWidth=2;rounded=1;labelPosition=center;verticalLabelPosition=bottom;align=center;verticalAlign=top;sketch=1;curveFitting=1;jiggle=2;fillColor=#e17000;fillStyle=solid;rotation=-90;" parent="atDbLLzjIxGfExJ--USy-62" vertex="1">
          <mxGeometry y="0.75" width="80" height="80" as="geometry" />
        </mxCell>
        <mxCell id="atDbLLzjIxGfExJ--USy-64" value="" style="group;" parent="atDbLLzjIxGfExJ--USy-62" vertex="1" connectable="0">
          <mxGeometry x="15" y="17.75" width="50" height="50" as="geometry" />
        </mxCell>
        <mxCell id="atDbLLzjIxGfExJ--USy-65" value="" style="points=[[0.145,0.145,0],[0.5,0,0],[0.855,0.145,0],[1,0.5,0],[0.855,0.855,0],[0.5,1,0],[0.145,0.855,0],[0,0.5,0]];shape=mxgraph.bpmn.event;html=1;verticalLabelPosition=bottom;labelBackgroundColor=none;verticalAlign=top;align=center;perimeter=ellipsePerimeter;outlineConnect=0;aspect=fixed;outline=standard;symbol=general;strokeColor=none;strokeWidth=2;fontFamily=Fira Sans;fontSource=https%3A%2F%2Ffonts.googleapis.com%2Fcss%3Ffamily%3DFira%2BSans;fontSize=14;fillColor=#d52b1e;labelPosition=center;spacingLeft=4;" parent="atDbLLzjIxGfExJ--USy-64" vertex="1">
          <mxGeometry width="50" height="50" as="geometry" />
        </mxCell>
        <mxCell id="atDbLLzjIxGfExJ--USy-66" value="" style="shape=image;verticalLabelPosition=bottom;verticalAlign=top;imageAspect=0;aspect=fixed;image=data:image/svg+xml,PHN2ZyB4bWxucz0iaHR0cDovL3d3dy53My5vcmcvMjAwMC9zdmciIGZpbGw9Im5vbmUiIHZpZXdCb3g9IjcuNSA3LjQyNjUwOTg1NzE3NzczNCA1MCA0OC45OTk5ODg1NTU5MDgyIiBoZWlnaHQ9IjQ4Ljk5OTk4ODU1NTkwODIiIHdpZHRoPSI1MCI+JiN4YTs8cGF0aCBmaWxsPSJ3aGl0ZSIgZD0iTTkuNSA3LjQyNjUxSDU1LjVDNTYuNjA0NSA3LjQyNjUxIDU3LjUgOC4zMjIwMSA1Ny41IDkuNDI2NTFWNDQuNDI2NkM1Ny41IDQ1LjUzMTEgNTYuNjA0NSA0Ni40MjY2IDU1LjUgNDYuNDI2NkgzMC4zMzM4QzMwLjI5NjkgNDYuNTEyNSAzMC4yNTc4IDQ2Ljc0NjkgMzAuNTc4MSA0Ni44MDk0QzM1LjE1MjkgNDcuNzAyIDM5LjU1NTMgNDguMzQxNyAzOS41NTUzIDQ4LjM0MTdDMzkuNzk3MyA0OS4xNTU5IDQwLjExMTkgNTAuMTkzNSA0MC41IDUxLjQyNjVDNDEuMDc3OSA1My4yNjM4IDQyLjg3OTEgNTMuNDE4NSA0My4zNjkxIDUzLjQyNjVINDUuNUM0Ni4wNTI3IDUzLjQyNjUgNDYuNSA1My44NzQzIDQ2LjUgNTQuNDI2NVY1Ni40MjY1SDE4LjVWNTQuNDI2NUMxOC41IDUzLjg3NDMgMTguOTQ3MyA1My40MjY1IDE5LjUgNTMuNDI2NUgyMS42MzA5QzIyLjEyMDkgNTMuNDE4NSAyMy45MjIxIDUzLjI2MzggMjQuNSA1MS40MjY1QzI1LjQ2NTggNDguMzU3NyAyNiA0Ni40MTY1IDI2IDQ2LjQxNjVIOS41QzguMzk1NSA0Ni40MTY1IDcuNSA0NS41MjEgNy41IDQ0LjQxNjVWOS40MjY1MUM3LjUgOC4zMjIwMSA4LjM5NTUgNy40MjY1MSA5LjUgNy40MjY1MVpNMTIuNSAzOS40MjY1SDUyLjVWMTIuNDI2NUgxMi41VjM5LjQyNjVaTTMzLjU0NDMgMjEuMjE5NUMzNC4xNDEyIDIxLjM0NTYgMzQuNzYxNCAyMS40NzkyIDM1LjM5NjIgMjEuNjE5M0MzNS43NTg5IDIxLjY5OTMgMzUuODkyOSAyMi4xMjc4IDM1Ljg5MjkgMjIuNjIyOUMzNS44OTI5IDIzLjExODEgMzUuNzU3MiAyMy41NDEzIDM1LjM5NjEgMjMuNjI2NkMzNC43NTkgMjMuNzc3MSAzNC4xMzI5IDIzLjkxODQgMzMuNTI4NyAyNC4wNTAyQzMzLjE3NDQgMjQuMTI3NSAzMi44ODQxIDI0LjM3MjMgMzIuNzQ2NSAyNC43MDc3TDMyLjczMjkgMjQuNzQwNEMzMi41OTE5IDI1LjA3NzggMzIuNjI0MiAyNS40NTkxIDMyLjgyMzcgMjUuNzY1NUMzMy4xNTY2IDI2LjI3NjcgMzMuNTAwOSAyNi44MDk3IDMzLjg1MDYgMjcuMzU3N0MzNC4wNTA0IDI3LjY3MDggMzMuODQyMiAyOC4wNjg1IDMzLjQ5MjEgMjguNDE4N0MzMy4xNDE5IDI4Ljc2ODcgMzIuNzQ2NyAyOC45NzIxIDMyLjQzMTEgMjguNzc3MUMzMS44NzQyIDI4LjQzMzEgMzEuMzMxOSAyOC4wOTAzIDMwLjgxMTQgMjcuNzU2M0MzMC41MDgxIDI3LjU2MTYgMzAuMTMyOCAyNy41Mjg2IDI5Ljc5OTQgMjcuNjY1OEwyOS43NjY1IDI3LjY3OTJDMjkuNDI1NiAyNy44MTcgMjkuMTc1OSAyOC4xMTA5IDI5LjA5OTggMjguNDcwOEMyOC45NzM3IDI5LjA2NzcgMjguODQwMyAyOS42ODc5IDI4LjcwMDEgMzAuMzIyN0MyOC42MiAzMC42ODUzIDI4LjE5MTYgMzAuODE5NCAyNy42OTY0IDMwLjgxOTRDMjcuMjAxMyAzMC44MTk0IDI2Ljc3OCAzMC42ODM3IDI2LjY5MjggMzAuMzIyNUMyNi41NDI0IDI5LjY4NTcgMjYuNDAxMiAyOS4wNiAyNi4yNjk0IDI4LjQ1NTlDMjYuMTkxOCAyOC4xMDAyIDI1Ljk0NDggMjcuODA5OSAyNS42MDc5IDI3LjY3MTlMMjUuNTk2NCAyNy42NjcyQzI1LjI2MiAyNy41Mjk0IDI0Ljg4NTQgMjcuNTYxMSAyNC41ODEgMjcuNzU2NUMyNC4wNjA2IDI4LjA5MDQgMjMuNTE4NSAyOC40MzMxIDIyLjk2MTcgMjguNzc3QzIyLjY0NjEgMjguOTcyIDIyLjI1MDkgMjguNzY4NiAyMS45MDA4IDI4LjQxODZDMjEuNTUwNiAyOC4wNjg0IDIxLjM0MjUgMjcuNjcwNyAyMS41NDIzIDI3LjM1NzZDMjEuODkyMSAyNi44MDk2IDIyLjIzNjIgMjYuMjc2NyAyMi41NjkxIDI1Ljc2NTRDMjIuNzY4NiAyNS40NTkgMjIuODAwOSAyNS4wNzc3IDIyLjY1OTkgMjQuNzQwM0wyMi42NDY0IDI0LjcwNzZDMjIuNTA4NyAyNC4zNzIzIDIyLjIxODQgMjQuMTI3NCAyMS44NjQxIDI0LjA1MDJDMjEuMjU5OCAyMy45MTg0IDIwLjYzMzkgMjMuNzc3MSAxOS45OTY3IDIzLjYyNjZDMTkuNjM1NyAyMy41NDEzIDE5LjUgMjMuMTE4MSAxOS41IDIyLjYyMjlDMTkuNSAyMi4xMjc4IDE5LjYzNCAyMS42OTkzIDE5Ljk5NjcgMjEuNjE5M0MyMC42MzE1IDIxLjQ3OTEgMjEuMjUxNiAyMS4zNDU2IDIxLjg0ODYgMjEuMjE5NUMyMi4yMDg0IDIxLjE0MzQgMjIuNTAyNSAyMC44OTM4IDIyLjY0MDIgMjAuNTUyOEwyMi42NTM2IDIwLjUxOThDMjIuNzkwOCAyMC4xODY1IDIyLjc1NzcgMTkuODExMyAyMi41NjMxIDE5LjUwNzlDMjIuMjI5IDE4Ljk4NzUgMjEuODg2MyAxOC40NDUxIDIxLjU0MjMgMTcuODg4MkMyMS4zNDczIDE3LjU3MjUgMjEuNTUwNiAxNy4xNzc0IDIxLjkwMDggMTYuODI3MkMyMi4yNTA5IDE2LjQ3NzEgMjIuNjQ4NiAxNi4yNjg5IDIyLjk2MTcgMTYuNDY4N0MyMy41MDY0IDE2LjgxNjQgMjQuMDM2MiAxNy4xNTg1IDI0LjU0NDggMTcuNDg5N0MyNC44NTY4IDE3LjY5MjggMjUuMjQ1MSAxNy43MjUyIDI1LjU4OSAxNy41ODIyTDI1LjYwMTkgMTcuNTc2OEMyNS45NDMyIDE3LjQzNiAyNi4xOTI4IDE3LjE0MDggMjYuMjcxNiAxNi43OEMyNi40MDI3IDE2LjE3OSAyNi41NDMxIDE1LjU1NjcgMjYuNjkyOCAxNC45MjMyQzI2Ljc3OCAxNC41NjIyIDI3LjIwMTMgMTQuNDI2NSAyNy42OTY0IDE0LjQyNjVDMjguMTkxNiAxNC40MjY1IDI4LjYyIDE0LjU2MDUgMjguNyAxNC45MjMyQzI4LjgzOTMgMTUuNTU0NCAyOC45NzIxIDE2LjE3MTMgMjkuMDk3NiAxNi43NjUyQzI5LjE3NDggMTcuMTMwMiAyOS40MjcyIDE3LjQyOTEgMjkuNzcyNiAxNy41Njk4TDI5LjgwNyAxNy41ODM5QzMwLjE0OTYgMTcuNzI2MSAzMC41MzY2IDE3LjY5MjUgMzAuODQ3NSAxNy40OUMzMS4zNTYzIDE3LjE1ODggMzEuODg2MiAxNi44MTY1IDMyLjQzMTIgMTYuNDY4N0MzMi43NDQ0IDE2LjI2ODkgMzMuMTQyIDE2LjQ3NzEgMzMuNDkyMiAxNi44MjcyQzMzLjg0MjMgMTcuMTc3NCAzNC4wNDU3IDE3LjU3MjYgMzMuODUwNyAxNy44ODgyQzMzLjUwNjYgMTguNDQ1MSAzMy4xNjM5IDE4Ljk4NzUgMzIuODI5OSAxOS41MDc5QzMyLjYzNTIgMTkuODExMiAzMi42MDIxIDIwLjE4NjYgMzIuNzM5MyAyMC41MTk4TDMyLjc1MjggMjAuNTUyOEMzMi44OTA2IDIwLjg5MzggMzMuMTg0NSAyMS4xNDM0IDMzLjU0NDMgMjEuMjE5NVpNMjUuMDcxNyAyMi42MjI4QzI1LjA3MTcgMjQuMDcyNSAyNi4yNDY5IDI1LjI0NzUgMjcuNjk2NCAyNS4yNDc1QzI5LjE0NiAyNS4yNDc1IDMwLjMyMTEgMjQuMDcyNSAzMC4zMjExIDIyLjYyMjhDMzAuMzIxMSAyMS4xNzMyIDI5LjE0NiAxOS45OTgyIDI3LjY5NjQgMTkuOTk4MkMyNi4yNDY5IDE5Ljk5ODIgMjUuMDcxNyAyMS4xNzMzIDI1LjA3MTcgMjIuNjIyOFpNNDYuMDkxIDI5Ljk5MjhDNDUuNTY4MiAyOS44Nzc1IDQ1LjA1NzUgMjkuNzY3NSA0NC41NjU5IDI5LjY2MzZDNDQuMjY5NiAyOS42MDEgNDQuMDI3NSAyOS4zOTU0IDQzLjkxNCAyOS4xMTQ2TDQzLjkwMjkgMjkuMDg3NEM0My43OSAyOC44MTI5IDQzLjgxNzIgMjguNTAzOCA0My45Nzc2IDI4LjI1NEM0NC4yNTI2IDI3LjgyNTUgNDQuNTM0OSAyNy4zNzg4IDQ0LjgxODIgMjYuOTIwMkM0NC45Nzg4IDI2LjY2MDMgNDQuODExMyAyNi4zMzQ4IDQ0LjUyMyAyNi4wNDY0QzQ0LjIzNDYgMjUuNzU4MSA0My45MDcxIDI1LjU4NjYgNDMuNjQ5MiAyNS43NTExQzQzLjIwMDQgMjYuMDM3NiA0Mi43NjQgMjYuMzE5NSA0Mi4zNDUgMjYuNTkyMkM0Mi4wODkgMjYuNzU5IDQxLjc3MDIgMjYuNzg2NyA0MS40ODgxIDI2LjY2OTVMNDEuNDU5OCAyNi42NThDNDEuMTc1NCAyNi41NDIxIDQwLjk2NzUgMjYuMjk1OSA0MC45MDM5IDI1Ljk5NTNDNDAuODAwNSAyNS41MDYyIDQwLjY5MTIgMjQuOTk4MiA0MC41NzY0IDI0LjQ3ODRDNDAuNTEwNiAyNC4xNzk3IDQwLjE1NzggMjQuMDY5NCAzOS43NSAyNC4wNjk0QzM5LjM0MjIgMjQuMDY5NCAzOC45OTM3IDI0LjE4MTEgMzguOTIzNSAyNC40Nzg0QzM4LjgwMDIgMjUuMDAwMSAzOC42ODQ2IDI1LjUxMjYgMzguNTc2NiAyNi4wMDc2QzM4LjUxMTcgMjYuMzA0NiAzOC4zMDYxIDI2LjU0NzcgMzguMDI1MSAyNi42NjM3TDM4LjAxNDUgMjYuNjY4MkMzNy43MzEzIDI2Ljc4NiAzNy40MTE1IDI2Ljc1OTMgMzcuMTU0NSAyNi41OTJDMzYuNzM1NyAyNi4zMTkzIDM2LjI5OTQgMjYuMDM3NSAzNS44NTA4IDI1Ljc1MTFDMzUuNTkzIDI1LjU4NjYgMzUuMjY1NSAyNS43NTgxIDM0Ljk3NzEgMjYuMDQ2NEMzNC42ODg4IDI2LjMzNDggMzQuNTIxMyAyNi42NjAyIDM0LjY4MTkgMjYuOTIwMkMzNC45NjUyIDI3LjM3ODggMzUuMjQ3NCAyNy44MjU1IDM1LjUyMjUgMjguMjU0QzM1LjY4MjggMjguNTAzOSAzNS43MTAxIDI4LjgxMjkgMzUuNTk3MSAyOS4wODc0TDM1LjU4NiAyOS4xMTQ2QzM1LjQ3MjYgMjkuMzk1NCAzNS4yMzA0IDI5LjYwMSAzNC45MzQyIDI5LjY2MzZDMzQuNDQyNSAyOS43Njc1IDMzLjkzMTggMjkuODc3NCAzMy40MDkgMjkuOTkyOEMzMy4xMTA0IDMwLjA1ODggMzMgMzAuNDExNiAzMyAzMC44MTk0QzMzIDMxLjIyNzEgMzMuMTExNyAzMS41NzU3IDMzLjQwOSAzMS42NDU5QzMzLjkzMzggMzEuNzY5OCAzNC40NDkzIDMxLjg4NjIgMzQuOTQ2OSAzMS45OTQ3QzM1LjIzODcgMzIuMDU4MyAzNS40Nzc3IDMyLjI2IDM1LjU5MTEgMzIuNTM2MkwzNS42MDIyIDMyLjU2MzFDMzUuNzE4NCAzMi44NDEgMzUuNjkxOCAzMy4xNTQ5IDM1LjUyNzUgMzMuNDA3MkMzNS4yNTMzIDMzLjgyODQgMzQuOTcgMzQuMjY3MiAzNC42ODE5IDM0LjcxODVDMzQuNTE3MyAzNC45NzYzIDM0LjY4ODggMzUuMzAzOCAzNC45NzcxIDM1LjU5MjNDMzUuMjY1NSAzNS44ODA1IDM1LjU5MDkgMzYuMDQ4IDM1Ljg1MDggMzUuODg3NEMzNi4zMDkzIDM1LjYwNDIgMzYuNzU1OCAzNS4zMjIgMzcuMTg0NCAzNS4wNDdDMzcuNDM1MSAzNC44ODYxIDM3Ljc0NTIgMzQuODYgMzguMDIwNiAzNC45NzM1TDM4LjAzIDM0Ljk3NzRDMzguMzA3NSAzNS4wOTEgMzguNTEwOSAzNS4zMyAzOC41NzQ4IDM1LjYyM0MzOC42ODMzIDM2LjEyMDUgMzguNzk5NiAzNi42MzU3IDM4LjkyMzUgMzcuMTYwMkMzOC45OTM3IDM3LjQ1NzYgMzkuMzQyMiAzNy41Njk0IDM5Ljc1IDM3LjU2OTRDNDAuMTU3OCAzNy41Njk0IDQwLjUxMDYgMzcuNDU5IDQwLjU3NjUgMzcuMTYwM0M0MC42OTIgMzYuNjM3NSA0MC44MDE5IDM2LjEyNjkgNDAuOTA1OCAzNS42MzUyQzQwLjk2ODQgMzUuMzM4OCA0MS4xNzQgMzUuMDk2OCA0MS40NTQ3IDM0Ljk4MzNMNDEuNDgxOSAzNC45NzIzQzQxLjc1NjQgMzQuODU5MyA0Mi4wNjU1IDM0Ljg4NjUgNDIuMzE1MiAzNS4wNDY5QzQyLjc0MzkgMzUuMzIxOSA0My4xOTA1IDM1LjYwNDIgNDMuNjQ5MSAzNS44ODc1QzQzLjkwOSAzNi4wNDgxIDQ0LjIzNDUgMzUuODgwNiA0NC41MjI5IDM1LjU5MjNDNDQuODExMiAzNS4zMDM5IDQ0Ljk4MjcgMzQuOTc2NCA0NC44MTgxIDM0LjcxODZDNDQuNTMwMSAzNC4yNjczIDQ0LjI0NjYgMzMuODI4NCA0My45NzI1IDMzLjQwNzNDNDMuODA4MiAzMy4xNTUgNDMuNzgxNiAzMi44NDEgNDMuODk3NyAzMi41NjMyTDQzLjkwODkgMzIuNTM2MkM0NC4wMjIyIDMyLjI2MDEgNDQuMjYxMyAzMi4wNTg0IDQ0LjU1MzEgMzEuOTk0N0M0NS4wNTA3IDMxLjg4NjIgNDUuNTY2MiAzMS43Njk4IDQ2LjA5MDkgMzEuNjQ1OUM0Ni4zODgzIDMxLjU3NTcgNDYuNSAzMS4yMjcxIDQ2LjUgMzAuODE5NEM0Ni41IDMwLjQxMTYgNDYuMzg5NyAzMC4wNTg4IDQ2LjA5MSAyOS45OTI4Wk0zOS43NSAzMi45ODA4QzM4LjU1NjMgMzIuOTgwOCAzNy41ODg1IDMyLjAxMzEgMzcuNTg4NSAzMC44MTkzQzM3LjU4ODUgMjkuNjI1NiAzOC41NTYzIDI4LjY1NzggMzkuNzUgMjguNjU3OEM0MC45NDM4IDI4LjY1NzggNDEuOTExNSAyOS42MjU1IDQxLjkxMTUgMzAuODE5M0M0MS45MTE1IDMyLjAxMzEgNDAuOTQzOCAzMi45ODA4IDM5Ljc1IDMyLjk4MDhaIiBjbGlwLXJ1bGU9ImV2ZW5vZGQiIGZpbGwtcnVsZT0iZXZlbm9kZCIvPiYjeGE7PC9zdmc+;" parent="atDbLLzjIxGfExJ--USy-64" vertex="1">
          <mxGeometry x="10.440000000000055" y="10" width="30.61" height="30" as="geometry" />
        </mxCell>
        <mxCell id="atDbLLzjIxGfExJ--USy-69" value="" style="group" parent="atDbLLzjIxGfExJ--USy-146" vertex="1" connectable="0">
          <mxGeometry width="82" height="81" as="geometry" />
        </mxCell>
        <mxCell id="atDbLLzjIxGfExJ--USy-70" value="" style="whiteSpace=wrap;html=1;aspect=fixed;strokeColor=none;strokeWidth=2;rounded=1;labelPosition=center;verticalLabelPosition=bottom;align=center;verticalAlign=top;sketch=1;curveFitting=1;jiggle=2;fillColor=#76d2b6;fillStyle=solid;" parent="atDbLLzjIxGfExJ--USy-69" vertex="1">
          <mxGeometry y="1" width="80" height="80" as="geometry" />
        </mxCell>
        <mxCell id="atDbLLzjIxGfExJ--USy-71" value="" style="group;" parent="atDbLLzjIxGfExJ--USy-69" vertex="1" connectable="0">
          <mxGeometry x="15" y="18" width="50" height="50" as="geometry" />
        </mxCell>
        <mxCell id="atDbLLzjIxGfExJ--USy-72" value="" style="points=[[0.145,0.145,0],[0.5,0,0],[0.855,0.145,0],[1,0.5,0],[0.855,0.855,0],[0.5,1,0],[0.145,0.855,0],[0,0.5,0]];shape=mxgraph.bpmn.event;html=1;verticalLabelPosition=bottom;labelBackgroundColor=none;verticalAlign=top;align=center;perimeter=ellipsePerimeter;outlineConnect=0;aspect=fixed;outline=standard;symbol=general;strokeColor=none;strokeWidth=2;fontFamily=Fira Sans;fontSource=https%3A%2F%2Ffonts.googleapis.com%2Fcss%3Ffamily%3DFira%2BSans;fontSize=14;fillColor=#d52b1e;labelPosition=center;spacingLeft=4;" parent="atDbLLzjIxGfExJ--USy-71" vertex="1">
          <mxGeometry width="50" height="50" as="geometry" />
        </mxCell>
        <mxCell id="atDbLLzjIxGfExJ--USy-73" value="" style="shape=image;verticalLabelPosition=bottom;verticalAlign=top;imageAspect=0;aspect=fixed;image=data:image/svg+xml,PHN2ZyB4bWxucz0iaHR0cDovL3d3dy53My5vcmcvMjAwMC9zdmciIGZpbGw9Im5vbmUiIHZpZXdCb3g9IjcuNSA3LjQyNjUwOTg1NzE3NzczNCA1MCA0OC45OTk5ODg1NTU5MDgyIiBoZWlnaHQ9IjQ4Ljk5OTk4ODU1NTkwODIiIHdpZHRoPSI1MCI+JiN4YTs8cGF0aCBmaWxsPSJ3aGl0ZSIgZD0iTTkuNSA3LjQyNjUxSDU1LjVDNTYuNjA0NSA3LjQyNjUxIDU3LjUgOC4zMjIwMSA1Ny41IDkuNDI2NTFWNDQuNDI2NkM1Ny41IDQ1LjUzMTEgNTYuNjA0NSA0Ni40MjY2IDU1LjUgNDYuNDI2NkgzMC4zMzM4QzMwLjI5NjkgNDYuNTEyNSAzMC4yNTc4IDQ2Ljc0NjkgMzAuNTc4MSA0Ni44MDk0QzM1LjE1MjkgNDcuNzAyIDM5LjU1NTMgNDguMzQxNyAzOS41NTUzIDQ4LjM0MTdDMzkuNzk3MyA0OS4xNTU5IDQwLjExMTkgNTAuMTkzNSA0MC41IDUxLjQyNjVDNDEuMDc3OSA1My4yNjM4IDQyLjg3OTEgNTMuNDE4NSA0My4zNjkxIDUzLjQyNjVINDUuNUM0Ni4wNTI3IDUzLjQyNjUgNDYuNSA1My44NzQzIDQ2LjUgNTQuNDI2NVY1Ni40MjY1SDE4LjVWNTQuNDI2NUMxOC41IDUzLjg3NDMgMTguOTQ3MyA1My40MjY1IDE5LjUgNTMuNDI2NUgyMS42MzA5QzIyLjEyMDkgNTMuNDE4NSAyMy45MjIxIDUzLjI2MzggMjQuNSA1MS40MjY1QzI1LjQ2NTggNDguMzU3NyAyNiA0Ni40MTY1IDI2IDQ2LjQxNjVIOS41QzguMzk1NSA0Ni40MTY1IDcuNSA0NS41MjEgNy41IDQ0LjQxNjVWOS40MjY1MUM3LjUgOC4zMjIwMSA4LjM5NTUgNy40MjY1MSA5LjUgNy40MjY1MVpNMTIuNSAzOS40MjY1SDUyLjVWMTIuNDI2NUgxMi41VjM5LjQyNjVaTTMzLjU0NDMgMjEuMjE5NUMzNC4xNDEyIDIxLjM0NTYgMzQuNzYxNCAyMS40NzkyIDM1LjM5NjIgMjEuNjE5M0MzNS43NTg5IDIxLjY5OTMgMzUuODkyOSAyMi4xMjc4IDM1Ljg5MjkgMjIuNjIyOUMzNS44OTI5IDIzLjExODEgMzUuNzU3MiAyMy41NDEzIDM1LjM5NjEgMjMuNjI2NkMzNC43NTkgMjMuNzc3MSAzNC4xMzI5IDIzLjkxODQgMzMuNTI4NyAyNC4wNTAyQzMzLjE3NDQgMjQuMTI3NSAzMi44ODQxIDI0LjM3MjMgMzIuNzQ2NSAyNC43MDc3TDMyLjczMjkgMjQuNzQwNEMzMi41OTE5IDI1LjA3NzggMzIuNjI0MiAyNS40NTkxIDMyLjgyMzcgMjUuNzY1NUMzMy4xNTY2IDI2LjI3NjcgMzMuNTAwOSAyNi44MDk3IDMzLjg1MDYgMjcuMzU3N0MzNC4wNTA0IDI3LjY3MDggMzMuODQyMiAyOC4wNjg1IDMzLjQ5MjEgMjguNDE4N0MzMy4xNDE5IDI4Ljc2ODcgMzIuNzQ2NyAyOC45NzIxIDMyLjQzMTEgMjguNzc3MUMzMS44NzQyIDI4LjQzMzEgMzEuMzMxOSAyOC4wOTAzIDMwLjgxMTQgMjcuNzU2M0MzMC41MDgxIDI3LjU2MTYgMzAuMTMyOCAyNy41Mjg2IDI5Ljc5OTQgMjcuNjY1OEwyOS43NjY1IDI3LjY3OTJDMjkuNDI1NiAyNy44MTcgMjkuMTc1OSAyOC4xMTA5IDI5LjA5OTggMjguNDcwOEMyOC45NzM3IDI5LjA2NzcgMjguODQwMyAyOS42ODc5IDI4LjcwMDEgMzAuMzIyN0MyOC42MiAzMC42ODUzIDI4LjE5MTYgMzAuODE5NCAyNy42OTY0IDMwLjgxOTRDMjcuMjAxMyAzMC44MTk0IDI2Ljc3OCAzMC42ODM3IDI2LjY5MjggMzAuMzIyNUMyNi41NDI0IDI5LjY4NTcgMjYuNDAxMiAyOS4wNiAyNi4yNjk0IDI4LjQ1NTlDMjYuMTkxOCAyOC4xMDAyIDI1Ljk0NDggMjcuODA5OSAyNS42MDc5IDI3LjY3MTlMMjUuNTk2NCAyNy42NjcyQzI1LjI2MiAyNy41Mjk0IDI0Ljg4NTQgMjcuNTYxMSAyNC41ODEgMjcuNzU2NUMyNC4wNjA2IDI4LjA5MDQgMjMuNTE4NSAyOC40MzMxIDIyLjk2MTcgMjguNzc3QzIyLjY0NjEgMjguOTcyIDIyLjI1MDkgMjguNzY4NiAyMS45MDA4IDI4LjQxODZDMjEuNTUwNiAyOC4wNjg0IDIxLjM0MjUgMjcuNjcwNyAyMS41NDIzIDI3LjM1NzZDMjEuODkyMSAyNi44MDk2IDIyLjIzNjIgMjYuMjc2NyAyMi41NjkxIDI1Ljc2NTRDMjIuNzY4NiAyNS40NTkgMjIuODAwOSAyNS4wNzc3IDIyLjY1OTkgMjQuNzQwM0wyMi42NDY0IDI0LjcwNzZDMjIuNTA4NyAyNC4zNzIzIDIyLjIxODQgMjQuMTI3NCAyMS44NjQxIDI0LjA1MDJDMjEuMjU5OCAyMy45MTg0IDIwLjYzMzkgMjMuNzc3MSAxOS45OTY3IDIzLjYyNjZDMTkuNjM1NyAyMy41NDEzIDE5LjUgMjMuMTE4MSAxOS41IDIyLjYyMjlDMTkuNSAyMi4xMjc4IDE5LjYzNCAyMS42OTkzIDE5Ljk5NjcgMjEuNjE5M0MyMC42MzE1IDIxLjQ3OTEgMjEuMjUxNiAyMS4zNDU2IDIxLjg0ODYgMjEuMjE5NUMyMi4yMDg0IDIxLjE0MzQgMjIuNTAyNSAyMC44OTM4IDIyLjY0MDIgMjAuNTUyOEwyMi42NTM2IDIwLjUxOThDMjIuNzkwOCAyMC4xODY1IDIyLjc1NzcgMTkuODExMyAyMi41NjMxIDE5LjUwNzlDMjIuMjI5IDE4Ljk4NzUgMjEuODg2MyAxOC40NDUxIDIxLjU0MjMgMTcuODg4MkMyMS4zNDczIDE3LjU3MjUgMjEuNTUwNiAxNy4xNzc0IDIxLjkwMDggMTYuODI3MkMyMi4yNTA5IDE2LjQ3NzEgMjIuNjQ4NiAxNi4yNjg5IDIyLjk2MTcgMTYuNDY4N0MyMy41MDY0IDE2LjgxNjQgMjQuMDM2MiAxNy4xNTg1IDI0LjU0NDggMTcuNDg5N0MyNC44NTY4IDE3LjY5MjggMjUuMjQ1MSAxNy43MjUyIDI1LjU4OSAxNy41ODIyTDI1LjYwMTkgMTcuNTc2OEMyNS45NDMyIDE3LjQzNiAyNi4xOTI4IDE3LjE0MDggMjYuMjcxNiAxNi43OEMyNi40MDI3IDE2LjE3OSAyNi41NDMxIDE1LjU1NjcgMjYuNjkyOCAxNC45MjMyQzI2Ljc3OCAxNC41NjIyIDI3LjIwMTMgMTQuNDI2NSAyNy42OTY0IDE0LjQyNjVDMjguMTkxNiAxNC40MjY1IDI4LjYyIDE0LjU2MDUgMjguNyAxNC45MjMyQzI4LjgzOTMgMTUuNTU0NCAyOC45NzIxIDE2LjE3MTMgMjkuMDk3NiAxNi43NjUyQzI5LjE3NDggMTcuMTMwMiAyOS40MjcyIDE3LjQyOTEgMjkuNzcyNiAxNy41Njk4TDI5LjgwNyAxNy41ODM5QzMwLjE0OTYgMTcuNzI2MSAzMC41MzY2IDE3LjY5MjUgMzAuODQ3NSAxNy40OUMzMS4zNTYzIDE3LjE1ODggMzEuODg2MiAxNi44MTY1IDMyLjQzMTIgMTYuNDY4N0MzMi43NDQ0IDE2LjI2ODkgMzMuMTQyIDE2LjQ3NzEgMzMuNDkyMiAxNi44MjcyQzMzLjg0MjMgMTcuMTc3NCAzNC4wNDU3IDE3LjU3MjYgMzMuODUwNyAxNy44ODgyQzMzLjUwNjYgMTguNDQ1MSAzMy4xNjM5IDE4Ljk4NzUgMzIuODI5OSAxOS41MDc5QzMyLjYzNTIgMTkuODExMiAzMi42MDIxIDIwLjE4NjYgMzIuNzM5MyAyMC41MTk4TDMyLjc1MjggMjAuNTUyOEMzMi44OTA2IDIwLjg5MzggMzMuMTg0NSAyMS4xNDM0IDMzLjU0NDMgMjEuMjE5NVpNMjUuMDcxNyAyMi42MjI4QzI1LjA3MTcgMjQuMDcyNSAyNi4yNDY5IDI1LjI0NzUgMjcuNjk2NCAyNS4yNDc1QzI5LjE0NiAyNS4yNDc1IDMwLjMyMTEgMjQuMDcyNSAzMC4zMjExIDIyLjYyMjhDMzAuMzIxMSAyMS4xNzMyIDI5LjE0NiAxOS45OTgyIDI3LjY5NjQgMTkuOTk4MkMyNi4yNDY5IDE5Ljk5ODIgMjUuMDcxNyAyMS4xNzMzIDI1LjA3MTcgMjIuNjIyOFpNNDYuMDkxIDI5Ljk5MjhDNDUuNTY4MiAyOS44Nzc1IDQ1LjA1NzUgMjkuNzY3NSA0NC41NjU5IDI5LjY2MzZDNDQuMjY5NiAyOS42MDEgNDQuMDI3NSAyOS4zOTU0IDQzLjkxNCAyOS4xMTQ2TDQzLjkwMjkgMjkuMDg3NEM0My43OSAyOC44MTI5IDQzLjgxNzIgMjguNTAzOCA0My45Nzc2IDI4LjI1NEM0NC4yNTI2IDI3LjgyNTUgNDQuNTM0OSAyNy4zNzg4IDQ0LjgxODIgMjYuOTIwMkM0NC45Nzg4IDI2LjY2MDMgNDQuODExMyAyNi4zMzQ4IDQ0LjUyMyAyNi4wNDY0QzQ0LjIzNDYgMjUuNzU4MSA0My45MDcxIDI1LjU4NjYgNDMuNjQ5MiAyNS43NTExQzQzLjIwMDQgMjYuMDM3NiA0Mi43NjQgMjYuMzE5NSA0Mi4zNDUgMjYuNTkyMkM0Mi4wODkgMjYuNzU5IDQxLjc3MDIgMjYuNzg2NyA0MS40ODgxIDI2LjY2OTVMNDEuNDU5OCAyNi42NThDNDEuMTc1NCAyNi41NDIxIDQwLjk2NzUgMjYuMjk1OSA0MC45MDM5IDI1Ljk5NTNDNDAuODAwNSAyNS41MDYyIDQwLjY5MTIgMjQuOTk4MiA0MC41NzY0IDI0LjQ3ODRDNDAuNTEwNiAyNC4xNzk3IDQwLjE1NzggMjQuMDY5NCAzOS43NSAyNC4wNjk0QzM5LjM0MjIgMjQuMDY5NCAzOC45OTM3IDI0LjE4MTEgMzguOTIzNSAyNC40Nzg0QzM4LjgwMDIgMjUuMDAwMSAzOC42ODQ2IDI1LjUxMjYgMzguNTc2NiAyNi4wMDc2QzM4LjUxMTcgMjYuMzA0NiAzOC4zMDYxIDI2LjU0NzcgMzguMDI1MSAyNi42NjM3TDM4LjAxNDUgMjYuNjY4MkMzNy43MzEzIDI2Ljc4NiAzNy40MTE1IDI2Ljc1OTMgMzcuMTU0NSAyNi41OTJDMzYuNzM1NyAyNi4zMTkzIDM2LjI5OTQgMjYuMDM3NSAzNS44NTA4IDI1Ljc1MTFDMzUuNTkzIDI1LjU4NjYgMzUuMjY1NSAyNS43NTgxIDM0Ljk3NzEgMjYuMDQ2NEMzNC42ODg4IDI2LjMzNDggMzQuNTIxMyAyNi42NjAyIDM0LjY4MTkgMjYuOTIwMkMzNC45NjUyIDI3LjM3ODggMzUuMjQ3NCAyNy44MjU1IDM1LjUyMjUgMjguMjU0QzM1LjY4MjggMjguNTAzOSAzNS43MTAxIDI4LjgxMjkgMzUuNTk3MSAyOS4wODc0TDM1LjU4NiAyOS4xMTQ2QzM1LjQ3MjYgMjkuMzk1NCAzNS4yMzA0IDI5LjYwMSAzNC45MzQyIDI5LjY2MzZDMzQuNDQyNSAyOS43Njc1IDMzLjkzMTggMjkuODc3NCAzMy40MDkgMjkuOTkyOEMzMy4xMTA0IDMwLjA1ODggMzMgMzAuNDExNiAzMyAzMC44MTk0QzMzIDMxLjIyNzEgMzMuMTExNyAzMS41NzU3IDMzLjQwOSAzMS42NDU5QzMzLjkzMzggMzEuNzY5OCAzNC40NDkzIDMxLjg4NjIgMzQuOTQ2OSAzMS45OTQ3QzM1LjIzODcgMzIuMDU4MyAzNS40Nzc3IDMyLjI2IDM1LjU5MTEgMzIuNTM2MkwzNS42MDIyIDMyLjU2MzFDMzUuNzE4NCAzMi44NDEgMzUuNjkxOCAzMy4xNTQ5IDM1LjUyNzUgMzMuNDA3MkMzNS4yNTMzIDMzLjgyODQgMzQuOTcgMzQuMjY3MiAzNC42ODE5IDM0LjcxODVDMzQuNTE3MyAzNC45NzYzIDM0LjY4ODggMzUuMzAzOCAzNC45NzcxIDM1LjU5MjNDMzUuMjY1NSAzNS44ODA1IDM1LjU5MDkgMzYuMDQ4IDM1Ljg1MDggMzUuODg3NEMzNi4zMDkzIDM1LjYwNDIgMzYuNzU1OCAzNS4zMjIgMzcuMTg0NCAzNS4wNDdDMzcuNDM1MSAzNC44ODYxIDM3Ljc0NTIgMzQuODYgMzguMDIwNiAzNC45NzM1TDM4LjAzIDM0Ljk3NzRDMzguMzA3NSAzNS4wOTEgMzguNTEwOSAzNS4zMyAzOC41NzQ4IDM1LjYyM0MzOC42ODMzIDM2LjEyMDUgMzguNzk5NiAzNi42MzU3IDM4LjkyMzUgMzcuMTYwMkMzOC45OTM3IDM3LjQ1NzYgMzkuMzQyMiAzNy41Njk0IDM5Ljc1IDM3LjU2OTRDNDAuMTU3OCAzNy41Njk0IDQwLjUxMDYgMzcuNDU5IDQwLjU3NjUgMzcuMTYwM0M0MC42OTIgMzYuNjM3NSA0MC44MDE5IDM2LjEyNjkgNDAuOTA1OCAzNS42MzUyQzQwLjk2ODQgMzUuMzM4OCA0MS4xNzQgMzUuMDk2OCA0MS40NTQ3IDM0Ljk4MzNMNDEuNDgxOSAzNC45NzIzQzQxLjc1NjQgMzQuODU5MyA0Mi4wNjU1IDM0Ljg4NjUgNDIuMzE1MiAzNS4wNDY5QzQyLjc0MzkgMzUuMzIxOSA0My4xOTA1IDM1LjYwNDIgNDMuNjQ5MSAzNS44ODc1QzQzLjkwOSAzNi4wNDgxIDQ0LjIzNDUgMzUuODgwNiA0NC41MjI5IDM1LjU5MjNDNDQuODExMiAzNS4zMDM5IDQ0Ljk4MjcgMzQuOTc2NCA0NC44MTgxIDM0LjcxODZDNDQuNTMwMSAzNC4yNjczIDQ0LjI0NjYgMzMuODI4NCA0My45NzI1IDMzLjQwNzNDNDMuODA4MiAzMy4xNTUgNDMuNzgxNiAzMi44NDEgNDMuODk3NyAzMi41NjMyTDQzLjkwODkgMzIuNTM2MkM0NC4wMjIyIDMyLjI2MDEgNDQuMjYxMyAzMi4wNTg0IDQ0LjU1MzEgMzEuOTk0N0M0NS4wNTA3IDMxLjg4NjIgNDUuNTY2MiAzMS43Njk4IDQ2LjA5MDkgMzEuNjQ1OUM0Ni4zODgzIDMxLjU3NTcgNDYuNSAzMS4yMjcxIDQ2LjUgMzAuODE5NEM0Ni41IDMwLjQxMTYgNDYuMzg5NyAzMC4wNTg4IDQ2LjA5MSAyOS45OTI4Wk0zOS43NSAzMi45ODA4QzM4LjU1NjMgMzIuOTgwOCAzNy41ODg1IDMyLjAxMzEgMzcuNTg4NSAzMC44MTkzQzM3LjU4ODUgMjkuNjI1NiAzOC41NTYzIDI4LjY1NzggMzkuNzUgMjguNjU3OEM0MC45NDM4IDI4LjY1NzggNDEuOTExNSAyOS42MjU1IDQxLjkxMTUgMzAuODE5M0M0MS45MTE1IDMyLjAxMzEgNDAuOTQzOCAzMi45ODA4IDM5Ljc1IDMyLjk4MDhaIiBjbGlwLXJ1bGU9ImV2ZW5vZGQiIGZpbGwtcnVsZT0iZXZlbm9kZCIvPiYjeGE7PC9zdmc+;" parent="atDbLLzjIxGfExJ--USy-71" vertex="1">
          <mxGeometry x="10.440000000000055" y="10" width="30.61" height="30" as="geometry" />
        </mxCell>
        <mxCell id="atDbLLzjIxGfExJ--USy-147" value="" style="group" parent="1" vertex="1" connectable="0">
          <mxGeometry x="390" y="-110" width="176" height="179.75" as="geometry" />
        </mxCell>
        <mxCell id="atDbLLzjIxGfExJ--USy-34" value="" style="whiteSpace=wrap;html=1;aspect=fixed;strokeColor=none;strokeWidth=2;rounded=1;labelPosition=center;verticalLabelPosition=bottom;align=center;verticalAlign=top;sketch=1;curveFitting=1;jiggle=2;fillColor=#8FCAE7;fillStyle=solid;" parent="atDbLLzjIxGfExJ--USy-147" vertex="1">
          <mxGeometry x="96" y="47" width="80" height="80" as="geometry" />
        </mxCell>
        <mxCell id="atDbLLzjIxGfExJ--USy-35" value="" style="group;" parent="atDbLLzjIxGfExJ--USy-147" vertex="1" connectable="0">
          <mxGeometry x="111" y="64" width="50" height="50" as="geometry" />
        </mxCell>
        <mxCell id="atDbLLzjIxGfExJ--USy-36" value="" style="points=[[0.145,0.145,0],[0.5,0,0],[0.855,0.145,0],[1,0.5,0],[0.855,0.855,0],[0.5,1,0],[0.145,0.855,0],[0,0.5,0]];shape=mxgraph.bpmn.event;html=1;verticalLabelPosition=bottom;labelBackgroundColor=none;verticalAlign=top;align=center;perimeter=ellipsePerimeter;outlineConnect=0;aspect=fixed;outline=standard;symbol=general;strokeColor=none;strokeWidth=2;fontFamily=Fira Sans;fontSource=https%3A%2F%2Ffonts.googleapis.com%2Fcss%3Ffamily%3DFira%2BSans;fontSize=14;fillColor=#d52b1e;labelPosition=center;spacingLeft=4;" parent="atDbLLzjIxGfExJ--USy-35" vertex="1">
          <mxGeometry width="50" height="50" as="geometry" />
        </mxCell>
        <mxCell id="atDbLLzjIxGfExJ--USy-37" value="" style="shape=image;verticalLabelPosition=bottom;verticalAlign=top;imageAspect=0;aspect=fixed;image=data:image/svg+xml,PHN2ZyB4bWxucz0iaHR0cDovL3d3dy53My5vcmcvMjAwMC9zdmciIGZpbGw9Im5vbmUiIHZpZXdCb3g9IjcuNSA3LjQyNjUwOTg1NzE3NzczNCA1MCA0OC45OTk5ODg1NTU5MDgyIiBoZWlnaHQ9IjQ4Ljk5OTk4ODU1NTkwODIiIHdpZHRoPSI1MCI+JiN4YTs8cGF0aCBmaWxsPSJ3aGl0ZSIgZD0iTTkuNSA3LjQyNjUxSDU1LjVDNTYuNjA0NSA3LjQyNjUxIDU3LjUgOC4zMjIwMSA1Ny41IDkuNDI2NTFWNDQuNDI2NkM1Ny41IDQ1LjUzMTEgNTYuNjA0NSA0Ni40MjY2IDU1LjUgNDYuNDI2NkgzMC4zMzM4QzMwLjI5NjkgNDYuNTEyNSAzMC4yNTc4IDQ2Ljc0NjkgMzAuNTc4MSA0Ni44MDk0QzM1LjE1MjkgNDcuNzAyIDM5LjU1NTMgNDguMzQxNyAzOS41NTUzIDQ4LjM0MTdDMzkuNzk3MyA0OS4xNTU5IDQwLjExMTkgNTAuMTkzNSA0MC41IDUxLjQyNjVDNDEuMDc3OSA1My4yNjM4IDQyLjg3OTEgNTMuNDE4NSA0My4zNjkxIDUzLjQyNjVINDUuNUM0Ni4wNTI3IDUzLjQyNjUgNDYuNSA1My44NzQzIDQ2LjUgNTQuNDI2NVY1Ni40MjY1SDE4LjVWNTQuNDI2NUMxOC41IDUzLjg3NDMgMTguOTQ3MyA1My40MjY1IDE5LjUgNTMuNDI2NUgyMS42MzA5QzIyLjEyMDkgNTMuNDE4NSAyMy45MjIxIDUzLjI2MzggMjQuNSA1MS40MjY1QzI1LjQ2NTggNDguMzU3NyAyNiA0Ni40MTY1IDI2IDQ2LjQxNjVIOS41QzguMzk1NSA0Ni40MTY1IDcuNSA0NS41MjEgNy41IDQ0LjQxNjVWOS40MjY1MUM3LjUgOC4zMjIwMSA4LjM5NTUgNy40MjY1MSA5LjUgNy40MjY1MVpNMTIuNSAzOS40MjY1SDUyLjVWMTIuNDI2NUgxMi41VjM5LjQyNjVaTTMzLjU0NDMgMjEuMjE5NUMzNC4xNDEyIDIxLjM0NTYgMzQuNzYxNCAyMS40NzkyIDM1LjM5NjIgMjEuNjE5M0MzNS43NTg5IDIxLjY5OTMgMzUuODkyOSAyMi4xMjc4IDM1Ljg5MjkgMjIuNjIyOUMzNS44OTI5IDIzLjExODEgMzUuNzU3MiAyMy41NDEzIDM1LjM5NjEgMjMuNjI2NkMzNC43NTkgMjMuNzc3MSAzNC4xMzI5IDIzLjkxODQgMzMuNTI4NyAyNC4wNTAyQzMzLjE3NDQgMjQuMTI3NSAzMi44ODQxIDI0LjM3MjMgMzIuNzQ2NSAyNC43MDc3TDMyLjczMjkgMjQuNzQwNEMzMi41OTE5IDI1LjA3NzggMzIuNjI0MiAyNS40NTkxIDMyLjgyMzcgMjUuNzY1NUMzMy4xNTY2IDI2LjI3NjcgMzMuNTAwOSAyNi44MDk3IDMzLjg1MDYgMjcuMzU3N0MzNC4wNTA0IDI3LjY3MDggMzMuODQyMiAyOC4wNjg1IDMzLjQ5MjEgMjguNDE4N0MzMy4xNDE5IDI4Ljc2ODcgMzIuNzQ2NyAyOC45NzIxIDMyLjQzMTEgMjguNzc3MUMzMS44NzQyIDI4LjQzMzEgMzEuMzMxOSAyOC4wOTAzIDMwLjgxMTQgMjcuNzU2M0MzMC41MDgxIDI3LjU2MTYgMzAuMTMyOCAyNy41Mjg2IDI5Ljc5OTQgMjcuNjY1OEwyOS43NjY1IDI3LjY3OTJDMjkuNDI1NiAyNy44MTcgMjkuMTc1OSAyOC4xMTA5IDI5LjA5OTggMjguNDcwOEMyOC45NzM3IDI5LjA2NzcgMjguODQwMyAyOS42ODc5IDI4LjcwMDEgMzAuMzIyN0MyOC42MiAzMC42ODUzIDI4LjE5MTYgMzAuODE5NCAyNy42OTY0IDMwLjgxOTRDMjcuMjAxMyAzMC44MTk0IDI2Ljc3OCAzMC42ODM3IDI2LjY5MjggMzAuMzIyNUMyNi41NDI0IDI5LjY4NTcgMjYuNDAxMiAyOS4wNiAyNi4yNjk0IDI4LjQ1NTlDMjYuMTkxOCAyOC4xMDAyIDI1Ljk0NDggMjcuODA5OSAyNS42MDc5IDI3LjY3MTlMMjUuNTk2NCAyNy42NjcyQzI1LjI2MiAyNy41Mjk0IDI0Ljg4NTQgMjcuNTYxMSAyNC41ODEgMjcuNzU2NUMyNC4wNjA2IDI4LjA5MDQgMjMuNTE4NSAyOC40MzMxIDIyLjk2MTcgMjguNzc3QzIyLjY0NjEgMjguOTcyIDIyLjI1MDkgMjguNzY4NiAyMS45MDA4IDI4LjQxODZDMjEuNTUwNiAyOC4wNjg0IDIxLjM0MjUgMjcuNjcwNyAyMS41NDIzIDI3LjM1NzZDMjEuODkyMSAyNi44MDk2IDIyLjIzNjIgMjYuMjc2NyAyMi41NjkxIDI1Ljc2NTRDMjIuNzY4NiAyNS40NTkgMjIuODAwOSAyNS4wNzc3IDIyLjY1OTkgMjQuNzQwM0wyMi42NDY0IDI0LjcwNzZDMjIuNTA4NyAyNC4zNzIzIDIyLjIxODQgMjQuMTI3NCAyMS44NjQxIDI0LjA1MDJDMjEuMjU5OCAyMy45MTg0IDIwLjYzMzkgMjMuNzc3MSAxOS45OTY3IDIzLjYyNjZDMTkuNjM1NyAyMy41NDEzIDE5LjUgMjMuMTE4MSAxOS41IDIyLjYyMjlDMTkuNSAyMi4xMjc4IDE5LjYzNCAyMS42OTkzIDE5Ljk5NjcgMjEuNjE5M0MyMC42MzE1IDIxLjQ3OTEgMjEuMjUxNiAyMS4zNDU2IDIxLjg0ODYgMjEuMjE5NUMyMi4yMDg0IDIxLjE0MzQgMjIuNTAyNSAyMC44OTM4IDIyLjY0MDIgMjAuNTUyOEwyMi42NTM2IDIwLjUxOThDMjIuNzkwOCAyMC4xODY1IDIyLjc1NzcgMTkuODExMyAyMi41NjMxIDE5LjUwNzlDMjIuMjI5IDE4Ljk4NzUgMjEuODg2MyAxOC40NDUxIDIxLjU0MjMgMTcuODg4MkMyMS4zNDczIDE3LjU3MjUgMjEuNTUwNiAxNy4xNzc0IDIxLjkwMDggMTYuODI3MkMyMi4yNTA5IDE2LjQ3NzEgMjIuNjQ4NiAxNi4yNjg5IDIyLjk2MTcgMTYuNDY4N0MyMy41MDY0IDE2LjgxNjQgMjQuMDM2MiAxNy4xNTg1IDI0LjU0NDggMTcuNDg5N0MyNC44NTY4IDE3LjY5MjggMjUuMjQ1MSAxNy43MjUyIDI1LjU4OSAxNy41ODIyTDI1LjYwMTkgMTcuNTc2OEMyNS45NDMyIDE3LjQzNiAyNi4xOTI4IDE3LjE0MDggMjYuMjcxNiAxNi43OEMyNi40MDI3IDE2LjE3OSAyNi41NDMxIDE1LjU1NjcgMjYuNjkyOCAxNC45MjMyQzI2Ljc3OCAxNC41NjIyIDI3LjIwMTMgMTQuNDI2NSAyNy42OTY0IDE0LjQyNjVDMjguMTkxNiAxNC40MjY1IDI4LjYyIDE0LjU2MDUgMjguNyAxNC45MjMyQzI4LjgzOTMgMTUuNTU0NCAyOC45NzIxIDE2LjE3MTMgMjkuMDk3NiAxNi43NjUyQzI5LjE3NDggMTcuMTMwMiAyOS40MjcyIDE3LjQyOTEgMjkuNzcyNiAxNy41Njk4TDI5LjgwNyAxNy41ODM5QzMwLjE0OTYgMTcuNzI2MSAzMC41MzY2IDE3LjY5MjUgMzAuODQ3NSAxNy40OUMzMS4zNTYzIDE3LjE1ODggMzEuODg2MiAxNi44MTY1IDMyLjQzMTIgMTYuNDY4N0MzMi43NDQ0IDE2LjI2ODkgMzMuMTQyIDE2LjQ3NzEgMzMuNDkyMiAxNi44MjcyQzMzLjg0MjMgMTcuMTc3NCAzNC4wNDU3IDE3LjU3MjYgMzMuODUwNyAxNy44ODgyQzMzLjUwNjYgMTguNDQ1MSAzMy4xNjM5IDE4Ljk4NzUgMzIuODI5OSAxOS41MDc5QzMyLjYzNTIgMTkuODExMiAzMi42MDIxIDIwLjE4NjYgMzIuNzM5MyAyMC41MTk4TDMyLjc1MjggMjAuNTUyOEMzMi44OTA2IDIwLjg5MzggMzMuMTg0NSAyMS4xNDM0IDMzLjU0NDMgMjEuMjE5NVpNMjUuMDcxNyAyMi42MjI4QzI1LjA3MTcgMjQuMDcyNSAyNi4yNDY5IDI1LjI0NzUgMjcuNjk2NCAyNS4yNDc1QzI5LjE0NiAyNS4yNDc1IDMwLjMyMTEgMjQuMDcyNSAzMC4zMjExIDIyLjYyMjhDMzAuMzIxMSAyMS4xNzMyIDI5LjE0NiAxOS45OTgyIDI3LjY5NjQgMTkuOTk4MkMyNi4yNDY5IDE5Ljk5ODIgMjUuMDcxNyAyMS4xNzMzIDI1LjA3MTcgMjIuNjIyOFpNNDYuMDkxIDI5Ljk5MjhDNDUuNTY4MiAyOS44Nzc1IDQ1LjA1NzUgMjkuNzY3NSA0NC41NjU5IDI5LjY2MzZDNDQuMjY5NiAyOS42MDEgNDQuMDI3NSAyOS4zOTU0IDQzLjkxNCAyOS4xMTQ2TDQzLjkwMjkgMjkuMDg3NEM0My43OSAyOC44MTI5IDQzLjgxNzIgMjguNTAzOCA0My45Nzc2IDI4LjI1NEM0NC4yNTI2IDI3LjgyNTUgNDQuNTM0OSAyNy4zNzg4IDQ0LjgxODIgMjYuOTIwMkM0NC45Nzg4IDI2LjY2MDMgNDQuODExMyAyNi4zMzQ4IDQ0LjUyMyAyNi4wNDY0QzQ0LjIzNDYgMjUuNzU4MSA0My45MDcxIDI1LjU4NjYgNDMuNjQ5MiAyNS43NTExQzQzLjIwMDQgMjYuMDM3NiA0Mi43NjQgMjYuMzE5NSA0Mi4zNDUgMjYuNTkyMkM0Mi4wODkgMjYuNzU5IDQxLjc3MDIgMjYuNzg2NyA0MS40ODgxIDI2LjY2OTVMNDEuNDU5OCAyNi42NThDNDEuMTc1NCAyNi41NDIxIDQwLjk2NzUgMjYuMjk1OSA0MC45MDM5IDI1Ljk5NTNDNDAuODAwNSAyNS41MDYyIDQwLjY5MTIgMjQuOTk4MiA0MC41NzY0IDI0LjQ3ODRDNDAuNTEwNiAyNC4xNzk3IDQwLjE1NzggMjQuMDY5NCAzOS43NSAyNC4wNjk0QzM5LjM0MjIgMjQuMDY5NCAzOC45OTM3IDI0LjE4MTEgMzguOTIzNSAyNC40Nzg0QzM4LjgwMDIgMjUuMDAwMSAzOC42ODQ2IDI1LjUxMjYgMzguNTc2NiAyNi4wMDc2QzM4LjUxMTcgMjYuMzA0NiAzOC4zMDYxIDI2LjU0NzcgMzguMDI1MSAyNi42NjM3TDM4LjAxNDUgMjYuNjY4MkMzNy43MzEzIDI2Ljc4NiAzNy40MTE1IDI2Ljc1OTMgMzcuMTU0NSAyNi41OTJDMzYuNzM1NyAyNi4zMTkzIDM2LjI5OTQgMjYuMDM3NSAzNS44NTA4IDI1Ljc1MTFDMzUuNTkzIDI1LjU4NjYgMzUuMjY1NSAyNS43NTgxIDM0Ljk3NzEgMjYuMDQ2NEMzNC42ODg4IDI2LjMzNDggMzQuNTIxMyAyNi42NjAyIDM0LjY4MTkgMjYuOTIwMkMzNC45NjUyIDI3LjM3ODggMzUuMjQ3NCAyNy44MjU1IDM1LjUyMjUgMjguMjU0QzM1LjY4MjggMjguNTAzOSAzNS43MTAxIDI4LjgxMjkgMzUuNTk3MSAyOS4wODc0TDM1LjU4NiAyOS4xMTQ2QzM1LjQ3MjYgMjkuMzk1NCAzNS4yMzA0IDI5LjYwMSAzNC45MzQyIDI5LjY2MzZDMzQuNDQyNSAyOS43Njc1IDMzLjkzMTggMjkuODc3NCAzMy40MDkgMjkuOTkyOEMzMy4xMTA0IDMwLjA1ODggMzMgMzAuNDExNiAzMyAzMC44MTk0QzMzIDMxLjIyNzEgMzMuMTExNyAzMS41NzU3IDMzLjQwOSAzMS42NDU5QzMzLjkzMzggMzEuNzY5OCAzNC40NDkzIDMxLjg4NjIgMzQuOTQ2OSAzMS45OTQ3QzM1LjIzODcgMzIuMDU4MyAzNS40Nzc3IDMyLjI2IDM1LjU5MTEgMzIuNTM2MkwzNS42MDIyIDMyLjU2MzFDMzUuNzE4NCAzMi44NDEgMzUuNjkxOCAzMy4xNTQ5IDM1LjUyNzUgMzMuNDA3MkMzNS4yNTMzIDMzLjgyODQgMzQuOTcgMzQuMjY3MiAzNC42ODE5IDM0LjcxODVDMzQuNTE3MyAzNC45NzYzIDM0LjY4ODggMzUuMzAzOCAzNC45NzcxIDM1LjU5MjNDMzUuMjY1NSAzNS44ODA1IDM1LjU5MDkgMzYuMDQ4IDM1Ljg1MDggMzUuODg3NEMzNi4zMDkzIDM1LjYwNDIgMzYuNzU1OCAzNS4zMjIgMzcuMTg0NCAzNS4wNDdDMzcuNDM1MSAzNC44ODYxIDM3Ljc0NTIgMzQuODYgMzguMDIwNiAzNC45NzM1TDM4LjAzIDM0Ljk3NzRDMzguMzA3NSAzNS4wOTEgMzguNTEwOSAzNS4zMyAzOC41NzQ4IDM1LjYyM0MzOC42ODMzIDM2LjEyMDUgMzguNzk5NiAzNi42MzU3IDM4LjkyMzUgMzcuMTYwMkMzOC45OTM3IDM3LjQ1NzYgMzkuMzQyMiAzNy41Njk0IDM5Ljc1IDM3LjU2OTRDNDAuMTU3OCAzNy41Njk0IDQwLjUxMDYgMzcuNDU5IDQwLjU3NjUgMzcuMTYwM0M0MC42OTIgMzYuNjM3NSA0MC44MDE5IDM2LjEyNjkgNDAuOTA1OCAzNS42MzUyQzQwLjk2ODQgMzUuMzM4OCA0MS4xNzQgMzUuMDk2OCA0MS40NTQ3IDM0Ljk4MzNMNDEuNDgxOSAzNC45NzIzQzQxLjc1NjQgMzQuODU5MyA0Mi4wNjU1IDM0Ljg4NjUgNDIuMzE1MiAzNS4wNDY5QzQyLjc0MzkgMzUuMzIxOSA0My4xOTA1IDM1LjYwNDIgNDMuNjQ5MSAzNS44ODc1QzQzLjkwOSAzNi4wNDgxIDQ0LjIzNDUgMzUuODgwNiA0NC41MjI5IDM1LjU5MjNDNDQuODExMiAzNS4zMDM5IDQ0Ljk4MjcgMzQuOTc2NCA0NC44MTgxIDM0LjcxODZDNDQuNTMwMSAzNC4yNjczIDQ0LjI0NjYgMzMuODI4NCA0My45NzI1IDMzLjQwNzNDNDMuODA4MiAzMy4xNTUgNDMuNzgxNiAzMi44NDEgNDMuODk3NyAzMi41NjMyTDQzLjkwODkgMzIuNTM2MkM0NC4wMjIyIDMyLjI2MDEgNDQuMjYxMyAzMi4wNTg0IDQ0LjU1MzEgMzEuOTk0N0M0NS4wNTA3IDMxLjg4NjIgNDUuNTY2MiAzMS43Njk4IDQ2LjA5MDkgMzEuNjQ1OUM0Ni4zODgzIDMxLjU3NTcgNDYuNSAzMS4yMjcxIDQ2LjUgMzAuODE5NEM0Ni41IDMwLjQxMTYgNDYuMzg5NyAzMC4wNTg4IDQ2LjA5MSAyOS45OTI4Wk0zOS43NSAzMi45ODA4QzM4LjU1NjMgMzIuOTgwOCAzNy41ODg1IDMyLjAxMzEgMzcuNTg4NSAzMC44MTkzQzM3LjU4ODUgMjkuNjI1NiAzOC41NTYzIDI4LjY1NzggMzkuNzUgMjguNjU3OEM0MC45NDM4IDI4LjY1NzggNDEuOTExNSAyOS42MjU1IDQxLjkxMTUgMzAuODE5M0M0MS45MTE1IDMyLjAxMzEgNDAuOTQzOCAzMi45ODA4IDM5Ljc1IDMyLjk4MDhaIiBjbGlwLXJ1bGU9ImV2ZW5vZGQiIGZpbGwtcnVsZT0iZXZlbm9kZCIvPiYjeGE7PC9zdmc+;" parent="atDbLLzjIxGfExJ--USy-35" vertex="1">
          <mxGeometry x="10" y="9.57" width="31.05" height="30.43" as="geometry" />
        </mxCell>
        <mxCell id="atDbLLzjIxGfExJ--USy-38" value="" style="group" parent="atDbLLzjIxGfExJ--USy-147" vertex="1" connectable="0">
          <mxGeometry x="152" y="50" width="22" height="22" as="geometry" />
        </mxCell>
        <mxCell id="atDbLLzjIxGfExJ--USy-39" value="" style="shape=image;verticalLabelPosition=bottom;verticalAlign=top;imageAspect=0;aspect=fixed;image=data:image/svg+xml,PHN2ZyB4bWxucz0iaHR0cDovL3d3dy53My5vcmcvMjAwMC9zdmciIGZpbGw9Im5vbmUiIHZpZXdCb3g9IjYuMDE4Nzk3Mzk3NjEzNTI1IDUuMDAwNDkwMTg4NTk4NjMzIDUwLjk4MzUwMTQzNDMyNjE3IDUzLjg5OTUxMzI0NDYyODkwNiIgaGVpZ2h0PSI1My44OTk1MTMyNDQ2Mjg5MDYiIHdpZHRoPSI1MC45ODM1MDE0MzQzMjYxNyI+JiN4YTs8cGF0aCBmaWxsPSJ3aGl0ZSIgZD0iTTI5LjUzNTkgNTBDMjkuMTg5OCA1MC42NzkgMjguNzk0OCA1MS40MDg4IDI4LjM0MjEgNTIuMTM5N0MyNS45NjIxIDU1Ljk4MjQgMjIuNjU0NCA1Ni44NDAzIDIwLjQwNjMgNTYuMDQ2OUMxOS45MDM0IDU1Ljg2OTQgMjAuMDk4MiA1NS41NjY0IDIwLjA5ODIgNTUuNTY2NEMyMy4xNDgxIDU1LjU2NjQgMjUuMjczNiA1My4xMDQ5IDI3LjAyMzkgNTBDMjcuMzg3MiA0OS4zNTU2IDI3LjczNCA0OC42ODM4IDI4LjA2OTcgNDhINDQuODgzNUM0NC43MDQ0IDQ2Ljc5MyA0NC42MzU1IDQ1LjI2NzggNDQuNjY3MSA0My40Njc0QzQ1LjAxMzUgMzYuMTc5MyA0Ni44ODgyIDI0LjAwNjMgNDguMDg4NyAxOC4wMDI3QzQ4LjQyMSAxNi4zNDExIDQ4LjYxODIgMTMuNzc1OCA0OC4zNTA0IDEyLjA1ODVDNDguMDM0MSAxMC4wMzAxIDQ3LjE5OTYgOC42MzM0OSA0Ni40MTA3IDcuNjcxMzlDNDUuMDE5NiA1Ljk3NDA5IDQzLjAwNTkgNS4wMDA0OSA0MC44ODY4IDUuMDAwNDlIMTQuMDc1OUM5LjE2NjA2IDUuMDAwNDkgNi4zMzkyNiA4LjIyNjk5IDYuMDQ3NzYgMTEuODY0OUM1LjYzMzA2IDE3LjAzMjkgOS43MzczNiAyMC4zMTYxIDE0LjE0OTEgMjEuMDE1OEMxNC40NTk4IDE5LjMxNTcgMTQuNzI0NyAxNy45NDYyIDE0Ljg5NDUgMTcuMDg4N0MxMi45OTM3IDE2LjgwODggOS43NzA2NiAxNS40OCAxMC4wMzUxIDEyLjE4NTJDMTAuMTgyNCAxMC4zNDQgMTEuNzQxMiA4LjkwMjc5IDEzLjU4MzkgOC45MDA0OUgxMy41OTJDMTQuNTIwMiA4LjkwMTU5IDE1LjM4MjIgOS4zMjk3OSAxNi4wMTkgMTAuMTA3MUMxNy4yMTcyIDExLjU2OCAxNy41NCAxNC4wNTczIDE2LjkyODIgMTcuMTE2OUMxNS41NiAyMy45NTc3IDEyLjcyNzEgNDAuMjc4IDEzLjA5MzggNDcuMDA5NUMxMy4yNDYgNDkuNzk4NCAxNC4zMzU0IDU4LjkgMjEuOTY1OCA1OC45SDQ2QzUxLjkzODggNTguOSA1NS4zMzgzIDUzLjY5NjkgNTcuMDAyMyA1MEgyOS41MzU5Wk0yNC45MDM2IDI2LjM3NTNDMjQuMTAzNiAyNi4zNzUzIDIzLjQwMzYgMjcuMDc1MyAyMy40MDM2IDI3Ljg3NTNDMjMuNDAzNiAyOC42NzUzIDI0LjEwMzYgMjkuMzc1MyAyNC45MDM2IDI5LjM3NTNDMjUuNzAzNiAyOS4zNzUzIDI2LjQwMzYgMjguNjc1MyAyNi40MDM2IDI3Ljg3NTNDMjYuNDAzNiAyNy4wNzUzIDI1LjgwMzYgMjYuMzc1MyAyNC45MDM2IDI2LjM3NTNaTTI0LjQxNTEgMjAuOTc1M0MyNC40MTUxIDIwLjE3NTMgMjUuMTE1MSAxOS40NzUzIDI1LjkxNTEgMTkuNDc1M0MyNi44MTUxIDE5LjQ3NTMgMjcuNDE1MSAyMC4xNzUzIDI3LjQxNTEgMjAuOTc1M0MyNy40MTUxIDIxLjc3NTMgMjYuNzE1MSAyMi40NzUzIDI1LjkxNTEgMjIuNDc1M0MyNS4xMTUxIDIyLjQ3NTMgMjQuNDE1MSAyMS43NzUzIDI0LjQxNTEgMjAuOTc1M1pNMjQuMDAzNyAzMy4zNzUzQzIzLjIwMzcgMzMuMzc1MyAyMi41MDM3IDM0LjA3NTMgMjIuNTAzNyAzNC44NzUzQzIyLjUwMzcgMzUuNjc1MyAyMy4yMDM3IDM2LjM3NTMgMjQuMDAzNyAzNi4zNzUzQzI0LjgwMzcgMzYuMzc1MyAyNS41MDM3IDM1LjY3NTMgMjUuNTAzNyAzNC44NzUzQzI1LjUwMzcgMzMuOTc1MyAyNC45MDM3IDMzLjM3NTMgMjQuMDAzNyAzMy4zNzUzWk0yMS45MDM2IDQxLjg3NTNDMjEuOTAzNiA0MS4wNzUzIDIyLjYwMzYgNDAuMzc1MyAyMy40MDM2IDQwLjM3NTNDMjQuMjAzNiA0MC4zNzUzIDI0LjkwMzYgNDEuMDc1MyAyNC45MDM2IDQxLjg3NTNDMjQuOTAzNiA0Mi42NzUzIDI0LjIwMzYgNDMuMzc1MyAyMy40MDM2IDQzLjM3NTNDMjIuNjAzNiA0My4zNzUzIDIxLjkwMzYgNDIuNjc1MyAyMS45MDM2IDQxLjg3NTNaTTI4LjEwMzcgMjkuNDc1M0g0Mi4wMDM3QzQyLjA1MzcgMjguOTc1MyA0Mi4xMjg3IDI4LjQ3NTMgNDIuMjAzNyAyNy45NzUzQzQyLjI3ODcgMjcuNDc1MyA0Mi4zNTM3IDI2Ljk3NTMgNDIuNDAzNyAyNi40NzUzSDI4LjUwMzdDMjguMzAzNyAyNy40NzUzIDI4LjIwMzcgMjguNDc1MyAyOC4xMDM3IDI5LjQ3NTNaTTQzLjE2NjMgMjIuNTc1M0gyOS4xMTMxQzI5LjIwNTMgMjEuNjUzMyAyOS4zOTA0IDIwLjczMTMgMjkuNTc1NCAxOS44MDkzTDI5LjYyMjMgMTkuNTc1M0g0My41OTA3QzQzLjU0MDcgMjAuMDc1MyA0My40NTk2IDIwLjU3NTMgNDMuMzc4NSAyMS4wNzUzQzQzLjI5NzQgMjEuNTc1MyA0My4yMTYzIDIyLjA3NTMgNDMuMTY2MyAyMi41NzUzWk0yNy4yMDM3IDM2LjQ3NTNINDEuMTAzN0w0MS40MDM3IDMzLjQ3NTNIMjcuNjAzN0MyNy40MDM3IDM0LjQ3NTMgMjcuMzAzNyAzNS40NzUzIDI3LjIwMzcgMzYuNDc1M1pNNDAuNjAzNyA0My40NzUzSDI2LjcwMzdDMjYuNzAzNyA0My4wNDc5IDI2LjcyNjIgNDIuNTk3OSAyNi43NDk5IDQyLjEyNTNDMjYuNzc2MSA0MS42MDI5IDI2LjgwMzcgNDEuMDUyOSAyNi44MDM3IDQwLjQ3NTNINDAuODAzN0M0MC43OTQ1IDQwLjU3NjIgNDAuNzg1MyA0MC42NzYyIDQwLjc3NjIgNDAuNzc1NEM0MC42ODYyIDQxLjc1NzkgNDAuNjAzNyA0Mi42NTc5IDQwLjYwMzcgNDMuNDc1M1oiIGNsaXAtcnVsZT0iZXZlbm9kZCIgZmlsbC1ydWxlPSJldmVub2RkIi8+JiN4YTs8L3N2Zz4=;" parent="atDbLLzjIxGfExJ--USy-38" vertex="1">
          <mxGeometry x="3.9200000000000728" y="2.5" width="14.165999999999999" height="15" as="geometry" />
        </mxCell>
        <mxCell id="atDbLLzjIxGfExJ--USy-40" value="" style="group" parent="atDbLLzjIxGfExJ--USy-147" vertex="1" connectable="0">
          <mxGeometry y="99" width="87" height="80.75" as="geometry" />
        </mxCell>
        <mxCell id="atDbLLzjIxGfExJ--USy-41" value="" style="whiteSpace=wrap;html=1;aspect=fixed;strokeColor=none;strokeWidth=2;rounded=1;labelPosition=center;verticalLabelPosition=bottom;align=center;verticalAlign=top;sketch=1;curveFitting=1;jiggle=2;fillColor=#e17000;fillStyle=solid;rotation=-90;" parent="atDbLLzjIxGfExJ--USy-40" vertex="1">
          <mxGeometry y="0.75" width="80" height="80" as="geometry" />
        </mxCell>
        <mxCell id="atDbLLzjIxGfExJ--USy-42" value="" style="group;" parent="atDbLLzjIxGfExJ--USy-40" vertex="1" connectable="0">
          <mxGeometry x="15" y="17.75" width="50" height="50" as="geometry" />
        </mxCell>
        <mxCell id="atDbLLzjIxGfExJ--USy-43" value="" style="points=[[0.145,0.145,0],[0.5,0,0],[0.855,0.145,0],[1,0.5,0],[0.855,0.855,0],[0.5,1,0],[0.145,0.855,0],[0,0.5,0]];shape=mxgraph.bpmn.event;html=1;verticalLabelPosition=bottom;labelBackgroundColor=none;verticalAlign=top;align=center;perimeter=ellipsePerimeter;outlineConnect=0;aspect=fixed;outline=standard;symbol=general;strokeColor=none;strokeWidth=2;fontFamily=Fira Sans;fontSource=https%3A%2F%2Ffonts.googleapis.com%2Fcss%3Ffamily%3DFira%2BSans;fontSize=14;fillColor=#d52b1e;labelPosition=center;spacingLeft=4;" parent="atDbLLzjIxGfExJ--USy-42" vertex="1">
          <mxGeometry width="50" height="50" as="geometry" />
        </mxCell>
        <mxCell id="atDbLLzjIxGfExJ--USy-44" value="" style="shape=image;verticalLabelPosition=bottom;verticalAlign=top;imageAspect=0;aspect=fixed;image=data:image/svg+xml,PHN2ZyB4bWxucz0iaHR0cDovL3d3dy53My5vcmcvMjAwMC9zdmciIGZpbGw9Im5vbmUiIHZpZXdCb3g9IjcuNSA3LjQyNjUwOTg1NzE3NzczNCA1MCA0OC45OTk5ODg1NTU5MDgyIiBoZWlnaHQ9IjQ4Ljk5OTk4ODU1NTkwODIiIHdpZHRoPSI1MCI+JiN4YTs8cGF0aCBmaWxsPSJ3aGl0ZSIgZD0iTTkuNSA3LjQyNjUxSDU1LjVDNTYuNjA0NSA3LjQyNjUxIDU3LjUgOC4zMjIwMSA1Ny41IDkuNDI2NTFWNDQuNDI2NkM1Ny41IDQ1LjUzMTEgNTYuNjA0NSA0Ni40MjY2IDU1LjUgNDYuNDI2NkgzMC4zMzM4QzMwLjI5NjkgNDYuNTEyNSAzMC4yNTc4IDQ2Ljc0NjkgMzAuNTc4MSA0Ni44MDk0QzM1LjE1MjkgNDcuNzAyIDM5LjU1NTMgNDguMzQxNyAzOS41NTUzIDQ4LjM0MTdDMzkuNzk3MyA0OS4xNTU5IDQwLjExMTkgNTAuMTkzNSA0MC41IDUxLjQyNjVDNDEuMDc3OSA1My4yNjM4IDQyLjg3OTEgNTMuNDE4NSA0My4zNjkxIDUzLjQyNjVINDUuNUM0Ni4wNTI3IDUzLjQyNjUgNDYuNSA1My44NzQzIDQ2LjUgNTQuNDI2NVY1Ni40MjY1SDE4LjVWNTQuNDI2NUMxOC41IDUzLjg3NDMgMTguOTQ3MyA1My40MjY1IDE5LjUgNTMuNDI2NUgyMS42MzA5QzIyLjEyMDkgNTMuNDE4NSAyMy45MjIxIDUzLjI2MzggMjQuNSA1MS40MjY1QzI1LjQ2NTggNDguMzU3NyAyNiA0Ni40MTY1IDI2IDQ2LjQxNjVIOS41QzguMzk1NSA0Ni40MTY1IDcuNSA0NS41MjEgNy41IDQ0LjQxNjVWOS40MjY1MUM3LjUgOC4zMjIwMSA4LjM5NTUgNy40MjY1MSA5LjUgNy40MjY1MVpNMTIuNSAzOS40MjY1SDUyLjVWMTIuNDI2NUgxMi41VjM5LjQyNjVaTTMzLjU0NDMgMjEuMjE5NUMzNC4xNDEyIDIxLjM0NTYgMzQuNzYxNCAyMS40NzkyIDM1LjM5NjIgMjEuNjE5M0MzNS43NTg5IDIxLjY5OTMgMzUuODkyOSAyMi4xMjc4IDM1Ljg5MjkgMjIuNjIyOUMzNS44OTI5IDIzLjExODEgMzUuNzU3MiAyMy41NDEzIDM1LjM5NjEgMjMuNjI2NkMzNC43NTkgMjMuNzc3MSAzNC4xMzI5IDIzLjkxODQgMzMuNTI4NyAyNC4wNTAyQzMzLjE3NDQgMjQuMTI3NSAzMi44ODQxIDI0LjM3MjMgMzIuNzQ2NSAyNC43MDc3TDMyLjczMjkgMjQuNzQwNEMzMi41OTE5IDI1LjA3NzggMzIuNjI0MiAyNS40NTkxIDMyLjgyMzcgMjUuNzY1NUMzMy4xNTY2IDI2LjI3NjcgMzMuNTAwOSAyNi44MDk3IDMzLjg1MDYgMjcuMzU3N0MzNC4wNTA0IDI3LjY3MDggMzMuODQyMiAyOC4wNjg1IDMzLjQ5MjEgMjguNDE4N0MzMy4xNDE5IDI4Ljc2ODcgMzIuNzQ2NyAyOC45NzIxIDMyLjQzMTEgMjguNzc3MUMzMS44NzQyIDI4LjQzMzEgMzEuMzMxOSAyOC4wOTAzIDMwLjgxMTQgMjcuNzU2M0MzMC41MDgxIDI3LjU2MTYgMzAuMTMyOCAyNy41Mjg2IDI5Ljc5OTQgMjcuNjY1OEwyOS43NjY1IDI3LjY3OTJDMjkuNDI1NiAyNy44MTcgMjkuMTc1OSAyOC4xMTA5IDI5LjA5OTggMjguNDcwOEMyOC45NzM3IDI5LjA2NzcgMjguODQwMyAyOS42ODc5IDI4LjcwMDEgMzAuMzIyN0MyOC42MiAzMC42ODUzIDI4LjE5MTYgMzAuODE5NCAyNy42OTY0IDMwLjgxOTRDMjcuMjAxMyAzMC44MTk0IDI2Ljc3OCAzMC42ODM3IDI2LjY5MjggMzAuMzIyNUMyNi41NDI0IDI5LjY4NTcgMjYuNDAxMiAyOS4wNiAyNi4yNjk0IDI4LjQ1NTlDMjYuMTkxOCAyOC4xMDAyIDI1Ljk0NDggMjcuODA5OSAyNS42MDc5IDI3LjY3MTlMMjUuNTk2NCAyNy42NjcyQzI1LjI2MiAyNy41Mjk0IDI0Ljg4NTQgMjcuNTYxMSAyNC41ODEgMjcuNzU2NUMyNC4wNjA2IDI4LjA5MDQgMjMuNTE4NSAyOC40MzMxIDIyLjk2MTcgMjguNzc3QzIyLjY0NjEgMjguOTcyIDIyLjI1MDkgMjguNzY4NiAyMS45MDA4IDI4LjQxODZDMjEuNTUwNiAyOC4wNjg0IDIxLjM0MjUgMjcuNjcwNyAyMS41NDIzIDI3LjM1NzZDMjEuODkyMSAyNi44MDk2IDIyLjIzNjIgMjYuMjc2NyAyMi41NjkxIDI1Ljc2NTRDMjIuNzY4NiAyNS40NTkgMjIuODAwOSAyNS4wNzc3IDIyLjY1OTkgMjQuNzQwM0wyMi42NDY0IDI0LjcwNzZDMjIuNTA4NyAyNC4zNzIzIDIyLjIxODQgMjQuMTI3NCAyMS44NjQxIDI0LjA1MDJDMjEuMjU5OCAyMy45MTg0IDIwLjYzMzkgMjMuNzc3MSAxOS45OTY3IDIzLjYyNjZDMTkuNjM1NyAyMy41NDEzIDE5LjUgMjMuMTE4MSAxOS41IDIyLjYyMjlDMTkuNSAyMi4xMjc4IDE5LjYzNCAyMS42OTkzIDE5Ljk5NjcgMjEuNjE5M0MyMC42MzE1IDIxLjQ3OTEgMjEuMjUxNiAyMS4zNDU2IDIxLjg0ODYgMjEuMjE5NUMyMi4yMDg0IDIxLjE0MzQgMjIuNTAyNSAyMC44OTM4IDIyLjY0MDIgMjAuNTUyOEwyMi42NTM2IDIwLjUxOThDMjIuNzkwOCAyMC4xODY1IDIyLjc1NzcgMTkuODExMyAyMi41NjMxIDE5LjUwNzlDMjIuMjI5IDE4Ljk4NzUgMjEuODg2MyAxOC40NDUxIDIxLjU0MjMgMTcuODg4MkMyMS4zNDczIDE3LjU3MjUgMjEuNTUwNiAxNy4xNzc0IDIxLjkwMDggMTYuODI3MkMyMi4yNTA5IDE2LjQ3NzEgMjIuNjQ4NiAxNi4yNjg5IDIyLjk2MTcgMTYuNDY4N0MyMy41MDY0IDE2LjgxNjQgMjQuMDM2MiAxNy4xNTg1IDI0LjU0NDggMTcuNDg5N0MyNC44NTY4IDE3LjY5MjggMjUuMjQ1MSAxNy43MjUyIDI1LjU4OSAxNy41ODIyTDI1LjYwMTkgMTcuNTc2OEMyNS45NDMyIDE3LjQzNiAyNi4xOTI4IDE3LjE0MDggMjYuMjcxNiAxNi43OEMyNi40MDI3IDE2LjE3OSAyNi41NDMxIDE1LjU1NjcgMjYuNjkyOCAxNC45MjMyQzI2Ljc3OCAxNC41NjIyIDI3LjIwMTMgMTQuNDI2NSAyNy42OTY0IDE0LjQyNjVDMjguMTkxNiAxNC40MjY1IDI4LjYyIDE0LjU2MDUgMjguNyAxNC45MjMyQzI4LjgzOTMgMTUuNTU0NCAyOC45NzIxIDE2LjE3MTMgMjkuMDk3NiAxNi43NjUyQzI5LjE3NDggMTcuMTMwMiAyOS40MjcyIDE3LjQyOTEgMjkuNzcyNiAxNy41Njk4TDI5LjgwNyAxNy41ODM5QzMwLjE0OTYgMTcuNzI2MSAzMC41MzY2IDE3LjY5MjUgMzAuODQ3NSAxNy40OUMzMS4zNTYzIDE3LjE1ODggMzEuODg2MiAxNi44MTY1IDMyLjQzMTIgMTYuNDY4N0MzMi43NDQ0IDE2LjI2ODkgMzMuMTQyIDE2LjQ3NzEgMzMuNDkyMiAxNi44MjcyQzMzLjg0MjMgMTcuMTc3NCAzNC4wNDU3IDE3LjU3MjYgMzMuODUwNyAxNy44ODgyQzMzLjUwNjYgMTguNDQ1MSAzMy4xNjM5IDE4Ljk4NzUgMzIuODI5OSAxOS41MDc5QzMyLjYzNTIgMTkuODExMiAzMi42MDIxIDIwLjE4NjYgMzIuNzM5MyAyMC41MTk4TDMyLjc1MjggMjAuNTUyOEMzMi44OTA2IDIwLjg5MzggMzMuMTg0NSAyMS4xNDM0IDMzLjU0NDMgMjEuMjE5NVpNMjUuMDcxNyAyMi42MjI4QzI1LjA3MTcgMjQuMDcyNSAyNi4yNDY5IDI1LjI0NzUgMjcuNjk2NCAyNS4yNDc1QzI5LjE0NiAyNS4yNDc1IDMwLjMyMTEgMjQuMDcyNSAzMC4zMjExIDIyLjYyMjhDMzAuMzIxMSAyMS4xNzMyIDI5LjE0NiAxOS45OTgyIDI3LjY5NjQgMTkuOTk4MkMyNi4yNDY5IDE5Ljk5ODIgMjUuMDcxNyAyMS4xNzMzIDI1LjA3MTcgMjIuNjIyOFpNNDYuMDkxIDI5Ljk5MjhDNDUuNTY4MiAyOS44Nzc1IDQ1LjA1NzUgMjkuNzY3NSA0NC41NjU5IDI5LjY2MzZDNDQuMjY5NiAyOS42MDEgNDQuMDI3NSAyOS4zOTU0IDQzLjkxNCAyOS4xMTQ2TDQzLjkwMjkgMjkuMDg3NEM0My43OSAyOC44MTI5IDQzLjgxNzIgMjguNTAzOCA0My45Nzc2IDI4LjI1NEM0NC4yNTI2IDI3LjgyNTUgNDQuNTM0OSAyNy4zNzg4IDQ0LjgxODIgMjYuOTIwMkM0NC45Nzg4IDI2LjY2MDMgNDQuODExMyAyNi4zMzQ4IDQ0LjUyMyAyNi4wNDY0QzQ0LjIzNDYgMjUuNzU4MSA0My45MDcxIDI1LjU4NjYgNDMuNjQ5MiAyNS43NTExQzQzLjIwMDQgMjYuMDM3NiA0Mi43NjQgMjYuMzE5NSA0Mi4zNDUgMjYuNTkyMkM0Mi4wODkgMjYuNzU5IDQxLjc3MDIgMjYuNzg2NyA0MS40ODgxIDI2LjY2OTVMNDEuNDU5OCAyNi42NThDNDEuMTc1NCAyNi41NDIxIDQwLjk2NzUgMjYuMjk1OSA0MC45MDM5IDI1Ljk5NTNDNDAuODAwNSAyNS41MDYyIDQwLjY5MTIgMjQuOTk4MiA0MC41NzY0IDI0LjQ3ODRDNDAuNTEwNiAyNC4xNzk3IDQwLjE1NzggMjQuMDY5NCAzOS43NSAyNC4wNjk0QzM5LjM0MjIgMjQuMDY5NCAzOC45OTM3IDI0LjE4MTEgMzguOTIzNSAyNC40Nzg0QzM4LjgwMDIgMjUuMDAwMSAzOC42ODQ2IDI1LjUxMjYgMzguNTc2NiAyNi4wMDc2QzM4LjUxMTcgMjYuMzA0NiAzOC4zMDYxIDI2LjU0NzcgMzguMDI1MSAyNi42NjM3TDM4LjAxNDUgMjYuNjY4MkMzNy43MzEzIDI2Ljc4NiAzNy40MTE1IDI2Ljc1OTMgMzcuMTU0NSAyNi41OTJDMzYuNzM1NyAyNi4zMTkzIDM2LjI5OTQgMjYuMDM3NSAzNS44NTA4IDI1Ljc1MTFDMzUuNTkzIDI1LjU4NjYgMzUuMjY1NSAyNS43NTgxIDM0Ljk3NzEgMjYuMDQ2NEMzNC42ODg4IDI2LjMzNDggMzQuNTIxMyAyNi42NjAyIDM0LjY4MTkgMjYuOTIwMkMzNC45NjUyIDI3LjM3ODggMzUuMjQ3NCAyNy44MjU1IDM1LjUyMjUgMjguMjU0QzM1LjY4MjggMjguNTAzOSAzNS43MTAxIDI4LjgxMjkgMzUuNTk3MSAyOS4wODc0TDM1LjU4NiAyOS4xMTQ2QzM1LjQ3MjYgMjkuMzk1NCAzNS4yMzA0IDI5LjYwMSAzNC45MzQyIDI5LjY2MzZDMzQuNDQyNSAyOS43Njc1IDMzLjkzMTggMjkuODc3NCAzMy40MDkgMjkuOTkyOEMzMy4xMTA0IDMwLjA1ODggMzMgMzAuNDExNiAzMyAzMC44MTk0QzMzIDMxLjIyNzEgMzMuMTExNyAzMS41NzU3IDMzLjQwOSAzMS42NDU5QzMzLjkzMzggMzEuNzY5OCAzNC40NDkzIDMxLjg4NjIgMzQuOTQ2OSAzMS45OTQ3QzM1LjIzODcgMzIuMDU4MyAzNS40Nzc3IDMyLjI2IDM1LjU5MTEgMzIuNTM2MkwzNS42MDIyIDMyLjU2MzFDMzUuNzE4NCAzMi44NDEgMzUuNjkxOCAzMy4xNTQ5IDM1LjUyNzUgMzMuNDA3MkMzNS4yNTMzIDMzLjgyODQgMzQuOTcgMzQuMjY3MiAzNC42ODE5IDM0LjcxODVDMzQuNTE3MyAzNC45NzYzIDM0LjY4ODggMzUuMzAzOCAzNC45NzcxIDM1LjU5MjNDMzUuMjY1NSAzNS44ODA1IDM1LjU5MDkgMzYuMDQ4IDM1Ljg1MDggMzUuODg3NEMzNi4zMDkzIDM1LjYwNDIgMzYuNzU1OCAzNS4zMjIgMzcuMTg0NCAzNS4wNDdDMzcuNDM1MSAzNC44ODYxIDM3Ljc0NTIgMzQuODYgMzguMDIwNiAzNC45NzM1TDM4LjAzIDM0Ljk3NzRDMzguMzA3NSAzNS4wOTEgMzguNTEwOSAzNS4zMyAzOC41NzQ4IDM1LjYyM0MzOC42ODMzIDM2LjEyMDUgMzguNzk5NiAzNi42MzU3IDM4LjkyMzUgMzcuMTYwMkMzOC45OTM3IDM3LjQ1NzYgMzkuMzQyMiAzNy41Njk0IDM5Ljc1IDM3LjU2OTRDNDAuMTU3OCAzNy41Njk0IDQwLjUxMDYgMzcuNDU5IDQwLjU3NjUgMzcuMTYwM0M0MC42OTIgMzYuNjM3NSA0MC44MDE5IDM2LjEyNjkgNDAuOTA1OCAzNS42MzUyQzQwLjk2ODQgMzUuMzM4OCA0MS4xNzQgMzUuMDk2OCA0MS40NTQ3IDM0Ljk4MzNMNDEuNDgxOSAzNC45NzIzQzQxLjc1NjQgMzQuODU5MyA0Mi4wNjU1IDM0Ljg4NjUgNDIuMzE1MiAzNS4wNDY5QzQyLjc0MzkgMzUuMzIxOSA0My4xOTA1IDM1LjYwNDIgNDMuNjQ5MSAzNS44ODc1QzQzLjkwOSAzNi4wNDgxIDQ0LjIzNDUgMzUuODgwNiA0NC41MjI5IDM1LjU5MjNDNDQuODExMiAzNS4zMDM5IDQ0Ljk4MjcgMzQuOTc2NCA0NC44MTgxIDM0LjcxODZDNDQuNTMwMSAzNC4yNjczIDQ0LjI0NjYgMzMuODI4NCA0My45NzI1IDMzLjQwNzNDNDMuODA4MiAzMy4xNTUgNDMuNzgxNiAzMi44NDEgNDMuODk3NyAzMi41NjMyTDQzLjkwODkgMzIuNTM2MkM0NC4wMjIyIDMyLjI2MDEgNDQuMjYxMyAzMi4wNTg0IDQ0LjU1MzEgMzEuOTk0N0M0NS4wNTA3IDMxLjg4NjIgNDUuNTY2MiAzMS43Njk4IDQ2LjA5MDkgMzEuNjQ1OUM0Ni4zODgzIDMxLjU3NTcgNDYuNSAzMS4yMjcxIDQ2LjUgMzAuODE5NEM0Ni41IDMwLjQxMTYgNDYuMzg5NyAzMC4wNTg4IDQ2LjA5MSAyOS45OTI4Wk0zOS43NSAzMi45ODA4QzM4LjU1NjMgMzIuOTgwOCAzNy41ODg1IDMyLjAxMzEgMzcuNTg4NSAzMC44MTkzQzM3LjU4ODUgMjkuNjI1NiAzOC41NTYzIDI4LjY1NzggMzkuNzUgMjguNjU3OEM0MC45NDM4IDI4LjY1NzggNDEuOTExNSAyOS42MjU1IDQxLjkxMTUgMzAuODE5M0M0MS45MTE1IDMyLjAxMzEgNDAuOTQzOCAzMi45ODA4IDM5Ljc1IDMyLjk4MDhaIiBjbGlwLXJ1bGU9ImV2ZW5vZGQiIGZpbGwtcnVsZT0iZXZlbm9kZCIvPiYjeGE7PC9zdmc+;" parent="atDbLLzjIxGfExJ--USy-42" vertex="1">
          <mxGeometry x="10.440000000000055" y="10" width="30.61" height="30" as="geometry" />
        </mxCell>
        <mxCell id="atDbLLzjIxGfExJ--USy-47" value="" style="group" parent="atDbLLzjIxGfExJ--USy-147" vertex="1" connectable="0">
          <mxGeometry width="82" height="81" as="geometry" />
        </mxCell>
        <mxCell id="atDbLLzjIxGfExJ--USy-48" value="" style="whiteSpace=wrap;html=1;aspect=fixed;strokeColor=none;strokeWidth=2;rounded=1;labelPosition=center;verticalLabelPosition=bottom;align=center;verticalAlign=top;sketch=1;curveFitting=1;jiggle=2;fillColor=#76d2b6;fillStyle=solid;" parent="atDbLLzjIxGfExJ--USy-47" vertex="1">
          <mxGeometry y="1" width="80" height="80" as="geometry" />
        </mxCell>
        <mxCell id="atDbLLzjIxGfExJ--USy-49" value="" style="group;" parent="atDbLLzjIxGfExJ--USy-47" vertex="1" connectable="0">
          <mxGeometry x="15" y="18" width="50" height="50" as="geometry" />
        </mxCell>
        <mxCell id="atDbLLzjIxGfExJ--USy-50" value="" style="points=[[0.145,0.145,0],[0.5,0,0],[0.855,0.145,0],[1,0.5,0],[0.855,0.855,0],[0.5,1,0],[0.145,0.855,0],[0,0.5,0]];shape=mxgraph.bpmn.event;html=1;verticalLabelPosition=bottom;labelBackgroundColor=none;verticalAlign=top;align=center;perimeter=ellipsePerimeter;outlineConnect=0;aspect=fixed;outline=standard;symbol=general;strokeColor=none;strokeWidth=2;fontFamily=Fira Sans;fontSource=https%3A%2F%2Ffonts.googleapis.com%2Fcss%3Ffamily%3DFira%2BSans;fontSize=14;fillColor=#d52b1e;labelPosition=center;spacingLeft=4;" parent="atDbLLzjIxGfExJ--USy-49" vertex="1">
          <mxGeometry width="50" height="50" as="geometry" />
        </mxCell>
        <mxCell id="atDbLLzjIxGfExJ--USy-51" value="" style="shape=image;verticalLabelPosition=bottom;verticalAlign=top;imageAspect=0;aspect=fixed;image=data:image/svg+xml,PHN2ZyB4bWxucz0iaHR0cDovL3d3dy53My5vcmcvMjAwMC9zdmciIGZpbGw9Im5vbmUiIHZpZXdCb3g9IjcuNSA3LjQyNjUwOTg1NzE3NzczNCA1MCA0OC45OTk5ODg1NTU5MDgyIiBoZWlnaHQ9IjQ4Ljk5OTk4ODU1NTkwODIiIHdpZHRoPSI1MCI+JiN4YTs8cGF0aCBmaWxsPSJ3aGl0ZSIgZD0iTTkuNSA3LjQyNjUxSDU1LjVDNTYuNjA0NSA3LjQyNjUxIDU3LjUgOC4zMjIwMSA1Ny41IDkuNDI2NTFWNDQuNDI2NkM1Ny41IDQ1LjUzMTEgNTYuNjA0NSA0Ni40MjY2IDU1LjUgNDYuNDI2NkgzMC4zMzM4QzMwLjI5NjkgNDYuNTEyNSAzMC4yNTc4IDQ2Ljc0NjkgMzAuNTc4MSA0Ni44MDk0QzM1LjE1MjkgNDcuNzAyIDM5LjU1NTMgNDguMzQxNyAzOS41NTUzIDQ4LjM0MTdDMzkuNzk3MyA0OS4xNTU5IDQwLjExMTkgNTAuMTkzNSA0MC41IDUxLjQyNjVDNDEuMDc3OSA1My4yNjM4IDQyLjg3OTEgNTMuNDE4NSA0My4zNjkxIDUzLjQyNjVINDUuNUM0Ni4wNTI3IDUzLjQyNjUgNDYuNSA1My44NzQzIDQ2LjUgNTQuNDI2NVY1Ni40MjY1SDE4LjVWNTQuNDI2NUMxOC41IDUzLjg3NDMgMTguOTQ3MyA1My40MjY1IDE5LjUgNTMuNDI2NUgyMS42MzA5QzIyLjEyMDkgNTMuNDE4NSAyMy45MjIxIDUzLjI2MzggMjQuNSA1MS40MjY1QzI1LjQ2NTggNDguMzU3NyAyNiA0Ni40MTY1IDI2IDQ2LjQxNjVIOS41QzguMzk1NSA0Ni40MTY1IDcuNSA0NS41MjEgNy41IDQ0LjQxNjVWOS40MjY1MUM3LjUgOC4zMjIwMSA4LjM5NTUgNy40MjY1MSA5LjUgNy40MjY1MVpNMTIuNSAzOS40MjY1SDUyLjVWMTIuNDI2NUgxMi41VjM5LjQyNjVaTTMzLjU0NDMgMjEuMjE5NUMzNC4xNDEyIDIxLjM0NTYgMzQuNzYxNCAyMS40NzkyIDM1LjM5NjIgMjEuNjE5M0MzNS43NTg5IDIxLjY5OTMgMzUuODkyOSAyMi4xMjc4IDM1Ljg5MjkgMjIuNjIyOUMzNS44OTI5IDIzLjExODEgMzUuNzU3MiAyMy41NDEzIDM1LjM5NjEgMjMuNjI2NkMzNC43NTkgMjMuNzc3MSAzNC4xMzI5IDIzLjkxODQgMzMuNTI4NyAyNC4wNTAyQzMzLjE3NDQgMjQuMTI3NSAzMi44ODQxIDI0LjM3MjMgMzIuNzQ2NSAyNC43MDc3TDMyLjczMjkgMjQuNzQwNEMzMi41OTE5IDI1LjA3NzggMzIuNjI0MiAyNS40NTkxIDMyLjgyMzcgMjUuNzY1NUMzMy4xNTY2IDI2LjI3NjcgMzMuNTAwOSAyNi44MDk3IDMzLjg1MDYgMjcuMzU3N0MzNC4wNTA0IDI3LjY3MDggMzMuODQyMiAyOC4wNjg1IDMzLjQ5MjEgMjguNDE4N0MzMy4xNDE5IDI4Ljc2ODcgMzIuNzQ2NyAyOC45NzIxIDMyLjQzMTEgMjguNzc3MUMzMS44NzQyIDI4LjQzMzEgMzEuMzMxOSAyOC4wOTAzIDMwLjgxMTQgMjcuNzU2M0MzMC41MDgxIDI3LjU2MTYgMzAuMTMyOCAyNy41Mjg2IDI5Ljc5OTQgMjcuNjY1OEwyOS43NjY1IDI3LjY3OTJDMjkuNDI1NiAyNy44MTcgMjkuMTc1OSAyOC4xMTA5IDI5LjA5OTggMjguNDcwOEMyOC45NzM3IDI5LjA2NzcgMjguODQwMyAyOS42ODc5IDI4LjcwMDEgMzAuMzIyN0MyOC42MiAzMC42ODUzIDI4LjE5MTYgMzAuODE5NCAyNy42OTY0IDMwLjgxOTRDMjcuMjAxMyAzMC44MTk0IDI2Ljc3OCAzMC42ODM3IDI2LjY5MjggMzAuMzIyNUMyNi41NDI0IDI5LjY4NTcgMjYuNDAxMiAyOS4wNiAyNi4yNjk0IDI4LjQ1NTlDMjYuMTkxOCAyOC4xMDAyIDI1Ljk0NDggMjcuODA5OSAyNS42MDc5IDI3LjY3MTlMMjUuNTk2NCAyNy42NjcyQzI1LjI2MiAyNy41Mjk0IDI0Ljg4NTQgMjcuNTYxMSAyNC41ODEgMjcuNzU2NUMyNC4wNjA2IDI4LjA5MDQgMjMuNTE4NSAyOC40MzMxIDIyLjk2MTcgMjguNzc3QzIyLjY0NjEgMjguOTcyIDIyLjI1MDkgMjguNzY4NiAyMS45MDA4IDI4LjQxODZDMjEuNTUwNiAyOC4wNjg0IDIxLjM0MjUgMjcuNjcwNyAyMS41NDIzIDI3LjM1NzZDMjEuODkyMSAyNi44MDk2IDIyLjIzNjIgMjYuMjc2NyAyMi41NjkxIDI1Ljc2NTRDMjIuNzY4NiAyNS40NTkgMjIuODAwOSAyNS4wNzc3IDIyLjY1OTkgMjQuNzQwM0wyMi42NDY0IDI0LjcwNzZDMjIuNTA4NyAyNC4zNzIzIDIyLjIxODQgMjQuMTI3NCAyMS44NjQxIDI0LjA1MDJDMjEuMjU5OCAyMy45MTg0IDIwLjYzMzkgMjMuNzc3MSAxOS45OTY3IDIzLjYyNjZDMTkuNjM1NyAyMy41NDEzIDE5LjUgMjMuMTE4MSAxOS41IDIyLjYyMjlDMTkuNSAyMi4xMjc4IDE5LjYzNCAyMS42OTkzIDE5Ljk5NjcgMjEuNjE5M0MyMC42MzE1IDIxLjQ3OTEgMjEuMjUxNiAyMS4zNDU2IDIxLjg0ODYgMjEuMjE5NUMyMi4yMDg0IDIxLjE0MzQgMjIuNTAyNSAyMC44OTM4IDIyLjY0MDIgMjAuNTUyOEwyMi42NTM2IDIwLjUxOThDMjIuNzkwOCAyMC4xODY1IDIyLjc1NzcgMTkuODExMyAyMi41NjMxIDE5LjUwNzlDMjIuMjI5IDE4Ljk4NzUgMjEuODg2MyAxOC40NDUxIDIxLjU0MjMgMTcuODg4MkMyMS4zNDczIDE3LjU3MjUgMjEuNTUwNiAxNy4xNzc0IDIxLjkwMDggMTYuODI3MkMyMi4yNTA5IDE2LjQ3NzEgMjIuNjQ4NiAxNi4yNjg5IDIyLjk2MTcgMTYuNDY4N0MyMy41MDY0IDE2LjgxNjQgMjQuMDM2MiAxNy4xNTg1IDI0LjU0NDggMTcuNDg5N0MyNC44NTY4IDE3LjY5MjggMjUuMjQ1MSAxNy43MjUyIDI1LjU4OSAxNy41ODIyTDI1LjYwMTkgMTcuNTc2OEMyNS45NDMyIDE3LjQzNiAyNi4xOTI4IDE3LjE0MDggMjYuMjcxNiAxNi43OEMyNi40MDI3IDE2LjE3OSAyNi41NDMxIDE1LjU1NjcgMjYuNjkyOCAxNC45MjMyQzI2Ljc3OCAxNC41NjIyIDI3LjIwMTMgMTQuNDI2NSAyNy42OTY0IDE0LjQyNjVDMjguMTkxNiAxNC40MjY1IDI4LjYyIDE0LjU2MDUgMjguNyAxNC45MjMyQzI4LjgzOTMgMTUuNTU0NCAyOC45NzIxIDE2LjE3MTMgMjkuMDk3NiAxNi43NjUyQzI5LjE3NDggMTcuMTMwMiAyOS40MjcyIDE3LjQyOTEgMjkuNzcyNiAxNy41Njk4TDI5LjgwNyAxNy41ODM5QzMwLjE0OTYgMTcuNzI2MSAzMC41MzY2IDE3LjY5MjUgMzAuODQ3NSAxNy40OUMzMS4zNTYzIDE3LjE1ODggMzEuODg2MiAxNi44MTY1IDMyLjQzMTIgMTYuNDY4N0MzMi43NDQ0IDE2LjI2ODkgMzMuMTQyIDE2LjQ3NzEgMzMuNDkyMiAxNi44MjcyQzMzLjg0MjMgMTcuMTc3NCAzNC4wNDU3IDE3LjU3MjYgMzMuODUwNyAxNy44ODgyQzMzLjUwNjYgMTguNDQ1MSAzMy4xNjM5IDE4Ljk4NzUgMzIuODI5OSAxOS41MDc5QzMyLjYzNTIgMTkuODExMiAzMi42MDIxIDIwLjE4NjYgMzIuNzM5MyAyMC41MTk4TDMyLjc1MjggMjAuNTUyOEMzMi44OTA2IDIwLjg5MzggMzMuMTg0NSAyMS4xNDM0IDMzLjU0NDMgMjEuMjE5NVpNMjUuMDcxNyAyMi42MjI4QzI1LjA3MTcgMjQuMDcyNSAyNi4yNDY5IDI1LjI0NzUgMjcuNjk2NCAyNS4yNDc1QzI5LjE0NiAyNS4yNDc1IDMwLjMyMTEgMjQuMDcyNSAzMC4zMjExIDIyLjYyMjhDMzAuMzIxMSAyMS4xNzMyIDI5LjE0NiAxOS45OTgyIDI3LjY5NjQgMTkuOTk4MkMyNi4yNDY5IDE5Ljk5ODIgMjUuMDcxNyAyMS4xNzMzIDI1LjA3MTcgMjIuNjIyOFpNNDYuMDkxIDI5Ljk5MjhDNDUuNTY4MiAyOS44Nzc1IDQ1LjA1NzUgMjkuNzY3NSA0NC41NjU5IDI5LjY2MzZDNDQuMjY5NiAyOS42MDEgNDQuMDI3NSAyOS4zOTU0IDQzLjkxNCAyOS4xMTQ2TDQzLjkwMjkgMjkuMDg3NEM0My43OSAyOC44MTI5IDQzLjgxNzIgMjguNTAzOCA0My45Nzc2IDI4LjI1NEM0NC4yNTI2IDI3LjgyNTUgNDQuNTM0OSAyNy4zNzg4IDQ0LjgxODIgMjYuOTIwMkM0NC45Nzg4IDI2LjY2MDMgNDQuODExMyAyNi4zMzQ4IDQ0LjUyMyAyNi4wNDY0QzQ0LjIzNDYgMjUuNzU4MSA0My45MDcxIDI1LjU4NjYgNDMuNjQ5MiAyNS43NTExQzQzLjIwMDQgMjYuMDM3NiA0Mi43NjQgMjYuMzE5NSA0Mi4zNDUgMjYuNTkyMkM0Mi4wODkgMjYuNzU5IDQxLjc3MDIgMjYuNzg2NyA0MS40ODgxIDI2LjY2OTVMNDEuNDU5OCAyNi42NThDNDEuMTc1NCAyNi41NDIxIDQwLjk2NzUgMjYuMjk1OSA0MC45MDM5IDI1Ljk5NTNDNDAuODAwNSAyNS41MDYyIDQwLjY5MTIgMjQuOTk4MiA0MC41NzY0IDI0LjQ3ODRDNDAuNTEwNiAyNC4xNzk3IDQwLjE1NzggMjQuMDY5NCAzOS43NSAyNC4wNjk0QzM5LjM0MjIgMjQuMDY5NCAzOC45OTM3IDI0LjE4MTEgMzguOTIzNSAyNC40Nzg0QzM4LjgwMDIgMjUuMDAwMSAzOC42ODQ2IDI1LjUxMjYgMzguNTc2NiAyNi4wMDc2QzM4LjUxMTcgMjYuMzA0NiAzOC4zMDYxIDI2LjU0NzcgMzguMDI1MSAyNi42NjM3TDM4LjAxNDUgMjYuNjY4MkMzNy43MzEzIDI2Ljc4NiAzNy40MTE1IDI2Ljc1OTMgMzcuMTU0NSAyNi41OTJDMzYuNzM1NyAyNi4zMTkzIDM2LjI5OTQgMjYuMDM3NSAzNS44NTA4IDI1Ljc1MTFDMzUuNTkzIDI1LjU4NjYgMzUuMjY1NSAyNS43NTgxIDM0Ljk3NzEgMjYuMDQ2NEMzNC42ODg4IDI2LjMzNDggMzQuNTIxMyAyNi42NjAyIDM0LjY4MTkgMjYuOTIwMkMzNC45NjUyIDI3LjM3ODggMzUuMjQ3NCAyNy44MjU1IDM1LjUyMjUgMjguMjU0QzM1LjY4MjggMjguNTAzOSAzNS43MTAxIDI4LjgxMjkgMzUuNTk3MSAyOS4wODc0TDM1LjU4NiAyOS4xMTQ2QzM1LjQ3MjYgMjkuMzk1NCAzNS4yMzA0IDI5LjYwMSAzNC45MzQyIDI5LjY2MzZDMzQuNDQyNSAyOS43Njc1IDMzLjkzMTggMjkuODc3NCAzMy40MDkgMjkuOTkyOEMzMy4xMTA0IDMwLjA1ODggMzMgMzAuNDExNiAzMyAzMC44MTk0QzMzIDMxLjIyNzEgMzMuMTExNyAzMS41NzU3IDMzLjQwOSAzMS42NDU5QzMzLjkzMzggMzEuNzY5OCAzNC40NDkzIDMxLjg4NjIgMzQuOTQ2OSAzMS45OTQ3QzM1LjIzODcgMzIuMDU4MyAzNS40Nzc3IDMyLjI2IDM1LjU5MTEgMzIuNTM2MkwzNS42MDIyIDMyLjU2MzFDMzUuNzE4NCAzMi44NDEgMzUuNjkxOCAzMy4xNTQ5IDM1LjUyNzUgMzMuNDA3MkMzNS4yNTMzIDMzLjgyODQgMzQuOTcgMzQuMjY3MiAzNC42ODE5IDM0LjcxODVDMzQuNTE3MyAzNC45NzYzIDM0LjY4ODggMzUuMzAzOCAzNC45NzcxIDM1LjU5MjNDMzUuMjY1NSAzNS44ODA1IDM1LjU5MDkgMzYuMDQ4IDM1Ljg1MDggMzUuODg3NEMzNi4zMDkzIDM1LjYwNDIgMzYuNzU1OCAzNS4zMjIgMzcuMTg0NCAzNS4wNDdDMzcuNDM1MSAzNC44ODYxIDM3Ljc0NTIgMzQuODYgMzguMDIwNiAzNC45NzM1TDM4LjAzIDM0Ljk3NzRDMzguMzA3NSAzNS4wOTEgMzguNTEwOSAzNS4zMyAzOC41NzQ4IDM1LjYyM0MzOC42ODMzIDM2LjEyMDUgMzguNzk5NiAzNi42MzU3IDM4LjkyMzUgMzcuMTYwMkMzOC45OTM3IDM3LjQ1NzYgMzkuMzQyMiAzNy41Njk0IDM5Ljc1IDM3LjU2OTRDNDAuMTU3OCAzNy41Njk0IDQwLjUxMDYgMzcuNDU5IDQwLjU3NjUgMzcuMTYwM0M0MC42OTIgMzYuNjM3NSA0MC44MDE5IDM2LjEyNjkgNDAuOTA1OCAzNS42MzUyQzQwLjk2ODQgMzUuMzM4OCA0MS4xNzQgMzUuMDk2OCA0MS40NTQ3IDM0Ljk4MzNMNDEuNDgxOSAzNC45NzIzQzQxLjc1NjQgMzQuODU5MyA0Mi4wNjU1IDM0Ljg4NjUgNDIuMzE1MiAzNS4wNDY5QzQyLjc0MzkgMzUuMzIxOSA0My4xOTA1IDM1LjYwNDIgNDMuNjQ5MSAzNS44ODc1QzQzLjkwOSAzNi4wNDgxIDQ0LjIzNDUgMzUuODgwNiA0NC41MjI5IDM1LjU5MjNDNDQuODExMiAzNS4zMDM5IDQ0Ljk4MjcgMzQuOTc2NCA0NC44MTgxIDM0LjcxODZDNDQuNTMwMSAzNC4yNjczIDQ0LjI0NjYgMzMuODI4NCA0My45NzI1IDMzLjQwNzNDNDMuODA4MiAzMy4xNTUgNDMuNzgxNiAzMi44NDEgNDMuODk3NyAzMi41NjMyTDQzLjkwODkgMzIuNTM2MkM0NC4wMjIyIDMyLjI2MDEgNDQuMjYxMyAzMi4wNTg0IDQ0LjU1MzEgMzEuOTk0N0M0NS4wNTA3IDMxLjg4NjIgNDUuNTY2MiAzMS43Njk4IDQ2LjA5MDkgMzEuNjQ1OUM0Ni4zODgzIDMxLjU3NTcgNDYuNSAzMS4yMjcxIDQ2LjUgMzAuODE5NEM0Ni41IDMwLjQxMTYgNDYuMzg5NyAzMC4wNTg4IDQ2LjA5MSAyOS45OTI4Wk0zOS43NSAzMi45ODA4QzM4LjU1NjMgMzIuOTgwOCAzNy41ODg1IDMyLjAxMzEgMzcuNTg4NSAzMC44MTkzQzM3LjU4ODUgMjkuNjI1NiAzOC41NTYzIDI4LjY1NzggMzkuNzUgMjguNjU3OEM0MC45NDM4IDI4LjY1NzggNDEuOTExNSAyOS42MjU1IDQxLjkxMTUgMzAuODE5M0M0MS45MTE1IDMyLjAxMzEgNDAuOTQzOCAzMi45ODA4IDM5Ljc1IDMyLjk4MDhaIiBjbGlwLXJ1bGU9ImV2ZW5vZGQiIGZpbGwtcnVsZT0iZXZlbm9kZCIvPiYjeGE7PC9zdmc+;" parent="atDbLLzjIxGfExJ--USy-49" vertex="1">
          <mxGeometry x="10.440000000000055" y="10" width="30.61" height="30" as="geometry" />
        </mxCell>
        <mxCell id="atDbLLzjIxGfExJ--USy-76" value="" style="group" parent="atDbLLzjIxGfExJ--USy-47" vertex="1" connectable="0">
          <mxGeometry x="58" y="5" width="22" height="22" as="geometry" />
        </mxCell>
        <mxCell id="atDbLLzjIxGfExJ--USy-77" value="" style="shape=image;verticalLabelPosition=bottom;verticalAlign=top;imageAspect=0;aspect=fixed;image=data:image/svg+xml,PHN2ZyB4bWxucz0iaHR0cDovL3d3dy53My5vcmcvMjAwMC9zdmciIGZpbGw9Im5vbmUiIHZpZXdCb3g9IjYuMDE4Nzk3Mzk3NjEzNTI1IDUuMDAwNDkwMTg4NTk4NjMzIDUwLjk4MzUwMTQzNDMyNjE3IDUzLjg5OTUxMzI0NDYyODkwNiIgaGVpZ2h0PSI1My44OTk1MTMyNDQ2Mjg5MDYiIHdpZHRoPSI1MC45ODM1MDE0MzQzMjYxNyI+JiN4YTs8cGF0aCBmaWxsPSJ3aGl0ZSIgZD0iTTI5LjUzNTkgNTBDMjkuMTg5OCA1MC42NzkgMjguNzk0OCA1MS40MDg4IDI4LjM0MjEgNTIuMTM5N0MyNS45NjIxIDU1Ljk4MjQgMjIuNjU0NCA1Ni44NDAzIDIwLjQwNjMgNTYuMDQ2OUMxOS45MDM0IDU1Ljg2OTQgMjAuMDk4MiA1NS41NjY0IDIwLjA5ODIgNTUuNTY2NEMyMy4xNDgxIDU1LjU2NjQgMjUuMjczNiA1My4xMDQ5IDI3LjAyMzkgNTBDMjcuMzg3MiA0OS4zNTU2IDI3LjczNCA0OC42ODM4IDI4LjA2OTcgNDhINDQuODgzNUM0NC43MDQ0IDQ2Ljc5MyA0NC42MzU1IDQ1LjI2NzggNDQuNjY3MSA0My40Njc0QzQ1LjAxMzUgMzYuMTc5MyA0Ni44ODgyIDI0LjAwNjMgNDguMDg4NyAxOC4wMDI3QzQ4LjQyMSAxNi4zNDExIDQ4LjYxODIgMTMuNzc1OCA0OC4zNTA0IDEyLjA1ODVDNDguMDM0MSAxMC4wMzAxIDQ3LjE5OTYgOC42MzM0OSA0Ni40MTA3IDcuNjcxMzlDNDUuMDE5NiA1Ljk3NDA5IDQzLjAwNTkgNS4wMDA0OSA0MC44ODY4IDUuMDAwNDlIMTQuMDc1OUM5LjE2NjA2IDUuMDAwNDkgNi4zMzkyNiA4LjIyNjk5IDYuMDQ3NzYgMTEuODY0OUM1LjYzMzA2IDE3LjAzMjkgOS43MzczNiAyMC4zMTYxIDE0LjE0OTEgMjEuMDE1OEMxNC40NTk4IDE5LjMxNTcgMTQuNzI0NyAxNy45NDYyIDE0Ljg5NDUgMTcuMDg4N0MxMi45OTM3IDE2LjgwODggOS43NzA2NiAxNS40OCAxMC4wMzUxIDEyLjE4NTJDMTAuMTgyNCAxMC4zNDQgMTEuNzQxMiA4LjkwMjc5IDEzLjU4MzkgOC45MDA0OUgxMy41OTJDMTQuNTIwMiA4LjkwMTU5IDE1LjM4MjIgOS4zMjk3OSAxNi4wMTkgMTAuMTA3MUMxNy4yMTcyIDExLjU2OCAxNy41NCAxNC4wNTczIDE2LjkyODIgMTcuMTE2OUMxNS41NiAyMy45NTc3IDEyLjcyNzEgNDAuMjc4IDEzLjA5MzggNDcuMDA5NUMxMy4yNDYgNDkuNzk4NCAxNC4zMzU0IDU4LjkgMjEuOTY1OCA1OC45SDQ2QzUxLjkzODggNTguOSA1NS4zMzgzIDUzLjY5NjkgNTcuMDAyMyA1MEgyOS41MzU5Wk0yNC45MDM2IDI2LjM3NTNDMjQuMTAzNiAyNi4zNzUzIDIzLjQwMzYgMjcuMDc1MyAyMy40MDM2IDI3Ljg3NTNDMjMuNDAzNiAyOC42NzUzIDI0LjEwMzYgMjkuMzc1MyAyNC45MDM2IDI5LjM3NTNDMjUuNzAzNiAyOS4zNzUzIDI2LjQwMzYgMjguNjc1MyAyNi40MDM2IDI3Ljg3NTNDMjYuNDAzNiAyNy4wNzUzIDI1LjgwMzYgMjYuMzc1MyAyNC45MDM2IDI2LjM3NTNaTTI0LjQxNTEgMjAuOTc1M0MyNC40MTUxIDIwLjE3NTMgMjUuMTE1MSAxOS40NzUzIDI1LjkxNTEgMTkuNDc1M0MyNi44MTUxIDE5LjQ3NTMgMjcuNDE1MSAyMC4xNzUzIDI3LjQxNTEgMjAuOTc1M0MyNy40MTUxIDIxLjc3NTMgMjYuNzE1MSAyMi40NzUzIDI1LjkxNTEgMjIuNDc1M0MyNS4xMTUxIDIyLjQ3NTMgMjQuNDE1MSAyMS43NzUzIDI0LjQxNTEgMjAuOTc1M1pNMjQuMDAzNyAzMy4zNzUzQzIzLjIwMzcgMzMuMzc1MyAyMi41MDM3IDM0LjA3NTMgMjIuNTAzNyAzNC44NzUzQzIyLjUwMzcgMzUuNjc1MyAyMy4yMDM3IDM2LjM3NTMgMjQuMDAzNyAzNi4zNzUzQzI0LjgwMzcgMzYuMzc1MyAyNS41MDM3IDM1LjY3NTMgMjUuNTAzNyAzNC44NzUzQzI1LjUwMzcgMzMuOTc1MyAyNC45MDM3IDMzLjM3NTMgMjQuMDAzNyAzMy4zNzUzWk0yMS45MDM2IDQxLjg3NTNDMjEuOTAzNiA0MS4wNzUzIDIyLjYwMzYgNDAuMzc1MyAyMy40MDM2IDQwLjM3NTNDMjQuMjAzNiA0MC4zNzUzIDI0LjkwMzYgNDEuMDc1MyAyNC45MDM2IDQxLjg3NTNDMjQuOTAzNiA0Mi42NzUzIDI0LjIwMzYgNDMuMzc1MyAyMy40MDM2IDQzLjM3NTNDMjIuNjAzNiA0My4zNzUzIDIxLjkwMzYgNDIuNjc1MyAyMS45MDM2IDQxLjg3NTNaTTI4LjEwMzcgMjkuNDc1M0g0Mi4wMDM3QzQyLjA1MzcgMjguOTc1MyA0Mi4xMjg3IDI4LjQ3NTMgNDIuMjAzNyAyNy45NzUzQzQyLjI3ODcgMjcuNDc1MyA0Mi4zNTM3IDI2Ljk3NTMgNDIuNDAzNyAyNi40NzUzSDI4LjUwMzdDMjguMzAzNyAyNy40NzUzIDI4LjIwMzcgMjguNDc1MyAyOC4xMDM3IDI5LjQ3NTNaTTQzLjE2NjMgMjIuNTc1M0gyOS4xMTMxQzI5LjIwNTMgMjEuNjUzMyAyOS4zOTA0IDIwLjczMTMgMjkuNTc1NCAxOS44MDkzTDI5LjYyMjMgMTkuNTc1M0g0My41OTA3QzQzLjU0MDcgMjAuMDc1MyA0My40NTk2IDIwLjU3NTMgNDMuMzc4NSAyMS4wNzUzQzQzLjI5NzQgMjEuNTc1MyA0My4yMTYzIDIyLjA3NTMgNDMuMTY2MyAyMi41NzUzWk0yNy4yMDM3IDM2LjQ3NTNINDEuMTAzN0w0MS40MDM3IDMzLjQ3NTNIMjcuNjAzN0MyNy40MDM3IDM0LjQ3NTMgMjcuMzAzNyAzNS40NzUzIDI3LjIwMzcgMzYuNDc1M1pNNDAuNjAzNyA0My40NzUzSDI2LjcwMzdDMjYuNzAzNyA0My4wNDc5IDI2LjcyNjIgNDIuNTk3OSAyNi43NDk5IDQyLjEyNTNDMjYuNzc2MSA0MS42MDI5IDI2LjgwMzcgNDEuMDUyOSAyNi44MDM3IDQwLjQ3NTNINDAuODAzN0M0MC43OTQ1IDQwLjU3NjIgNDAuNzg1MyA0MC42NzYyIDQwLjc3NjIgNDAuNzc1NEM0MC42ODYyIDQxLjc1NzkgNDAuNjAzNyA0Mi42NTc5IDQwLjYwMzcgNDMuNDc1M1oiIGNsaXAtcnVsZT0iZXZlbm9kZCIgZmlsbC1ydWxlPSJldmVub2RkIi8+JiN4YTs8L3N2Zz4=;" parent="atDbLLzjIxGfExJ--USy-76" vertex="1">
          <mxGeometry x="3.9200000000000728" y="2.5" width="14.165999999999999" height="15" as="geometry" />
        </mxCell>
        <mxCell id="atDbLLzjIxGfExJ--USy-79" value="" style="group" parent="atDbLLzjIxGfExJ--USy-147" vertex="1" connectable="0">
          <mxGeometry x="55" y="103" width="22" height="22" as="geometry" />
        </mxCell>
        <mxCell id="atDbLLzjIxGfExJ--USy-80" value="" style="shape=image;verticalLabelPosition=bottom;verticalAlign=top;imageAspect=0;aspect=fixed;image=data:image/svg+xml,PHN2ZyB4bWxucz0iaHR0cDovL3d3dy53My5vcmcvMjAwMC9zdmciIGZpbGw9Im5vbmUiIHZpZXdCb3g9IjYuMDE4Nzk3Mzk3NjEzNTI1IDUuMDAwNDkwMTg4NTk4NjMzIDUwLjk4MzUwMTQzNDMyNjE3IDUzLjg5OTUxMzI0NDYyODkwNiIgaGVpZ2h0PSI1My44OTk1MTMyNDQ2Mjg5MDYiIHdpZHRoPSI1MC45ODM1MDE0MzQzMjYxNyI+JiN4YTs8cGF0aCBmaWxsPSJ3aGl0ZSIgZD0iTTI5LjUzNTkgNTBDMjkuMTg5OCA1MC42NzkgMjguNzk0OCA1MS40MDg4IDI4LjM0MjEgNTIuMTM5N0MyNS45NjIxIDU1Ljk4MjQgMjIuNjU0NCA1Ni44NDAzIDIwLjQwNjMgNTYuMDQ2OUMxOS45MDM0IDU1Ljg2OTQgMjAuMDk4MiA1NS41NjY0IDIwLjA5ODIgNTUuNTY2NEMyMy4xNDgxIDU1LjU2NjQgMjUuMjczNiA1My4xMDQ5IDI3LjAyMzkgNTBDMjcuMzg3MiA0OS4zNTU2IDI3LjczNCA0OC42ODM4IDI4LjA2OTcgNDhINDQuODgzNUM0NC43MDQ0IDQ2Ljc5MyA0NC42MzU1IDQ1LjI2NzggNDQuNjY3MSA0My40Njc0QzQ1LjAxMzUgMzYuMTc5MyA0Ni44ODgyIDI0LjAwNjMgNDguMDg4NyAxOC4wMDI3QzQ4LjQyMSAxNi4zNDExIDQ4LjYxODIgMTMuNzc1OCA0OC4zNTA0IDEyLjA1ODVDNDguMDM0MSAxMC4wMzAxIDQ3LjE5OTYgOC42MzM0OSA0Ni40MTA3IDcuNjcxMzlDNDUuMDE5NiA1Ljk3NDA5IDQzLjAwNTkgNS4wMDA0OSA0MC44ODY4IDUuMDAwNDlIMTQuMDc1OUM5LjE2NjA2IDUuMDAwNDkgNi4zMzkyNiA4LjIyNjk5IDYuMDQ3NzYgMTEuODY0OUM1LjYzMzA2IDE3LjAzMjkgOS43MzczNiAyMC4zMTYxIDE0LjE0OTEgMjEuMDE1OEMxNC40NTk4IDE5LjMxNTcgMTQuNzI0NyAxNy45NDYyIDE0Ljg5NDUgMTcuMDg4N0MxMi45OTM3IDE2LjgwODggOS43NzA2NiAxNS40OCAxMC4wMzUxIDEyLjE4NTJDMTAuMTgyNCAxMC4zNDQgMTEuNzQxMiA4LjkwMjc5IDEzLjU4MzkgOC45MDA0OUgxMy41OTJDMTQuNTIwMiA4LjkwMTU5IDE1LjM4MjIgOS4zMjk3OSAxNi4wMTkgMTAuMTA3MUMxNy4yMTcyIDExLjU2OCAxNy41NCAxNC4wNTczIDE2LjkyODIgMTcuMTE2OUMxNS41NiAyMy45NTc3IDEyLjcyNzEgNDAuMjc4IDEzLjA5MzggNDcuMDA5NUMxMy4yNDYgNDkuNzk4NCAxNC4zMzU0IDU4LjkgMjEuOTY1OCA1OC45SDQ2QzUxLjkzODggNTguOSA1NS4zMzgzIDUzLjY5NjkgNTcuMDAyMyA1MEgyOS41MzU5Wk0yNC45MDM2IDI2LjM3NTNDMjQuMTAzNiAyNi4zNzUzIDIzLjQwMzYgMjcuMDc1MyAyMy40MDM2IDI3Ljg3NTNDMjMuNDAzNiAyOC42NzUzIDI0LjEwMzYgMjkuMzc1MyAyNC45MDM2IDI5LjM3NTNDMjUuNzAzNiAyOS4zNzUzIDI2LjQwMzYgMjguNjc1MyAyNi40MDM2IDI3Ljg3NTNDMjYuNDAzNiAyNy4wNzUzIDI1LjgwMzYgMjYuMzc1MyAyNC45MDM2IDI2LjM3NTNaTTI0LjQxNTEgMjAuOTc1M0MyNC40MTUxIDIwLjE3NTMgMjUuMTE1MSAxOS40NzUzIDI1LjkxNTEgMTkuNDc1M0MyNi44MTUxIDE5LjQ3NTMgMjcuNDE1MSAyMC4xNzUzIDI3LjQxNTEgMjAuOTc1M0MyNy40MTUxIDIxLjc3NTMgMjYuNzE1MSAyMi40NzUzIDI1LjkxNTEgMjIuNDc1M0MyNS4xMTUxIDIyLjQ3NTMgMjQuNDE1MSAyMS43NzUzIDI0LjQxNTEgMjAuOTc1M1pNMjQuMDAzNyAzMy4zNzUzQzIzLjIwMzcgMzMuMzc1MyAyMi41MDM3IDM0LjA3NTMgMjIuNTAzNyAzNC44NzUzQzIyLjUwMzcgMzUuNjc1MyAyMy4yMDM3IDM2LjM3NTMgMjQuMDAzNyAzNi4zNzUzQzI0LjgwMzcgMzYuMzc1MyAyNS41MDM3IDM1LjY3NTMgMjUuNTAzNyAzNC44NzUzQzI1LjUwMzcgMzMuOTc1MyAyNC45MDM3IDMzLjM3NTMgMjQuMDAzNyAzMy4zNzUzWk0yMS45MDM2IDQxLjg3NTNDMjEuOTAzNiA0MS4wNzUzIDIyLjYwMzYgNDAuMzc1MyAyMy40MDM2IDQwLjM3NTNDMjQuMjAzNiA0MC4zNzUzIDI0LjkwMzYgNDEuMDc1MyAyNC45MDM2IDQxLjg3NTNDMjQuOTAzNiA0Mi42NzUzIDI0LjIwMzYgNDMuMzc1MyAyMy40MDM2IDQzLjM3NTNDMjIuNjAzNiA0My4zNzUzIDIxLjkwMzYgNDIuNjc1MyAyMS45MDM2IDQxLjg3NTNaTTI4LjEwMzcgMjkuNDc1M0g0Mi4wMDM3QzQyLjA1MzcgMjguOTc1MyA0Mi4xMjg3IDI4LjQ3NTMgNDIuMjAzNyAyNy45NzUzQzQyLjI3ODcgMjcuNDc1MyA0Mi4zNTM3IDI2Ljk3NTMgNDIuNDAzNyAyNi40NzUzSDI4LjUwMzdDMjguMzAzNyAyNy40NzUzIDI4LjIwMzcgMjguNDc1MyAyOC4xMDM3IDI5LjQ3NTNaTTQzLjE2NjMgMjIuNTc1M0gyOS4xMTMxQzI5LjIwNTMgMjEuNjUzMyAyOS4zOTA0IDIwLjczMTMgMjkuNTc1NCAxOS44MDkzTDI5LjYyMjMgMTkuNTc1M0g0My41OTA3QzQzLjU0MDcgMjAuMDc1MyA0My40NTk2IDIwLjU3NTMgNDMuMzc4NSAyMS4wNzUzQzQzLjI5NzQgMjEuNTc1MyA0My4yMTYzIDIyLjA3NTMgNDMuMTY2MyAyMi41NzUzWk0yNy4yMDM3IDM2LjQ3NTNINDEuMTAzN0w0MS40MDM3IDMzLjQ3NTNIMjcuNjAzN0MyNy40MDM3IDM0LjQ3NTMgMjcuMzAzNyAzNS40NzUzIDI3LjIwMzcgMzYuNDc1M1pNNDAuNjAzNyA0My40NzUzSDI2LjcwMzdDMjYuNzAzNyA0My4wNDc5IDI2LjcyNjIgNDIuNTk3OSAyNi43NDk5IDQyLjEyNTNDMjYuNzc2MSA0MS42MDI5IDI2LjgwMzcgNDEuMDUyOSAyNi44MDM3IDQwLjQ3NTNINDAuODAzN0M0MC43OTQ1IDQwLjU3NjIgNDAuNzg1MyA0MC42NzYyIDQwLjc3NjIgNDAuNzc1NEM0MC42ODYyIDQxLjc1NzkgNDAuNjAzNyA0Mi42NTc5IDQwLjYwMzcgNDMuNDc1M1oiIGNsaXAtcnVsZT0iZXZlbm9kZCIgZmlsbC1ydWxlPSJldmVub2RkIi8+JiN4YTs8L3N2Zz4=;" parent="atDbLLzjIxGfExJ--USy-79" vertex="1">
          <mxGeometry x="3.9200000000000728" y="2.5" width="14.165999999999999" height="15" as="geometry" />
        </mxCell>
        <mxCell id="atDbLLzjIxGfExJ--USy-155" value="" style="group" parent="1" vertex="1" connectable="0">
          <mxGeometry x="108.77" y="172" width="183.23000000000002" height="192.75" as="geometry" />
        </mxCell>
        <mxCell id="atDbLLzjIxGfExJ--USy-100" value="" style="whiteSpace=wrap;html=1;aspect=fixed;strokeColor=none;strokeWidth=2;rounded=1;labelPosition=center;verticalLabelPosition=bottom;align=center;verticalAlign=top;sketch=1;curveFitting=1;jiggle=2;fillColor=#76d2b6;fillStyle=solid;" parent="atDbLLzjIxGfExJ--USy-155" vertex="1">
          <mxGeometry x="1.230000000000004" y="8" width="80" height="80" as="geometry" />
        </mxCell>
        <mxCell id="atDbLLzjIxGfExJ--USy-104" value="" style="whiteSpace=wrap;html=1;aspect=fixed;strokeColor=none;strokeWidth=2;sketch=1;curveFitting=1;jiggle=2;fillColor=#ffb612;fillStyle=solid;" parent="atDbLLzjIxGfExJ--USy-155" vertex="1">
          <mxGeometry x="57.000000000000014" width="30" height="30" as="geometry" />
        </mxCell>
        <mxCell id="atDbLLzjIxGfExJ--USy-148" value="" style="group" parent="atDbLLzjIxGfExJ--USy-155" vertex="1" connectable="0">
          <mxGeometry x="101.23" y="46.5" width="82" height="93" as="geometry" />
        </mxCell>
        <mxCell id="atDbLLzjIxGfExJ--USy-81" value="" style="whiteSpace=wrap;html=1;aspect=fixed;strokeColor=none;strokeWidth=2;rounded=1;labelPosition=center;verticalLabelPosition=bottom;align=center;verticalAlign=top;sketch=1;curveFitting=1;jiggle=2;fillColor=#8FCAE7;fillStyle=solid;" parent="atDbLLzjIxGfExJ--USy-148" vertex="1">
          <mxGeometry y="13" width="80" height="80" as="geometry" />
        </mxCell>
        <mxCell id="atDbLLzjIxGfExJ--USy-82" value="" style="group;" parent="atDbLLzjIxGfExJ--USy-148" vertex="1" connectable="0">
          <mxGeometry x="15" y="30" width="50" height="50" as="geometry" />
        </mxCell>
        <mxCell id="atDbLLzjIxGfExJ--USy-83" value="" style="points=[[0.145,0.145,0],[0.5,0,0],[0.855,0.145,0],[1,0.5,0],[0.855,0.855,0],[0.5,1,0],[0.145,0.855,0],[0,0.5,0]];shape=mxgraph.bpmn.event;html=1;verticalLabelPosition=bottom;labelBackgroundColor=none;verticalAlign=top;align=center;perimeter=ellipsePerimeter;outlineConnect=0;aspect=fixed;outline=standard;symbol=general;strokeColor=none;strokeWidth=2;fontFamily=Fira Sans;fontSource=https%3A%2F%2Ffonts.googleapis.com%2Fcss%3Ffamily%3DFira%2BSans;fontSize=14;fillColor=#d52b1e;labelPosition=center;spacingLeft=4;" parent="atDbLLzjIxGfExJ--USy-82" vertex="1">
          <mxGeometry width="50" height="50" as="geometry" />
        </mxCell>
        <mxCell id="atDbLLzjIxGfExJ--USy-84" value="" style="shape=image;verticalLabelPosition=bottom;verticalAlign=top;imageAspect=0;aspect=fixed;image=data:image/svg+xml,PHN2ZyB4bWxucz0iaHR0cDovL3d3dy53My5vcmcvMjAwMC9zdmciIGZpbGw9Im5vbmUiIHZpZXdCb3g9IjcuNSA3LjQyNjUwOTg1NzE3NzczNCA1MCA0OC45OTk5ODg1NTU5MDgyIiBoZWlnaHQ9IjQ4Ljk5OTk4ODU1NTkwODIiIHdpZHRoPSI1MCI+JiN4YTs8cGF0aCBmaWxsPSJ3aGl0ZSIgZD0iTTkuNSA3LjQyNjUxSDU1LjVDNTYuNjA0NSA3LjQyNjUxIDU3LjUgOC4zMjIwMSA1Ny41IDkuNDI2NTFWNDQuNDI2NkM1Ny41IDQ1LjUzMTEgNTYuNjA0NSA0Ni40MjY2IDU1LjUgNDYuNDI2NkgzMC4zMzM4QzMwLjI5NjkgNDYuNTEyNSAzMC4yNTc4IDQ2Ljc0NjkgMzAuNTc4MSA0Ni44MDk0QzM1LjE1MjkgNDcuNzAyIDM5LjU1NTMgNDguMzQxNyAzOS41NTUzIDQ4LjM0MTdDMzkuNzk3MyA0OS4xNTU5IDQwLjExMTkgNTAuMTkzNSA0MC41IDUxLjQyNjVDNDEuMDc3OSA1My4yNjM4IDQyLjg3OTEgNTMuNDE4NSA0My4zNjkxIDUzLjQyNjVINDUuNUM0Ni4wNTI3IDUzLjQyNjUgNDYuNSA1My44NzQzIDQ2LjUgNTQuNDI2NVY1Ni40MjY1SDE4LjVWNTQuNDI2NUMxOC41IDUzLjg3NDMgMTguOTQ3MyA1My40MjY1IDE5LjUgNTMuNDI2NUgyMS42MzA5QzIyLjEyMDkgNTMuNDE4NSAyMy45MjIxIDUzLjI2MzggMjQuNSA1MS40MjY1QzI1LjQ2NTggNDguMzU3NyAyNiA0Ni40MTY1IDI2IDQ2LjQxNjVIOS41QzguMzk1NSA0Ni40MTY1IDcuNSA0NS41MjEgNy41IDQ0LjQxNjVWOS40MjY1MUM3LjUgOC4zMjIwMSA4LjM5NTUgNy40MjY1MSA5LjUgNy40MjY1MVpNMTIuNSAzOS40MjY1SDUyLjVWMTIuNDI2NUgxMi41VjM5LjQyNjVaTTMzLjU0NDMgMjEuMjE5NUMzNC4xNDEyIDIxLjM0NTYgMzQuNzYxNCAyMS40NzkyIDM1LjM5NjIgMjEuNjE5M0MzNS43NTg5IDIxLjY5OTMgMzUuODkyOSAyMi4xMjc4IDM1Ljg5MjkgMjIuNjIyOUMzNS44OTI5IDIzLjExODEgMzUuNzU3MiAyMy41NDEzIDM1LjM5NjEgMjMuNjI2NkMzNC43NTkgMjMuNzc3MSAzNC4xMzI5IDIzLjkxODQgMzMuNTI4NyAyNC4wNTAyQzMzLjE3NDQgMjQuMTI3NSAzMi44ODQxIDI0LjM3MjMgMzIuNzQ2NSAyNC43MDc3TDMyLjczMjkgMjQuNzQwNEMzMi41OTE5IDI1LjA3NzggMzIuNjI0MiAyNS40NTkxIDMyLjgyMzcgMjUuNzY1NUMzMy4xNTY2IDI2LjI3NjcgMzMuNTAwOSAyNi44MDk3IDMzLjg1MDYgMjcuMzU3N0MzNC4wNTA0IDI3LjY3MDggMzMuODQyMiAyOC4wNjg1IDMzLjQ5MjEgMjguNDE4N0MzMy4xNDE5IDI4Ljc2ODcgMzIuNzQ2NyAyOC45NzIxIDMyLjQzMTEgMjguNzc3MUMzMS44NzQyIDI4LjQzMzEgMzEuMzMxOSAyOC4wOTAzIDMwLjgxMTQgMjcuNzU2M0MzMC41MDgxIDI3LjU2MTYgMzAuMTMyOCAyNy41Mjg2IDI5Ljc5OTQgMjcuNjY1OEwyOS43NjY1IDI3LjY3OTJDMjkuNDI1NiAyNy44MTcgMjkuMTc1OSAyOC4xMTA5IDI5LjA5OTggMjguNDcwOEMyOC45NzM3IDI5LjA2NzcgMjguODQwMyAyOS42ODc5IDI4LjcwMDEgMzAuMzIyN0MyOC42MiAzMC42ODUzIDI4LjE5MTYgMzAuODE5NCAyNy42OTY0IDMwLjgxOTRDMjcuMjAxMyAzMC44MTk0IDI2Ljc3OCAzMC42ODM3IDI2LjY5MjggMzAuMzIyNUMyNi41NDI0IDI5LjY4NTcgMjYuNDAxMiAyOS4wNiAyNi4yNjk0IDI4LjQ1NTlDMjYuMTkxOCAyOC4xMDAyIDI1Ljk0NDggMjcuODA5OSAyNS42MDc5IDI3LjY3MTlMMjUuNTk2NCAyNy42NjcyQzI1LjI2MiAyNy41Mjk0IDI0Ljg4NTQgMjcuNTYxMSAyNC41ODEgMjcuNzU2NUMyNC4wNjA2IDI4LjA5MDQgMjMuNTE4NSAyOC40MzMxIDIyLjk2MTcgMjguNzc3QzIyLjY0NjEgMjguOTcyIDIyLjI1MDkgMjguNzY4NiAyMS45MDA4IDI4LjQxODZDMjEuNTUwNiAyOC4wNjg0IDIxLjM0MjUgMjcuNjcwNyAyMS41NDIzIDI3LjM1NzZDMjEuODkyMSAyNi44MDk2IDIyLjIzNjIgMjYuMjc2NyAyMi41NjkxIDI1Ljc2NTRDMjIuNzY4NiAyNS40NTkgMjIuODAwOSAyNS4wNzc3IDIyLjY1OTkgMjQuNzQwM0wyMi42NDY0IDI0LjcwNzZDMjIuNTA4NyAyNC4zNzIzIDIyLjIxODQgMjQuMTI3NCAyMS44NjQxIDI0LjA1MDJDMjEuMjU5OCAyMy45MTg0IDIwLjYzMzkgMjMuNzc3MSAxOS45OTY3IDIzLjYyNjZDMTkuNjM1NyAyMy41NDEzIDE5LjUgMjMuMTE4MSAxOS41IDIyLjYyMjlDMTkuNSAyMi4xMjc4IDE5LjYzNCAyMS42OTkzIDE5Ljk5NjcgMjEuNjE5M0MyMC42MzE1IDIxLjQ3OTEgMjEuMjUxNiAyMS4zNDU2IDIxLjg0ODYgMjEuMjE5NUMyMi4yMDg0IDIxLjE0MzQgMjIuNTAyNSAyMC44OTM4IDIyLjY0MDIgMjAuNTUyOEwyMi42NTM2IDIwLjUxOThDMjIuNzkwOCAyMC4xODY1IDIyLjc1NzcgMTkuODExMyAyMi41NjMxIDE5LjUwNzlDMjIuMjI5IDE4Ljk4NzUgMjEuODg2MyAxOC40NDUxIDIxLjU0MjMgMTcuODg4MkMyMS4zNDczIDE3LjU3MjUgMjEuNTUwNiAxNy4xNzc0IDIxLjkwMDggMTYuODI3MkMyMi4yNTA5IDE2LjQ3NzEgMjIuNjQ4NiAxNi4yNjg5IDIyLjk2MTcgMTYuNDY4N0MyMy41MDY0IDE2LjgxNjQgMjQuMDM2MiAxNy4xNTg1IDI0LjU0NDggMTcuNDg5N0MyNC44NTY4IDE3LjY5MjggMjUuMjQ1MSAxNy43MjUyIDI1LjU4OSAxNy41ODIyTDI1LjYwMTkgMTcuNTc2OEMyNS45NDMyIDE3LjQzNiAyNi4xOTI4IDE3LjE0MDggMjYuMjcxNiAxNi43OEMyNi40MDI3IDE2LjE3OSAyNi41NDMxIDE1LjU1NjcgMjYuNjkyOCAxNC45MjMyQzI2Ljc3OCAxNC41NjIyIDI3LjIwMTMgMTQuNDI2NSAyNy42OTY0IDE0LjQyNjVDMjguMTkxNiAxNC40MjY1IDI4LjYyIDE0LjU2MDUgMjguNyAxNC45MjMyQzI4LjgzOTMgMTUuNTU0NCAyOC45NzIxIDE2LjE3MTMgMjkuMDk3NiAxNi43NjUyQzI5LjE3NDggMTcuMTMwMiAyOS40MjcyIDE3LjQyOTEgMjkuNzcyNiAxNy41Njk4TDI5LjgwNyAxNy41ODM5QzMwLjE0OTYgMTcuNzI2MSAzMC41MzY2IDE3LjY5MjUgMzAuODQ3NSAxNy40OUMzMS4zNTYzIDE3LjE1ODggMzEuODg2MiAxNi44MTY1IDMyLjQzMTIgMTYuNDY4N0MzMi43NDQ0IDE2LjI2ODkgMzMuMTQyIDE2LjQ3NzEgMzMuNDkyMiAxNi44MjcyQzMzLjg0MjMgMTcuMTc3NCAzNC4wNDU3IDE3LjU3MjYgMzMuODUwNyAxNy44ODgyQzMzLjUwNjYgMTguNDQ1MSAzMy4xNjM5IDE4Ljk4NzUgMzIuODI5OSAxOS41MDc5QzMyLjYzNTIgMTkuODExMiAzMi42MDIxIDIwLjE4NjYgMzIuNzM5MyAyMC41MTk4TDMyLjc1MjggMjAuNTUyOEMzMi44OTA2IDIwLjg5MzggMzMuMTg0NSAyMS4xNDM0IDMzLjU0NDMgMjEuMjE5NVpNMjUuMDcxNyAyMi42MjI4QzI1LjA3MTcgMjQuMDcyNSAyNi4yNDY5IDI1LjI0NzUgMjcuNjk2NCAyNS4yNDc1QzI5LjE0NiAyNS4yNDc1IDMwLjMyMTEgMjQuMDcyNSAzMC4zMjExIDIyLjYyMjhDMzAuMzIxMSAyMS4xNzMyIDI5LjE0NiAxOS45OTgyIDI3LjY5NjQgMTkuOTk4MkMyNi4yNDY5IDE5Ljk5ODIgMjUuMDcxNyAyMS4xNzMzIDI1LjA3MTcgMjIuNjIyOFpNNDYuMDkxIDI5Ljk5MjhDNDUuNTY4MiAyOS44Nzc1IDQ1LjA1NzUgMjkuNzY3NSA0NC41NjU5IDI5LjY2MzZDNDQuMjY5NiAyOS42MDEgNDQuMDI3NSAyOS4zOTU0IDQzLjkxNCAyOS4xMTQ2TDQzLjkwMjkgMjkuMDg3NEM0My43OSAyOC44MTI5IDQzLjgxNzIgMjguNTAzOCA0My45Nzc2IDI4LjI1NEM0NC4yNTI2IDI3LjgyNTUgNDQuNTM0OSAyNy4zNzg4IDQ0LjgxODIgMjYuOTIwMkM0NC45Nzg4IDI2LjY2MDMgNDQuODExMyAyNi4zMzQ4IDQ0LjUyMyAyNi4wNDY0QzQ0LjIzNDYgMjUuNzU4MSA0My45MDcxIDI1LjU4NjYgNDMuNjQ5MiAyNS43NTExQzQzLjIwMDQgMjYuMDM3NiA0Mi43NjQgMjYuMzE5NSA0Mi4zNDUgMjYuNTkyMkM0Mi4wODkgMjYuNzU5IDQxLjc3MDIgMjYuNzg2NyA0MS40ODgxIDI2LjY2OTVMNDEuNDU5OCAyNi42NThDNDEuMTc1NCAyNi41NDIxIDQwLjk2NzUgMjYuMjk1OSA0MC45MDM5IDI1Ljk5NTNDNDAuODAwNSAyNS41MDYyIDQwLjY5MTIgMjQuOTk4MiA0MC41NzY0IDI0LjQ3ODRDNDAuNTEwNiAyNC4xNzk3IDQwLjE1NzggMjQuMDY5NCAzOS43NSAyNC4wNjk0QzM5LjM0MjIgMjQuMDY5NCAzOC45OTM3IDI0LjE4MTEgMzguOTIzNSAyNC40Nzg0QzM4LjgwMDIgMjUuMDAwMSAzOC42ODQ2IDI1LjUxMjYgMzguNTc2NiAyNi4wMDc2QzM4LjUxMTcgMjYuMzA0NiAzOC4zMDYxIDI2LjU0NzcgMzguMDI1MSAyNi42NjM3TDM4LjAxNDUgMjYuNjY4MkMzNy43MzEzIDI2Ljc4NiAzNy40MTE1IDI2Ljc1OTMgMzcuMTU0NSAyNi41OTJDMzYuNzM1NyAyNi4zMTkzIDM2LjI5OTQgMjYuMDM3NSAzNS44NTA4IDI1Ljc1MTFDMzUuNTkzIDI1LjU4NjYgMzUuMjY1NSAyNS43NTgxIDM0Ljk3NzEgMjYuMDQ2NEMzNC42ODg4IDI2LjMzNDggMzQuNTIxMyAyNi42NjAyIDM0LjY4MTkgMjYuOTIwMkMzNC45NjUyIDI3LjM3ODggMzUuMjQ3NCAyNy44MjU1IDM1LjUyMjUgMjguMjU0QzM1LjY4MjggMjguNTAzOSAzNS43MTAxIDI4LjgxMjkgMzUuNTk3MSAyOS4wODc0TDM1LjU4NiAyOS4xMTQ2QzM1LjQ3MjYgMjkuMzk1NCAzNS4yMzA0IDI5LjYwMSAzNC45MzQyIDI5LjY2MzZDMzQuNDQyNSAyOS43Njc1IDMzLjkzMTggMjkuODc3NCAzMy40MDkgMjkuOTkyOEMzMy4xMTA0IDMwLjA1ODggMzMgMzAuNDExNiAzMyAzMC44MTk0QzMzIDMxLjIyNzEgMzMuMTExNyAzMS41NzU3IDMzLjQwOSAzMS42NDU5QzMzLjkzMzggMzEuNzY5OCAzNC40NDkzIDMxLjg4NjIgMzQuOTQ2OSAzMS45OTQ3QzM1LjIzODcgMzIuMDU4MyAzNS40Nzc3IDMyLjI2IDM1LjU5MTEgMzIuNTM2MkwzNS42MDIyIDMyLjU2MzFDMzUuNzE4NCAzMi44NDEgMzUuNjkxOCAzMy4xNTQ5IDM1LjUyNzUgMzMuNDA3MkMzNS4yNTMzIDMzLjgyODQgMzQuOTcgMzQuMjY3MiAzNC42ODE5IDM0LjcxODVDMzQuNTE3MyAzNC45NzYzIDM0LjY4ODggMzUuMzAzOCAzNC45NzcxIDM1LjU5MjNDMzUuMjY1NSAzNS44ODA1IDM1LjU5MDkgMzYuMDQ4IDM1Ljg1MDggMzUuODg3NEMzNi4zMDkzIDM1LjYwNDIgMzYuNzU1OCAzNS4zMjIgMzcuMTg0NCAzNS4wNDdDMzcuNDM1MSAzNC44ODYxIDM3Ljc0NTIgMzQuODYgMzguMDIwNiAzNC45NzM1TDM4LjAzIDM0Ljk3NzRDMzguMzA3NSAzNS4wOTEgMzguNTEwOSAzNS4zMyAzOC41NzQ4IDM1LjYyM0MzOC42ODMzIDM2LjEyMDUgMzguNzk5NiAzNi42MzU3IDM4LjkyMzUgMzcuMTYwMkMzOC45OTM3IDM3LjQ1NzYgMzkuMzQyMiAzNy41Njk0IDM5Ljc1IDM3LjU2OTRDNDAuMTU3OCAzNy41Njk0IDQwLjUxMDYgMzcuNDU5IDQwLjU3NjUgMzcuMTYwM0M0MC42OTIgMzYuNjM3NSA0MC44MDE5IDM2LjEyNjkgNDAuOTA1OCAzNS42MzUyQzQwLjk2ODQgMzUuMzM4OCA0MS4xNzQgMzUuMDk2OCA0MS40NTQ3IDM0Ljk4MzNMNDEuNDgxOSAzNC45NzIzQzQxLjc1NjQgMzQuODU5MyA0Mi4wNjU1IDM0Ljg4NjUgNDIuMzE1MiAzNS4wNDY5QzQyLjc0MzkgMzUuMzIxOSA0My4xOTA1IDM1LjYwNDIgNDMuNjQ5MSAzNS44ODc1QzQzLjkwOSAzNi4wNDgxIDQ0LjIzNDUgMzUuODgwNiA0NC41MjI5IDM1LjU5MjNDNDQuODExMiAzNS4zMDM5IDQ0Ljk4MjcgMzQuOTc2NCA0NC44MTgxIDM0LjcxODZDNDQuNTMwMSAzNC4yNjczIDQ0LjI0NjYgMzMuODI4NCA0My45NzI1IDMzLjQwNzNDNDMuODA4MiAzMy4xNTUgNDMuNzgxNiAzMi44NDEgNDMuODk3NyAzMi41NjMyTDQzLjkwODkgMzIuNTM2MkM0NC4wMjIyIDMyLjI2MDEgNDQuMjYxMyAzMi4wNTg0IDQ0LjU1MzEgMzEuOTk0N0M0NS4wNTA3IDMxLjg4NjIgNDUuNTY2MiAzMS43Njk4IDQ2LjA5MDkgMzEuNjQ1OUM0Ni4zODgzIDMxLjU3NTcgNDYuNSAzMS4yMjcxIDQ2LjUgMzAuODE5NEM0Ni41IDMwLjQxMTYgNDYuMzg5NyAzMC4wNTg4IDQ2LjA5MSAyOS45OTI4Wk0zOS43NSAzMi45ODA4QzM4LjU1NjMgMzIuOTgwOCAzNy41ODg1IDMyLjAxMzEgMzcuNTg4NSAzMC44MTkzQzM3LjU4ODUgMjkuNjI1NiAzOC41NTYzIDI4LjY1NzggMzkuNzUgMjguNjU3OEM0MC45NDM4IDI4LjY1NzggNDEuOTExNSAyOS42MjU1IDQxLjkxMTUgMzAuODE5M0M0MS45MTE1IDMyLjAxMzEgNDAuOTQzOCAzMi45ODA4IDM5Ljc1IDMyLjk4MDhaIiBjbGlwLXJ1bGU9ImV2ZW5vZGQiIGZpbGwtcnVsZT0iZXZlbm9kZCIvPiYjeGE7PC9zdmc+;" parent="atDbLLzjIxGfExJ--USy-82" vertex="1">
          <mxGeometry x="10.440000000000055" y="10" width="30.61" height="30" as="geometry" />
        </mxCell>
        <mxCell id="atDbLLzjIxGfExJ--USy-85" value="" style="whiteSpace=wrap;html=1;aspect=fixed;strokeColor=none;strokeWidth=2;sketch=1;curveFitting=1;jiggle=2;fillColor=#ffb612;fillStyle=solid;" parent="atDbLLzjIxGfExJ--USy-148" vertex="1">
          <mxGeometry x="58" y="8" width="22" height="22" as="geometry" />
        </mxCell>
        <mxCell id="atDbLLzjIxGfExJ--USy-86" value="" style="group" parent="atDbLLzjIxGfExJ--USy-148" vertex="1" connectable="0">
          <mxGeometry x="60" width="22" height="22" as="geometry" />
        </mxCell>
        <mxCell id="atDbLLzjIxGfExJ--USy-87" value="" style="whiteSpace=wrap;html=1;aspect=fixed;strokeColor=none;strokeWidth=2;sketch=1;curveFitting=1;jiggle=2;fillColor=#8FCAE7;fillStyle=solid;" parent="atDbLLzjIxGfExJ--USy-86" vertex="1">
          <mxGeometry width="22" height="22" as="geometry" />
        </mxCell>
        <mxCell id="atDbLLzjIxGfExJ--USy-88" value="" style="shape=image;verticalLabelPosition=bottom;verticalAlign=top;imageAspect=0;aspect=fixed;image=data:image/svg+xml,PHN2ZyB4bWxucz0iaHR0cDovL3d3dy53My5vcmcvMjAwMC9zdmciIGZpbGw9Im5vbmUiIHZpZXdCb3g9IjYuMDE4Nzk3Mzk3NjEzNTI1IDUuMDAwNDkwMTg4NTk4NjMzIDUwLjk4MzUwMTQzNDMyNjE3IDUzLjg5OTUxMzI0NDYyODkwNiIgaGVpZ2h0PSI1My44OTk1MTMyNDQ2Mjg5MDYiIHdpZHRoPSI1MC45ODM1MDE0MzQzMjYxNyI+JiN4YTs8cGF0aCBmaWxsPSJ3aGl0ZSIgZD0iTTI5LjUzNTkgNTBDMjkuMTg5OCA1MC42NzkgMjguNzk0OCA1MS40MDg4IDI4LjM0MjEgNTIuMTM5N0MyNS45NjIxIDU1Ljk4MjQgMjIuNjU0NCA1Ni44NDAzIDIwLjQwNjMgNTYuMDQ2OUMxOS45MDM0IDU1Ljg2OTQgMjAuMDk4MiA1NS41NjY0IDIwLjA5ODIgNTUuNTY2NEMyMy4xNDgxIDU1LjU2NjQgMjUuMjczNiA1My4xMDQ5IDI3LjAyMzkgNTBDMjcuMzg3MiA0OS4zNTU2IDI3LjczNCA0OC42ODM4IDI4LjA2OTcgNDhINDQuODgzNUM0NC43MDQ0IDQ2Ljc5MyA0NC42MzU1IDQ1LjI2NzggNDQuNjY3MSA0My40Njc0QzQ1LjAxMzUgMzYuMTc5MyA0Ni44ODgyIDI0LjAwNjMgNDguMDg4NyAxOC4wMDI3QzQ4LjQyMSAxNi4zNDExIDQ4LjYxODIgMTMuNzc1OCA0OC4zNTA0IDEyLjA1ODVDNDguMDM0MSAxMC4wMzAxIDQ3LjE5OTYgOC42MzM0OSA0Ni40MTA3IDcuNjcxMzlDNDUuMDE5NiA1Ljk3NDA5IDQzLjAwNTkgNS4wMDA0OSA0MC44ODY4IDUuMDAwNDlIMTQuMDc1OUM5LjE2NjA2IDUuMDAwNDkgNi4zMzkyNiA4LjIyNjk5IDYuMDQ3NzYgMTEuODY0OUM1LjYzMzA2IDE3LjAzMjkgOS43MzczNiAyMC4zMTYxIDE0LjE0OTEgMjEuMDE1OEMxNC40NTk4IDE5LjMxNTcgMTQuNzI0NyAxNy45NDYyIDE0Ljg5NDUgMTcuMDg4N0MxMi45OTM3IDE2LjgwODggOS43NzA2NiAxNS40OCAxMC4wMzUxIDEyLjE4NTJDMTAuMTgyNCAxMC4zNDQgMTEuNzQxMiA4LjkwMjc5IDEzLjU4MzkgOC45MDA0OUgxMy41OTJDMTQuNTIwMiA4LjkwMTU5IDE1LjM4MjIgOS4zMjk3OSAxNi4wMTkgMTAuMTA3MUMxNy4yMTcyIDExLjU2OCAxNy41NCAxNC4wNTczIDE2LjkyODIgMTcuMTE2OUMxNS41NiAyMy45NTc3IDEyLjcyNzEgNDAuMjc4IDEzLjA5MzggNDcuMDA5NUMxMy4yNDYgNDkuNzk4NCAxNC4zMzU0IDU4LjkgMjEuOTY1OCA1OC45SDQ2QzUxLjkzODggNTguOSA1NS4zMzgzIDUzLjY5NjkgNTcuMDAyMyA1MEgyOS41MzU5Wk0yNC45MDM2IDI2LjM3NTNDMjQuMTAzNiAyNi4zNzUzIDIzLjQwMzYgMjcuMDc1MyAyMy40MDM2IDI3Ljg3NTNDMjMuNDAzNiAyOC42NzUzIDI0LjEwMzYgMjkuMzc1MyAyNC45MDM2IDI5LjM3NTNDMjUuNzAzNiAyOS4zNzUzIDI2LjQwMzYgMjguNjc1MyAyNi40MDM2IDI3Ljg3NTNDMjYuNDAzNiAyNy4wNzUzIDI1LjgwMzYgMjYuMzc1MyAyNC45MDM2IDI2LjM3NTNaTTI0LjQxNTEgMjAuOTc1M0MyNC40MTUxIDIwLjE3NTMgMjUuMTE1MSAxOS40NzUzIDI1LjkxNTEgMTkuNDc1M0MyNi44MTUxIDE5LjQ3NTMgMjcuNDE1MSAyMC4xNzUzIDI3LjQxNTEgMjAuOTc1M0MyNy40MTUxIDIxLjc3NTMgMjYuNzE1MSAyMi40NzUzIDI1LjkxNTEgMjIuNDc1M0MyNS4xMTUxIDIyLjQ3NTMgMjQuNDE1MSAyMS43NzUzIDI0LjQxNTEgMjAuOTc1M1pNMjQuMDAzNyAzMy4zNzUzQzIzLjIwMzcgMzMuMzc1MyAyMi41MDM3IDM0LjA3NTMgMjIuNTAzNyAzNC44NzUzQzIyLjUwMzcgMzUuNjc1MyAyMy4yMDM3IDM2LjM3NTMgMjQuMDAzNyAzNi4zNzUzQzI0LjgwMzcgMzYuMzc1MyAyNS41MDM3IDM1LjY3NTMgMjUuNTAzNyAzNC44NzUzQzI1LjUwMzcgMzMuOTc1MyAyNC45MDM3IDMzLjM3NTMgMjQuMDAzNyAzMy4zNzUzWk0yMS45MDM2IDQxLjg3NTNDMjEuOTAzNiA0MS4wNzUzIDIyLjYwMzYgNDAuMzc1MyAyMy40MDM2IDQwLjM3NTNDMjQuMjAzNiA0MC4zNzUzIDI0LjkwMzYgNDEuMDc1MyAyNC45MDM2IDQxLjg3NTNDMjQuOTAzNiA0Mi42NzUzIDI0LjIwMzYgNDMuMzc1MyAyMy40MDM2IDQzLjM3NTNDMjIuNjAzNiA0My4zNzUzIDIxLjkwMzYgNDIuNjc1MyAyMS45MDM2IDQxLjg3NTNaTTI4LjEwMzcgMjkuNDc1M0g0Mi4wMDM3QzQyLjA1MzcgMjguOTc1MyA0Mi4xMjg3IDI4LjQ3NTMgNDIuMjAzNyAyNy45NzUzQzQyLjI3ODcgMjcuNDc1MyA0Mi4zNTM3IDI2Ljk3NTMgNDIuNDAzNyAyNi40NzUzSDI4LjUwMzdDMjguMzAzNyAyNy40NzUzIDI4LjIwMzcgMjguNDc1MyAyOC4xMDM3IDI5LjQ3NTNaTTQzLjE2NjMgMjIuNTc1M0gyOS4xMTMxQzI5LjIwNTMgMjEuNjUzMyAyOS4zOTA0IDIwLjczMTMgMjkuNTc1NCAxOS44MDkzTDI5LjYyMjMgMTkuNTc1M0g0My41OTA3QzQzLjU0MDcgMjAuMDc1MyA0My40NTk2IDIwLjU3NTMgNDMuMzc4NSAyMS4wNzUzQzQzLjI5NzQgMjEuNTc1MyA0My4yMTYzIDIyLjA3NTMgNDMuMTY2MyAyMi41NzUzWk0yNy4yMDM3IDM2LjQ3NTNINDEuMTAzN0w0MS40MDM3IDMzLjQ3NTNIMjcuNjAzN0MyNy40MDM3IDM0LjQ3NTMgMjcuMzAzNyAzNS40NzUzIDI3LjIwMzcgMzYuNDc1M1pNNDAuNjAzNyA0My40NzUzSDI2LjcwMzdDMjYuNzAzNyA0My4wNDc5IDI2LjcyNjIgNDIuNTk3OSAyNi43NDk5IDQyLjEyNTNDMjYuNzc2MSA0MS42MDI5IDI2LjgwMzcgNDEuMDUyOSAyNi44MDM3IDQwLjQ3NTNINDAuODAzN0M0MC43OTQ1IDQwLjU3NjIgNDAuNzg1MyA0MC42NzYyIDQwLjc3NjIgNDAuNzc1NEM0MC42ODYyIDQxLjc1NzkgNDAuNjAzNyA0Mi42NTc5IDQwLjYwMzcgNDMuNDc1M1oiIGNsaXAtcnVsZT0iZXZlbm9kZCIgZmlsbC1ydWxlPSJldmVub2RkIi8+JiN4YTs8L3N2Zz4=;" parent="atDbLLzjIxGfExJ--USy-86" vertex="1">
          <mxGeometry x="3.9200000000000728" y="7" width="14.165999999999999" height="15" as="geometry" />
        </mxCell>
        <mxCell id="atDbLLzjIxGfExJ--USy-149" value="" style="group" parent="atDbLLzjIxGfExJ--USy-155" vertex="1" connectable="0">
          <mxGeometry y="105.25" width="87" height="87.5" as="geometry" />
        </mxCell>
        <mxCell id="atDbLLzjIxGfExJ--USy-90" value="" style="whiteSpace=wrap;html=1;aspect=fixed;strokeColor=none;strokeWidth=2;rounded=1;labelPosition=center;verticalLabelPosition=bottom;align=center;verticalAlign=top;sketch=1;curveFitting=1;jiggle=2;fillColor=#e17000;fillStyle=solid;rotation=-90;" parent="atDbLLzjIxGfExJ--USy-149" vertex="1">
          <mxGeometry y="7.5" width="80" height="80" as="geometry" />
        </mxCell>
        <mxCell id="atDbLLzjIxGfExJ--USy-91" value="" style="group;" parent="atDbLLzjIxGfExJ--USy-149" vertex="1" connectable="0">
          <mxGeometry x="15" y="24.5" width="50" height="50" as="geometry" />
        </mxCell>
        <mxCell id="atDbLLzjIxGfExJ--USy-92" value="" style="points=[[0.145,0.145,0],[0.5,0,0],[0.855,0.145,0],[1,0.5,0],[0.855,0.855,0],[0.5,1,0],[0.145,0.855,0],[0,0.5,0]];shape=mxgraph.bpmn.event;html=1;verticalLabelPosition=bottom;labelBackgroundColor=none;verticalAlign=top;align=center;perimeter=ellipsePerimeter;outlineConnect=0;aspect=fixed;outline=standard;symbol=general;strokeColor=none;strokeWidth=2;fontFamily=Fira Sans;fontSource=https%3A%2F%2Ffonts.googleapis.com%2Fcss%3Ffamily%3DFira%2BSans;fontSize=14;fillColor=#d52b1e;labelPosition=center;spacingLeft=4;" parent="atDbLLzjIxGfExJ--USy-91" vertex="1">
          <mxGeometry width="50" height="50" as="geometry" />
        </mxCell>
        <mxCell id="atDbLLzjIxGfExJ--USy-93" value="" style="shape=image;verticalLabelPosition=bottom;verticalAlign=top;imageAspect=0;aspect=fixed;image=data:image/svg+xml,PHN2ZyB4bWxucz0iaHR0cDovL3d3dy53My5vcmcvMjAwMC9zdmciIGZpbGw9Im5vbmUiIHZpZXdCb3g9IjcuNSA3LjQyNjUwOTg1NzE3NzczNCA1MCA0OC45OTk5ODg1NTU5MDgyIiBoZWlnaHQ9IjQ4Ljk5OTk4ODU1NTkwODIiIHdpZHRoPSI1MCI+JiN4YTs8cGF0aCBmaWxsPSJ3aGl0ZSIgZD0iTTkuNSA3LjQyNjUxSDU1LjVDNTYuNjA0NSA3LjQyNjUxIDU3LjUgOC4zMjIwMSA1Ny41IDkuNDI2NTFWNDQuNDI2NkM1Ny41IDQ1LjUzMTEgNTYuNjA0NSA0Ni40MjY2IDU1LjUgNDYuNDI2NkgzMC4zMzM4QzMwLjI5NjkgNDYuNTEyNSAzMC4yNTc4IDQ2Ljc0NjkgMzAuNTc4MSA0Ni44MDk0QzM1LjE1MjkgNDcuNzAyIDM5LjU1NTMgNDguMzQxNyAzOS41NTUzIDQ4LjM0MTdDMzkuNzk3MyA0OS4xNTU5IDQwLjExMTkgNTAuMTkzNSA0MC41IDUxLjQyNjVDNDEuMDc3OSA1My4yNjM4IDQyLjg3OTEgNTMuNDE4NSA0My4zNjkxIDUzLjQyNjVINDUuNUM0Ni4wNTI3IDUzLjQyNjUgNDYuNSA1My44NzQzIDQ2LjUgNTQuNDI2NVY1Ni40MjY1SDE4LjVWNTQuNDI2NUMxOC41IDUzLjg3NDMgMTguOTQ3MyA1My40MjY1IDE5LjUgNTMuNDI2NUgyMS42MzA5QzIyLjEyMDkgNTMuNDE4NSAyMy45MjIxIDUzLjI2MzggMjQuNSA1MS40MjY1QzI1LjQ2NTggNDguMzU3NyAyNiA0Ni40MTY1IDI2IDQ2LjQxNjVIOS41QzguMzk1NSA0Ni40MTY1IDcuNSA0NS41MjEgNy41IDQ0LjQxNjVWOS40MjY1MUM3LjUgOC4zMjIwMSA4LjM5NTUgNy40MjY1MSA5LjUgNy40MjY1MVpNMTIuNSAzOS40MjY1SDUyLjVWMTIuNDI2NUgxMi41VjM5LjQyNjVaTTMzLjU0NDMgMjEuMjE5NUMzNC4xNDEyIDIxLjM0NTYgMzQuNzYxNCAyMS40NzkyIDM1LjM5NjIgMjEuNjE5M0MzNS43NTg5IDIxLjY5OTMgMzUuODkyOSAyMi4xMjc4IDM1Ljg5MjkgMjIuNjIyOUMzNS44OTI5IDIzLjExODEgMzUuNzU3MiAyMy41NDEzIDM1LjM5NjEgMjMuNjI2NkMzNC43NTkgMjMuNzc3MSAzNC4xMzI5IDIzLjkxODQgMzMuNTI4NyAyNC4wNTAyQzMzLjE3NDQgMjQuMTI3NSAzMi44ODQxIDI0LjM3MjMgMzIuNzQ2NSAyNC43MDc3TDMyLjczMjkgMjQuNzQwNEMzMi41OTE5IDI1LjA3NzggMzIuNjI0MiAyNS40NTkxIDMyLjgyMzcgMjUuNzY1NUMzMy4xNTY2IDI2LjI3NjcgMzMuNTAwOSAyNi44MDk3IDMzLjg1MDYgMjcuMzU3N0MzNC4wNTA0IDI3LjY3MDggMzMuODQyMiAyOC4wNjg1IDMzLjQ5MjEgMjguNDE4N0MzMy4xNDE5IDI4Ljc2ODcgMzIuNzQ2NyAyOC45NzIxIDMyLjQzMTEgMjguNzc3MUMzMS44NzQyIDI4LjQzMzEgMzEuMzMxOSAyOC4wOTAzIDMwLjgxMTQgMjcuNzU2M0MzMC41MDgxIDI3LjU2MTYgMzAuMTMyOCAyNy41Mjg2IDI5Ljc5OTQgMjcuNjY1OEwyOS43NjY1IDI3LjY3OTJDMjkuNDI1NiAyNy44MTcgMjkuMTc1OSAyOC4xMTA5IDI5LjA5OTggMjguNDcwOEMyOC45NzM3IDI5LjA2NzcgMjguODQwMyAyOS42ODc5IDI4LjcwMDEgMzAuMzIyN0MyOC42MiAzMC42ODUzIDI4LjE5MTYgMzAuODE5NCAyNy42OTY0IDMwLjgxOTRDMjcuMjAxMyAzMC44MTk0IDI2Ljc3OCAzMC42ODM3IDI2LjY5MjggMzAuMzIyNUMyNi41NDI0IDI5LjY4NTcgMjYuNDAxMiAyOS4wNiAyNi4yNjk0IDI4LjQ1NTlDMjYuMTkxOCAyOC4xMDAyIDI1Ljk0NDggMjcuODA5OSAyNS42MDc5IDI3LjY3MTlMMjUuNTk2NCAyNy42NjcyQzI1LjI2MiAyNy41Mjk0IDI0Ljg4NTQgMjcuNTYxMSAyNC41ODEgMjcuNzU2NUMyNC4wNjA2IDI4LjA5MDQgMjMuNTE4NSAyOC40MzMxIDIyLjk2MTcgMjguNzc3QzIyLjY0NjEgMjguOTcyIDIyLjI1MDkgMjguNzY4NiAyMS45MDA4IDI4LjQxODZDMjEuNTUwNiAyOC4wNjg0IDIxLjM0MjUgMjcuNjcwNyAyMS41NDIzIDI3LjM1NzZDMjEuODkyMSAyNi44MDk2IDIyLjIzNjIgMjYuMjc2NyAyMi41NjkxIDI1Ljc2NTRDMjIuNzY4NiAyNS40NTkgMjIuODAwOSAyNS4wNzc3IDIyLjY1OTkgMjQuNzQwM0wyMi42NDY0IDI0LjcwNzZDMjIuNTA4NyAyNC4zNzIzIDIyLjIxODQgMjQuMTI3NCAyMS44NjQxIDI0LjA1MDJDMjEuMjU5OCAyMy45MTg0IDIwLjYzMzkgMjMuNzc3MSAxOS45OTY3IDIzLjYyNjZDMTkuNjM1NyAyMy41NDEzIDE5LjUgMjMuMTE4MSAxOS41IDIyLjYyMjlDMTkuNSAyMi4xMjc4IDE5LjYzNCAyMS42OTkzIDE5Ljk5NjcgMjEuNjE5M0MyMC42MzE1IDIxLjQ3OTEgMjEuMjUxNiAyMS4zNDU2IDIxLjg0ODYgMjEuMjE5NUMyMi4yMDg0IDIxLjE0MzQgMjIuNTAyNSAyMC44OTM4IDIyLjY0MDIgMjAuNTUyOEwyMi42NTM2IDIwLjUxOThDMjIuNzkwOCAyMC4xODY1IDIyLjc1NzcgMTkuODExMyAyMi41NjMxIDE5LjUwNzlDMjIuMjI5IDE4Ljk4NzUgMjEuODg2MyAxOC40NDUxIDIxLjU0MjMgMTcuODg4MkMyMS4zNDczIDE3LjU3MjUgMjEuNTUwNiAxNy4xNzc0IDIxLjkwMDggMTYuODI3MkMyMi4yNTA5IDE2LjQ3NzEgMjIuNjQ4NiAxNi4yNjg5IDIyLjk2MTcgMTYuNDY4N0MyMy41MDY0IDE2LjgxNjQgMjQuMDM2MiAxNy4xNTg1IDI0LjU0NDggMTcuNDg5N0MyNC44NTY4IDE3LjY5MjggMjUuMjQ1MSAxNy43MjUyIDI1LjU4OSAxNy41ODIyTDI1LjYwMTkgMTcuNTc2OEMyNS45NDMyIDE3LjQzNiAyNi4xOTI4IDE3LjE0MDggMjYuMjcxNiAxNi43OEMyNi40MDI3IDE2LjE3OSAyNi41NDMxIDE1LjU1NjcgMjYuNjkyOCAxNC45MjMyQzI2Ljc3OCAxNC41NjIyIDI3LjIwMTMgMTQuNDI2NSAyNy42OTY0IDE0LjQyNjVDMjguMTkxNiAxNC40MjY1IDI4LjYyIDE0LjU2MDUgMjguNyAxNC45MjMyQzI4LjgzOTMgMTUuNTU0NCAyOC45NzIxIDE2LjE3MTMgMjkuMDk3NiAxNi43NjUyQzI5LjE3NDggMTcuMTMwMiAyOS40MjcyIDE3LjQyOTEgMjkuNzcyNiAxNy41Njk4TDI5LjgwNyAxNy41ODM5QzMwLjE0OTYgMTcuNzI2MSAzMC41MzY2IDE3LjY5MjUgMzAuODQ3NSAxNy40OUMzMS4zNTYzIDE3LjE1ODggMzEuODg2MiAxNi44MTY1IDMyLjQzMTIgMTYuNDY4N0MzMi43NDQ0IDE2LjI2ODkgMzMuMTQyIDE2LjQ3NzEgMzMuNDkyMiAxNi44MjcyQzMzLjg0MjMgMTcuMTc3NCAzNC4wNDU3IDE3LjU3MjYgMzMuODUwNyAxNy44ODgyQzMzLjUwNjYgMTguNDQ1MSAzMy4xNjM5IDE4Ljk4NzUgMzIuODI5OSAxOS41MDc5QzMyLjYzNTIgMTkuODExMiAzMi42MDIxIDIwLjE4NjYgMzIuNzM5MyAyMC41MTk4TDMyLjc1MjggMjAuNTUyOEMzMi44OTA2IDIwLjg5MzggMzMuMTg0NSAyMS4xNDM0IDMzLjU0NDMgMjEuMjE5NVpNMjUuMDcxNyAyMi42MjI4QzI1LjA3MTcgMjQuMDcyNSAyNi4yNDY5IDI1LjI0NzUgMjcuNjk2NCAyNS4yNDc1QzI5LjE0NiAyNS4yNDc1IDMwLjMyMTEgMjQuMDcyNSAzMC4zMjExIDIyLjYyMjhDMzAuMzIxMSAyMS4xNzMyIDI5LjE0NiAxOS45OTgyIDI3LjY5NjQgMTkuOTk4MkMyNi4yNDY5IDE5Ljk5ODIgMjUuMDcxNyAyMS4xNzMzIDI1LjA3MTcgMjIuNjIyOFpNNDYuMDkxIDI5Ljk5MjhDNDUuNTY4MiAyOS44Nzc1IDQ1LjA1NzUgMjkuNzY3NSA0NC41NjU5IDI5LjY2MzZDNDQuMjY5NiAyOS42MDEgNDQuMDI3NSAyOS4zOTU0IDQzLjkxNCAyOS4xMTQ2TDQzLjkwMjkgMjkuMDg3NEM0My43OSAyOC44MTI5IDQzLjgxNzIgMjguNTAzOCA0My45Nzc2IDI4LjI1NEM0NC4yNTI2IDI3LjgyNTUgNDQuNTM0OSAyNy4zNzg4IDQ0LjgxODIgMjYuOTIwMkM0NC45Nzg4IDI2LjY2MDMgNDQuODExMyAyNi4zMzQ4IDQ0LjUyMyAyNi4wNDY0QzQ0LjIzNDYgMjUuNzU4MSA0My45MDcxIDI1LjU4NjYgNDMuNjQ5MiAyNS43NTExQzQzLjIwMDQgMjYuMDM3NiA0Mi43NjQgMjYuMzE5NSA0Mi4zNDUgMjYuNTkyMkM0Mi4wODkgMjYuNzU5IDQxLjc3MDIgMjYuNzg2NyA0MS40ODgxIDI2LjY2OTVMNDEuNDU5OCAyNi42NThDNDEuMTc1NCAyNi41NDIxIDQwLjk2NzUgMjYuMjk1OSA0MC45MDM5IDI1Ljk5NTNDNDAuODAwNSAyNS41MDYyIDQwLjY5MTIgMjQuOTk4MiA0MC41NzY0IDI0LjQ3ODRDNDAuNTEwNiAyNC4xNzk3IDQwLjE1NzggMjQuMDY5NCAzOS43NSAyNC4wNjk0QzM5LjM0MjIgMjQuMDY5NCAzOC45OTM3IDI0LjE4MTEgMzguOTIzNSAyNC40Nzg0QzM4LjgwMDIgMjUuMDAwMSAzOC42ODQ2IDI1LjUxMjYgMzguNTc2NiAyNi4wMDc2QzM4LjUxMTcgMjYuMzA0NiAzOC4zMDYxIDI2LjU0NzcgMzguMDI1MSAyNi42NjM3TDM4LjAxNDUgMjYuNjY4MkMzNy43MzEzIDI2Ljc4NiAzNy40MTE1IDI2Ljc1OTMgMzcuMTU0NSAyNi41OTJDMzYuNzM1NyAyNi4zMTkzIDM2LjI5OTQgMjYuMDM3NSAzNS44NTA4IDI1Ljc1MTFDMzUuNTkzIDI1LjU4NjYgMzUuMjY1NSAyNS43NTgxIDM0Ljk3NzEgMjYuMDQ2NEMzNC42ODg4IDI2LjMzNDggMzQuNTIxMyAyNi42NjAyIDM0LjY4MTkgMjYuOTIwMkMzNC45NjUyIDI3LjM3ODggMzUuMjQ3NCAyNy44MjU1IDM1LjUyMjUgMjguMjU0QzM1LjY4MjggMjguNTAzOSAzNS43MTAxIDI4LjgxMjkgMzUuNTk3MSAyOS4wODc0TDM1LjU4NiAyOS4xMTQ2QzM1LjQ3MjYgMjkuMzk1NCAzNS4yMzA0IDI5LjYwMSAzNC45MzQyIDI5LjY2MzZDMzQuNDQyNSAyOS43Njc1IDMzLjkzMTggMjkuODc3NCAzMy40MDkgMjkuOTkyOEMzMy4xMTA0IDMwLjA1ODggMzMgMzAuNDExNiAzMyAzMC44MTk0QzMzIDMxLjIyNzEgMzMuMTExNyAzMS41NzU3IDMzLjQwOSAzMS42NDU5QzMzLjkzMzggMzEuNzY5OCAzNC40NDkzIDMxLjg4NjIgMzQuOTQ2OSAzMS45OTQ3QzM1LjIzODcgMzIuMDU4MyAzNS40Nzc3IDMyLjI2IDM1LjU5MTEgMzIuNTM2MkwzNS42MDIyIDMyLjU2MzFDMzUuNzE4NCAzMi44NDEgMzUuNjkxOCAzMy4xNTQ5IDM1LjUyNzUgMzMuNDA3MkMzNS4yNTMzIDMzLjgyODQgMzQuOTcgMzQuMjY3MiAzNC42ODE5IDM0LjcxODVDMzQuNTE3MyAzNC45NzYzIDM0LjY4ODggMzUuMzAzOCAzNC45NzcxIDM1LjU5MjNDMzUuMjY1NSAzNS44ODA1IDM1LjU5MDkgMzYuMDQ4IDM1Ljg1MDggMzUuODg3NEMzNi4zMDkzIDM1LjYwNDIgMzYuNzU1OCAzNS4zMjIgMzcuMTg0NCAzNS4wNDdDMzcuNDM1MSAzNC44ODYxIDM3Ljc0NTIgMzQuODYgMzguMDIwNiAzNC45NzM1TDM4LjAzIDM0Ljk3NzRDMzguMzA3NSAzNS4wOTEgMzguNTEwOSAzNS4zMyAzOC41NzQ4IDM1LjYyM0MzOC42ODMzIDM2LjEyMDUgMzguNzk5NiAzNi42MzU3IDM4LjkyMzUgMzcuMTYwMkMzOC45OTM3IDM3LjQ1NzYgMzkuMzQyMiAzNy41Njk0IDM5Ljc1IDM3LjU2OTRDNDAuMTU3OCAzNy41Njk0IDQwLjUxMDYgMzcuNDU5IDQwLjU3NjUgMzcuMTYwM0M0MC42OTIgMzYuNjM3NSA0MC44MDE5IDM2LjEyNjkgNDAuOTA1OCAzNS42MzUyQzQwLjk2ODQgMzUuMzM4OCA0MS4xNzQgMzUuMDk2OCA0MS40NTQ3IDM0Ljk4MzNMNDEuNDgxOSAzNC45NzIzQzQxLjc1NjQgMzQuODU5MyA0Mi4wNjU1IDM0Ljg4NjUgNDIuMzE1MiAzNS4wNDY5QzQyLjc0MzkgMzUuMzIxOSA0My4xOTA1IDM1LjYwNDIgNDMuNjQ5MSAzNS44ODc1QzQzLjkwOSAzNi4wNDgxIDQ0LjIzNDUgMzUuODgwNiA0NC41MjI5IDM1LjU5MjNDNDQuODExMiAzNS4zMDM5IDQ0Ljk4MjcgMzQuOTc2NCA0NC44MTgxIDM0LjcxODZDNDQuNTMwMSAzNC4yNjczIDQ0LjI0NjYgMzMuODI4NCA0My45NzI1IDMzLjQwNzNDNDMuODA4MiAzMy4xNTUgNDMuNzgxNiAzMi44NDEgNDMuODk3NyAzMi41NjMyTDQzLjkwODkgMzIuNTM2MkM0NC4wMjIyIDMyLjI2MDEgNDQuMjYxMyAzMi4wNTg0IDQ0LjU1MzEgMzEuOTk0N0M0NS4wNTA3IDMxLjg4NjIgNDUuNTY2MiAzMS43Njk4IDQ2LjA5MDkgMzEuNjQ1OUM0Ni4zODgzIDMxLjU3NTcgNDYuNSAzMS4yMjcxIDQ2LjUgMzAuODE5NEM0Ni41IDMwLjQxMTYgNDYuMzg5NyAzMC4wNTg4IDQ2LjA5MSAyOS45OTI4Wk0zOS43NSAzMi45ODA4QzM4LjU1NjMgMzIuOTgwOCAzNy41ODg1IDMyLjAxMzEgMzcuNTg4NSAzMC44MTkzQzM3LjU4ODUgMjkuNjI1NiAzOC41NTYzIDI4LjY1NzggMzkuNzUgMjguNjU3OEM0MC45NDM4IDI4LjY1NzggNDEuOTExNSAyOS42MjU1IDQxLjkxMTUgMzAuODE5M0M0MS45MTE1IDMyLjAxMzEgNDAuOTQzOCAzMi45ODA4IDM5Ljc1IDMyLjk4MDhaIiBjbGlwLXJ1bGU9ImV2ZW5vZGQiIGZpbGwtcnVsZT0iZXZlbm9kZCIvPiYjeGE7PC9zdmc+;" parent="atDbLLzjIxGfExJ--USy-91" vertex="1">
          <mxGeometry x="10.440000000000055" y="10" width="30.61" height="30" as="geometry" />
        </mxCell>
        <mxCell id="atDbLLzjIxGfExJ--USy-95" value="" style="whiteSpace=wrap;html=1;aspect=fixed;strokeColor=none;strokeWidth=2;sketch=1;curveFitting=1;jiggle=2;fillColor=#ffb612;fillStyle=solid;" parent="atDbLLzjIxGfExJ--USy-149" vertex="1">
          <mxGeometry x="60" y="4" width="22" height="22" as="geometry" />
        </mxCell>
        <mxCell id="atDbLLzjIxGfExJ--USy-96" value="" style="group" parent="atDbLLzjIxGfExJ--USy-149" vertex="1" connectable="0">
          <mxGeometry x="65" width="22" height="24.5" as="geometry" />
        </mxCell>
        <mxCell id="atDbLLzjIxGfExJ--USy-97" value="" style="whiteSpace=wrap;html=1;aspect=fixed;strokeColor=none;strokeWidth=2;sketch=1;curveFitting=1;jiggle=2;fillColor=#E17000;fillStyle=solid;" parent="atDbLLzjIxGfExJ--USy-96" vertex="1">
          <mxGeometry width="22" height="22" as="geometry" />
        </mxCell>
        <mxCell id="atDbLLzjIxGfExJ--USy-119" value="" style="shape=image;verticalLabelPosition=bottom;verticalAlign=top;imageAspect=0;aspect=fixed;image=data:image/svg+xml,PHN2ZyB4bWxucz0iaHR0cDovL3d3dy53My5vcmcvMjAwMC9zdmciIGZpbGw9Im5vbmUiIHZpZXdCb3g9IjYuMDE4Nzk3Mzk3NjEzNTI1IDUuMDAwNDkwMTg4NTk4NjMzIDUwLjk4MzUwMTQzNDMyNjE3IDUzLjg5OTUxMzI0NDYyODkwNiIgaGVpZ2h0PSI1My44OTk1MTMyNDQ2Mjg5MDYiIHdpZHRoPSI1MC45ODM1MDE0MzQzMjYxNyI+JiN4YTs8cGF0aCBmaWxsPSJ3aGl0ZSIgZD0iTTI5LjUzNTkgNTBDMjkuMTg5OCA1MC42NzkgMjguNzk0OCA1MS40MDg4IDI4LjM0MjEgNTIuMTM5N0MyNS45NjIxIDU1Ljk4MjQgMjIuNjU0NCA1Ni44NDAzIDIwLjQwNjMgNTYuMDQ2OUMxOS45MDM0IDU1Ljg2OTQgMjAuMDk4MiA1NS41NjY0IDIwLjA5ODIgNTUuNTY2NEMyMy4xNDgxIDU1LjU2NjQgMjUuMjczNiA1My4xMDQ5IDI3LjAyMzkgNTBDMjcuMzg3MiA0OS4zNTU2IDI3LjczNCA0OC42ODM4IDI4LjA2OTcgNDhINDQuODgzNUM0NC43MDQ0IDQ2Ljc5MyA0NC42MzU1IDQ1LjI2NzggNDQuNjY3MSA0My40Njc0QzQ1LjAxMzUgMzYuMTc5MyA0Ni44ODgyIDI0LjAwNjMgNDguMDg4NyAxOC4wMDI3QzQ4LjQyMSAxNi4zNDExIDQ4LjYxODIgMTMuNzc1OCA0OC4zNTA0IDEyLjA1ODVDNDguMDM0MSAxMC4wMzAxIDQ3LjE5OTYgOC42MzM0OSA0Ni40MTA3IDcuNjcxMzlDNDUuMDE5NiA1Ljk3NDA5IDQzLjAwNTkgNS4wMDA0OSA0MC44ODY4IDUuMDAwNDlIMTQuMDc1OUM5LjE2NjA2IDUuMDAwNDkgNi4zMzkyNiA4LjIyNjk5IDYuMDQ3NzYgMTEuODY0OUM1LjYzMzA2IDE3LjAzMjkgOS43MzczNiAyMC4zMTYxIDE0LjE0OTEgMjEuMDE1OEMxNC40NTk4IDE5LjMxNTcgMTQuNzI0NyAxNy45NDYyIDE0Ljg5NDUgMTcuMDg4N0MxMi45OTM3IDE2LjgwODggOS43NzA2NiAxNS40OCAxMC4wMzUxIDEyLjE4NTJDMTAuMTgyNCAxMC4zNDQgMTEuNzQxMiA4LjkwMjc5IDEzLjU4MzkgOC45MDA0OUgxMy41OTJDMTQuNTIwMiA4LjkwMTU5IDE1LjM4MjIgOS4zMjk3OSAxNi4wMTkgMTAuMTA3MUMxNy4yMTcyIDExLjU2OCAxNy41NCAxNC4wNTczIDE2LjkyODIgMTcuMTE2OUMxNS41NiAyMy45NTc3IDEyLjcyNzEgNDAuMjc4IDEzLjA5MzggNDcuMDA5NUMxMy4yNDYgNDkuNzk4NCAxNC4zMzU0IDU4LjkgMjEuOTY1OCA1OC45SDQ2QzUxLjkzODggNTguOSA1NS4zMzgzIDUzLjY5NjkgNTcuMDAyMyA1MEgyOS41MzU5Wk0yNC45MDM2IDI2LjM3NTNDMjQuMTAzNiAyNi4zNzUzIDIzLjQwMzYgMjcuMDc1MyAyMy40MDM2IDI3Ljg3NTNDMjMuNDAzNiAyOC42NzUzIDI0LjEwMzYgMjkuMzc1MyAyNC45MDM2IDI5LjM3NTNDMjUuNzAzNiAyOS4zNzUzIDI2LjQwMzYgMjguNjc1MyAyNi40MDM2IDI3Ljg3NTNDMjYuNDAzNiAyNy4wNzUzIDI1LjgwMzYgMjYuMzc1MyAyNC45MDM2IDI2LjM3NTNaTTI0LjQxNTEgMjAuOTc1M0MyNC40MTUxIDIwLjE3NTMgMjUuMTE1MSAxOS40NzUzIDI1LjkxNTEgMTkuNDc1M0MyNi44MTUxIDE5LjQ3NTMgMjcuNDE1MSAyMC4xNzUzIDI3LjQxNTEgMjAuOTc1M0MyNy40MTUxIDIxLjc3NTMgMjYuNzE1MSAyMi40NzUzIDI1LjkxNTEgMjIuNDc1M0MyNS4xMTUxIDIyLjQ3NTMgMjQuNDE1MSAyMS43NzUzIDI0LjQxNTEgMjAuOTc1M1pNMjQuMDAzNyAzMy4zNzUzQzIzLjIwMzcgMzMuMzc1MyAyMi41MDM3IDM0LjA3NTMgMjIuNTAzNyAzNC44NzUzQzIyLjUwMzcgMzUuNjc1MyAyMy4yMDM3IDM2LjM3NTMgMjQuMDAzNyAzNi4zNzUzQzI0LjgwMzcgMzYuMzc1MyAyNS41MDM3IDM1LjY3NTMgMjUuNTAzNyAzNC44NzUzQzI1LjUwMzcgMzMuOTc1MyAyNC45MDM3IDMzLjM3NTMgMjQuMDAzNyAzMy4zNzUzWk0yMS45MDM2IDQxLjg3NTNDMjEuOTAzNiA0MS4wNzUzIDIyLjYwMzYgNDAuMzc1MyAyMy40MDM2IDQwLjM3NTNDMjQuMjAzNiA0MC4zNzUzIDI0LjkwMzYgNDEuMDc1MyAyNC45MDM2IDQxLjg3NTNDMjQuOTAzNiA0Mi42NzUzIDI0LjIwMzYgNDMuMzc1MyAyMy40MDM2IDQzLjM3NTNDMjIuNjAzNiA0My4zNzUzIDIxLjkwMzYgNDIuNjc1MyAyMS45MDM2IDQxLjg3NTNaTTI4LjEwMzcgMjkuNDc1M0g0Mi4wMDM3QzQyLjA1MzcgMjguOTc1MyA0Mi4xMjg3IDI4LjQ3NTMgNDIuMjAzNyAyNy45NzUzQzQyLjI3ODcgMjcuNDc1MyA0Mi4zNTM3IDI2Ljk3NTMgNDIuNDAzNyAyNi40NzUzSDI4LjUwMzdDMjguMzAzNyAyNy40NzUzIDI4LjIwMzcgMjguNDc1MyAyOC4xMDM3IDI5LjQ3NTNaTTQzLjE2NjMgMjIuNTc1M0gyOS4xMTMxQzI5LjIwNTMgMjEuNjUzMyAyOS4zOTA0IDIwLjczMTMgMjkuNTc1NCAxOS44MDkzTDI5LjYyMjMgMTkuNTc1M0g0My41OTA3QzQzLjU0MDcgMjAuMDc1MyA0My40NTk2IDIwLjU3NTMgNDMuMzc4NSAyMS4wNzUzQzQzLjI5NzQgMjEuNTc1MyA0My4yMTYzIDIyLjA3NTMgNDMuMTY2MyAyMi41NzUzWk0yNy4yMDM3IDM2LjQ3NTNINDEuMTAzN0w0MS40MDM3IDMzLjQ3NTNIMjcuNjAzN0MyNy40MDM3IDM0LjQ3NTMgMjcuMzAzNyAzNS40NzUzIDI3LjIwMzcgMzYuNDc1M1pNNDAuNjAzNyA0My40NzUzSDI2LjcwMzdDMjYuNzAzNyA0My4wNDc5IDI2LjcyNjIgNDIuNTk3OSAyNi43NDk5IDQyLjEyNTNDMjYuNzc2MSA0MS42MDI5IDI2LjgwMzcgNDEuMDUyOSAyNi44MDM3IDQwLjQ3NTNINDAuODAzN0M0MC43OTQ1IDQwLjU3NjIgNDAuNzg1MyA0MC42NzYyIDQwLjc3NjIgNDAuNzc1NEM0MC42ODYyIDQxLjc1NzkgNDAuNjAzNyA0Mi42NTc5IDQwLjYwMzcgNDMuNDc1M1oiIGNsaXAtcnVsZT0iZXZlbm9kZCIgZmlsbC1ydWxlPSJldmVub2RkIi8+JiN4YTs8L3N2Zz4=;" parent="atDbLLzjIxGfExJ--USy-96" vertex="1">
          <mxGeometry x="4.170000000000016" y="1.75" width="14.165999999999999" height="15" as="geometry" />
        </mxCell>
        <mxCell id="atDbLLzjIxGfExJ--USy-101" value="" style="group;" parent="atDbLLzjIxGfExJ--USy-155" vertex="1" connectable="0">
          <mxGeometry x="16.230000000000004" y="25" width="50" height="50" as="geometry" />
        </mxCell>
        <mxCell id="atDbLLzjIxGfExJ--USy-102" value="" style="points=[[0.145,0.145,0],[0.5,0,0],[0.855,0.145,0],[1,0.5,0],[0.855,0.855,0],[0.5,1,0],[0.145,0.855,0],[0,0.5,0]];shape=mxgraph.bpmn.event;html=1;verticalLabelPosition=bottom;labelBackgroundColor=none;verticalAlign=top;align=center;perimeter=ellipsePerimeter;outlineConnect=0;aspect=fixed;outline=standard;symbol=general;strokeColor=none;strokeWidth=2;fontFamily=Fira Sans;fontSource=https%3A%2F%2Ffonts.googleapis.com%2Fcss%3Ffamily%3DFira%2BSans;fontSize=14;fillColor=#d52b1e;labelPosition=center;spacingLeft=4;" parent="atDbLLzjIxGfExJ--USy-101" vertex="1">
          <mxGeometry width="50" height="50" as="geometry" />
        </mxCell>
        <mxCell id="atDbLLzjIxGfExJ--USy-103" value="" style="shape=image;verticalLabelPosition=bottom;verticalAlign=top;imageAspect=0;aspect=fixed;image=data:image/svg+xml,PHN2ZyB4bWxucz0iaHR0cDovL3d3dy53My5vcmcvMjAwMC9zdmciIGZpbGw9Im5vbmUiIHZpZXdCb3g9IjcuNSA3LjQyNjUwOTg1NzE3NzczNCA1MCA0OC45OTk5ODg1NTU5MDgyIiBoZWlnaHQ9IjQ4Ljk5OTk4ODU1NTkwODIiIHdpZHRoPSI1MCI+JiN4YTs8cGF0aCBmaWxsPSJ3aGl0ZSIgZD0iTTkuNSA3LjQyNjUxSDU1LjVDNTYuNjA0NSA3LjQyNjUxIDU3LjUgOC4zMjIwMSA1Ny41IDkuNDI2NTFWNDQuNDI2NkM1Ny41IDQ1LjUzMTEgNTYuNjA0NSA0Ni40MjY2IDU1LjUgNDYuNDI2NkgzMC4zMzM4QzMwLjI5NjkgNDYuNTEyNSAzMC4yNTc4IDQ2Ljc0NjkgMzAuNTc4MSA0Ni44MDk0QzM1LjE1MjkgNDcuNzAyIDM5LjU1NTMgNDguMzQxNyAzOS41NTUzIDQ4LjM0MTdDMzkuNzk3MyA0OS4xNTU5IDQwLjExMTkgNTAuMTkzNSA0MC41IDUxLjQyNjVDNDEuMDc3OSA1My4yNjM4IDQyLjg3OTEgNTMuNDE4NSA0My4zNjkxIDUzLjQyNjVINDUuNUM0Ni4wNTI3IDUzLjQyNjUgNDYuNSA1My44NzQzIDQ2LjUgNTQuNDI2NVY1Ni40MjY1SDE4LjVWNTQuNDI2NUMxOC41IDUzLjg3NDMgMTguOTQ3MyA1My40MjY1IDE5LjUgNTMuNDI2NUgyMS42MzA5QzIyLjEyMDkgNTMuNDE4NSAyMy45MjIxIDUzLjI2MzggMjQuNSA1MS40MjY1QzI1LjQ2NTggNDguMzU3NyAyNiA0Ni40MTY1IDI2IDQ2LjQxNjVIOS41QzguMzk1NSA0Ni40MTY1IDcuNSA0NS41MjEgNy41IDQ0LjQxNjVWOS40MjY1MUM3LjUgOC4zMjIwMSA4LjM5NTUgNy40MjY1MSA5LjUgNy40MjY1MVpNMTIuNSAzOS40MjY1SDUyLjVWMTIuNDI2NUgxMi41VjM5LjQyNjVaTTMzLjU0NDMgMjEuMjE5NUMzNC4xNDEyIDIxLjM0NTYgMzQuNzYxNCAyMS40NzkyIDM1LjM5NjIgMjEuNjE5M0MzNS43NTg5IDIxLjY5OTMgMzUuODkyOSAyMi4xMjc4IDM1Ljg5MjkgMjIuNjIyOUMzNS44OTI5IDIzLjExODEgMzUuNzU3MiAyMy41NDEzIDM1LjM5NjEgMjMuNjI2NkMzNC43NTkgMjMuNzc3MSAzNC4xMzI5IDIzLjkxODQgMzMuNTI4NyAyNC4wNTAyQzMzLjE3NDQgMjQuMTI3NSAzMi44ODQxIDI0LjM3MjMgMzIuNzQ2NSAyNC43MDc3TDMyLjczMjkgMjQuNzQwNEMzMi41OTE5IDI1LjA3NzggMzIuNjI0MiAyNS40NTkxIDMyLjgyMzcgMjUuNzY1NUMzMy4xNTY2IDI2LjI3NjcgMzMuNTAwOSAyNi44MDk3IDMzLjg1MDYgMjcuMzU3N0MzNC4wNTA0IDI3LjY3MDggMzMuODQyMiAyOC4wNjg1IDMzLjQ5MjEgMjguNDE4N0MzMy4xNDE5IDI4Ljc2ODcgMzIuNzQ2NyAyOC45NzIxIDMyLjQzMTEgMjguNzc3MUMzMS44NzQyIDI4LjQzMzEgMzEuMzMxOSAyOC4wOTAzIDMwLjgxMTQgMjcuNzU2M0MzMC41MDgxIDI3LjU2MTYgMzAuMTMyOCAyNy41Mjg2IDI5Ljc5OTQgMjcuNjY1OEwyOS43NjY1IDI3LjY3OTJDMjkuNDI1NiAyNy44MTcgMjkuMTc1OSAyOC4xMTA5IDI5LjA5OTggMjguNDcwOEMyOC45NzM3IDI5LjA2NzcgMjguODQwMyAyOS42ODc5IDI4LjcwMDEgMzAuMzIyN0MyOC42MiAzMC42ODUzIDI4LjE5MTYgMzAuODE5NCAyNy42OTY0IDMwLjgxOTRDMjcuMjAxMyAzMC44MTk0IDI2Ljc3OCAzMC42ODM3IDI2LjY5MjggMzAuMzIyNUMyNi41NDI0IDI5LjY4NTcgMjYuNDAxMiAyOS4wNiAyNi4yNjk0IDI4LjQ1NTlDMjYuMTkxOCAyOC4xMDAyIDI1Ljk0NDggMjcuODA5OSAyNS42MDc5IDI3LjY3MTlMMjUuNTk2NCAyNy42NjcyQzI1LjI2MiAyNy41Mjk0IDI0Ljg4NTQgMjcuNTYxMSAyNC41ODEgMjcuNzU2NUMyNC4wNjA2IDI4LjA5MDQgMjMuNTE4NSAyOC40MzMxIDIyLjk2MTcgMjguNzc3QzIyLjY0NjEgMjguOTcyIDIyLjI1MDkgMjguNzY4NiAyMS45MDA4IDI4LjQxODZDMjEuNTUwNiAyOC4wNjg0IDIxLjM0MjUgMjcuNjcwNyAyMS41NDIzIDI3LjM1NzZDMjEuODkyMSAyNi44MDk2IDIyLjIzNjIgMjYuMjc2NyAyMi41NjkxIDI1Ljc2NTRDMjIuNzY4NiAyNS40NTkgMjIuODAwOSAyNS4wNzc3IDIyLjY1OTkgMjQuNzQwM0wyMi42NDY0IDI0LjcwNzZDMjIuNTA4NyAyNC4zNzIzIDIyLjIxODQgMjQuMTI3NCAyMS44NjQxIDI0LjA1MDJDMjEuMjU5OCAyMy45MTg0IDIwLjYzMzkgMjMuNzc3MSAxOS45OTY3IDIzLjYyNjZDMTkuNjM1NyAyMy41NDEzIDE5LjUgMjMuMTE4MSAxOS41IDIyLjYyMjlDMTkuNSAyMi4xMjc4IDE5LjYzNCAyMS42OTkzIDE5Ljk5NjcgMjEuNjE5M0MyMC42MzE1IDIxLjQ3OTEgMjEuMjUxNiAyMS4zNDU2IDIxLjg0ODYgMjEuMjE5NUMyMi4yMDg0IDIxLjE0MzQgMjIuNTAyNSAyMC44OTM4IDIyLjY0MDIgMjAuNTUyOEwyMi42NTM2IDIwLjUxOThDMjIuNzkwOCAyMC4xODY1IDIyLjc1NzcgMTkuODExMyAyMi41NjMxIDE5LjUwNzlDMjIuMjI5IDE4Ljk4NzUgMjEuODg2MyAxOC40NDUxIDIxLjU0MjMgMTcuODg4MkMyMS4zNDczIDE3LjU3MjUgMjEuNTUwNiAxNy4xNzc0IDIxLjkwMDggMTYuODI3MkMyMi4yNTA5IDE2LjQ3NzEgMjIuNjQ4NiAxNi4yNjg5IDIyLjk2MTcgMTYuNDY4N0MyMy41MDY0IDE2LjgxNjQgMjQuMDM2MiAxNy4xNTg1IDI0LjU0NDggMTcuNDg5N0MyNC44NTY4IDE3LjY5MjggMjUuMjQ1MSAxNy43MjUyIDI1LjU4OSAxNy41ODIyTDI1LjYwMTkgMTcuNTc2OEMyNS45NDMyIDE3LjQzNiAyNi4xOTI4IDE3LjE0MDggMjYuMjcxNiAxNi43OEMyNi40MDI3IDE2LjE3OSAyNi41NDMxIDE1LjU1NjcgMjYuNjkyOCAxNC45MjMyQzI2Ljc3OCAxNC41NjIyIDI3LjIwMTMgMTQuNDI2NSAyNy42OTY0IDE0LjQyNjVDMjguMTkxNiAxNC40MjY1IDI4LjYyIDE0LjU2MDUgMjguNyAxNC45MjMyQzI4LjgzOTMgMTUuNTU0NCAyOC45NzIxIDE2LjE3MTMgMjkuMDk3NiAxNi43NjUyQzI5LjE3NDggMTcuMTMwMiAyOS40MjcyIDE3LjQyOTEgMjkuNzcyNiAxNy41Njk4TDI5LjgwNyAxNy41ODM5QzMwLjE0OTYgMTcuNzI2MSAzMC41MzY2IDE3LjY5MjUgMzAuODQ3NSAxNy40OUMzMS4zNTYzIDE3LjE1ODggMzEuODg2MiAxNi44MTY1IDMyLjQzMTIgMTYuNDY4N0MzMi43NDQ0IDE2LjI2ODkgMzMuMTQyIDE2LjQ3NzEgMzMuNDkyMiAxNi44MjcyQzMzLjg0MjMgMTcuMTc3NCAzNC4wNDU3IDE3LjU3MjYgMzMuODUwNyAxNy44ODgyQzMzLjUwNjYgMTguNDQ1MSAzMy4xNjM5IDE4Ljk4NzUgMzIuODI5OSAxOS41MDc5QzMyLjYzNTIgMTkuODExMiAzMi42MDIxIDIwLjE4NjYgMzIuNzM5MyAyMC41MTk4TDMyLjc1MjggMjAuNTUyOEMzMi44OTA2IDIwLjg5MzggMzMuMTg0NSAyMS4xNDM0IDMzLjU0NDMgMjEuMjE5NVpNMjUuMDcxNyAyMi42MjI4QzI1LjA3MTcgMjQuMDcyNSAyNi4yNDY5IDI1LjI0NzUgMjcuNjk2NCAyNS4yNDc1QzI5LjE0NiAyNS4yNDc1IDMwLjMyMTEgMjQuMDcyNSAzMC4zMjExIDIyLjYyMjhDMzAuMzIxMSAyMS4xNzMyIDI5LjE0NiAxOS45OTgyIDI3LjY5NjQgMTkuOTk4MkMyNi4yNDY5IDE5Ljk5ODIgMjUuMDcxNyAyMS4xNzMzIDI1LjA3MTcgMjIuNjIyOFpNNDYuMDkxIDI5Ljk5MjhDNDUuNTY4MiAyOS44Nzc1IDQ1LjA1NzUgMjkuNzY3NSA0NC41NjU5IDI5LjY2MzZDNDQuMjY5NiAyOS42MDEgNDQuMDI3NSAyOS4zOTU0IDQzLjkxNCAyOS4xMTQ2TDQzLjkwMjkgMjkuMDg3NEM0My43OSAyOC44MTI5IDQzLjgxNzIgMjguNTAzOCA0My45Nzc2IDI4LjI1NEM0NC4yNTI2IDI3LjgyNTUgNDQuNTM0OSAyNy4zNzg4IDQ0LjgxODIgMjYuOTIwMkM0NC45Nzg4IDI2LjY2MDMgNDQuODExMyAyNi4zMzQ4IDQ0LjUyMyAyNi4wNDY0QzQ0LjIzNDYgMjUuNzU4MSA0My45MDcxIDI1LjU4NjYgNDMuNjQ5MiAyNS43NTExQzQzLjIwMDQgMjYuMDM3NiA0Mi43NjQgMjYuMzE5NSA0Mi4zNDUgMjYuNTkyMkM0Mi4wODkgMjYuNzU5IDQxLjc3MDIgMjYuNzg2NyA0MS40ODgxIDI2LjY2OTVMNDEuNDU5OCAyNi42NThDNDEuMTc1NCAyNi41NDIxIDQwLjk2NzUgMjYuMjk1OSA0MC45MDM5IDI1Ljk5NTNDNDAuODAwNSAyNS41MDYyIDQwLjY5MTIgMjQuOTk4MiA0MC41NzY0IDI0LjQ3ODRDNDAuNTEwNiAyNC4xNzk3IDQwLjE1NzggMjQuMDY5NCAzOS43NSAyNC4wNjk0QzM5LjM0MjIgMjQuMDY5NCAzOC45OTM3IDI0LjE4MTEgMzguOTIzNSAyNC40Nzg0QzM4LjgwMDIgMjUuMDAwMSAzOC42ODQ2IDI1LjUxMjYgMzguNTc2NiAyNi4wMDc2QzM4LjUxMTcgMjYuMzA0NiAzOC4zMDYxIDI2LjU0NzcgMzguMDI1MSAyNi42NjM3TDM4LjAxNDUgMjYuNjY4MkMzNy43MzEzIDI2Ljc4NiAzNy40MTE1IDI2Ljc1OTMgMzcuMTU0NSAyNi41OTJDMzYuNzM1NyAyNi4zMTkzIDM2LjI5OTQgMjYuMDM3NSAzNS44NTA4IDI1Ljc1MTFDMzUuNTkzIDI1LjU4NjYgMzUuMjY1NSAyNS43NTgxIDM0Ljk3NzEgMjYuMDQ2NEMzNC42ODg4IDI2LjMzNDggMzQuNTIxMyAyNi42NjAyIDM0LjY4MTkgMjYuOTIwMkMzNC45NjUyIDI3LjM3ODggMzUuMjQ3NCAyNy44MjU1IDM1LjUyMjUgMjguMjU0QzM1LjY4MjggMjguNTAzOSAzNS43MTAxIDI4LjgxMjkgMzUuNTk3MSAyOS4wODc0TDM1LjU4NiAyOS4xMTQ2QzM1LjQ3MjYgMjkuMzk1NCAzNS4yMzA0IDI5LjYwMSAzNC45MzQyIDI5LjY2MzZDMzQuNDQyNSAyOS43Njc1IDMzLjkzMTggMjkuODc3NCAzMy40MDkgMjkuOTkyOEMzMy4xMTA0IDMwLjA1ODggMzMgMzAuNDExNiAzMyAzMC44MTk0QzMzIDMxLjIyNzEgMzMuMTExNyAzMS41NzU3IDMzLjQwOSAzMS42NDU5QzMzLjkzMzggMzEuNzY5OCAzNC40NDkzIDMxLjg4NjIgMzQuOTQ2OSAzMS45OTQ3QzM1LjIzODcgMzIuMDU4MyAzNS40Nzc3IDMyLjI2IDM1LjU5MTEgMzIuNTM2MkwzNS42MDIyIDMyLjU2MzFDMzUuNzE4NCAzMi44NDEgMzUuNjkxOCAzMy4xNTQ5IDM1LjUyNzUgMzMuNDA3MkMzNS4yNTMzIDMzLjgyODQgMzQuOTcgMzQuMjY3MiAzNC42ODE5IDM0LjcxODVDMzQuNTE3MyAzNC45NzYzIDM0LjY4ODggMzUuMzAzOCAzNC45NzcxIDM1LjU5MjNDMzUuMjY1NSAzNS44ODA1IDM1LjU5MDkgMzYuMDQ4IDM1Ljg1MDggMzUuODg3NEMzNi4zMDkzIDM1LjYwNDIgMzYuNzU1OCAzNS4zMjIgMzcuMTg0NCAzNS4wNDdDMzcuNDM1MSAzNC44ODYxIDM3Ljc0NTIgMzQuODYgMzguMDIwNiAzNC45NzM1TDM4LjAzIDM0Ljk3NzRDMzguMzA3NSAzNS4wOTEgMzguNTEwOSAzNS4zMyAzOC41NzQ4IDM1LjYyM0MzOC42ODMzIDM2LjEyMDUgMzguNzk5NiAzNi42MzU3IDM4LjkyMzUgMzcuMTYwMkMzOC45OTM3IDM3LjQ1NzYgMzkuMzQyMiAzNy41Njk0IDM5Ljc1IDM3LjU2OTRDNDAuMTU3OCAzNy41Njk0IDQwLjUxMDYgMzcuNDU5IDQwLjU3NjUgMzcuMTYwM0M0MC42OTIgMzYuNjM3NSA0MC44MDE5IDM2LjEyNjkgNDAuOTA1OCAzNS42MzUyQzQwLjk2ODQgMzUuMzM4OCA0MS4xNzQgMzUuMDk2OCA0MS40NTQ3IDM0Ljk4MzNMNDEuNDgxOSAzNC45NzIzQzQxLjc1NjQgMzQuODU5MyA0Mi4wNjU1IDM0Ljg4NjUgNDIuMzE1MiAzNS4wNDY5QzQyLjc0MzkgMzUuMzIxOSA0My4xOTA1IDM1LjYwNDIgNDMuNjQ5MSAzNS44ODc1QzQzLjkwOSAzNi4wNDgxIDQ0LjIzNDUgMzUuODgwNiA0NC41MjI5IDM1LjU5MjNDNDQuODExMiAzNS4zMDM5IDQ0Ljk4MjcgMzQuOTc2NCA0NC44MTgxIDM0LjcxODZDNDQuNTMwMSAzNC4yNjczIDQ0LjI0NjYgMzMuODI4NCA0My45NzI1IDMzLjQwNzNDNDMuODA4MiAzMy4xNTUgNDMuNzgxNiAzMi44NDEgNDMuODk3NyAzMi41NjMyTDQzLjkwODkgMzIuNTM2MkM0NC4wMjIyIDMyLjI2MDEgNDQuMjYxMyAzMi4wNTg0IDQ0LjU1MzEgMzEuOTk0N0M0NS4wNTA3IDMxLjg4NjIgNDUuNTY2MiAzMS43Njk4IDQ2LjA5MDkgMzEuNjQ1OUM0Ni4zODgzIDMxLjU3NTcgNDYuNSAzMS4yMjcxIDQ2LjUgMzAuODE5NEM0Ni41IDMwLjQxMTYgNDYuMzg5NyAzMC4wNTg4IDQ2LjA5MSAyOS45OTI4Wk0zOS43NSAzMi45ODA4QzM4LjU1NjMgMzIuOTgwOCAzNy41ODg1IDMyLjAxMzEgMzcuNTg4NSAzMC44MTkzQzM3LjU4ODUgMjkuNjI1NiAzOC41NTYzIDI4LjY1NzggMzkuNzUgMjguNjU3OEM0MC45NDM4IDI4LjY1NzggNDEuOTExNSAyOS42MjU1IDQxLjkxMTUgMzAuODE5M0M0MS45MTE1IDMyLjAxMzEgNDAuOTQzOCAzMi45ODA4IDM5Ljc1IDMyLjk4MDhaIiBjbGlwLXJ1bGU9ImV2ZW5vZGQiIGZpbGwtcnVsZT0iZXZlbm9kZCIvPiYjeGE7PC9zdmc+;" parent="atDbLLzjIxGfExJ--USy-101" vertex="1">
          <mxGeometry x="10.440000000000055" y="10" width="30.61" height="30" as="geometry" />
        </mxCell>
        <mxCell id="atDbLLzjIxGfExJ--USy-117" value="" style="group" parent="atDbLLzjIxGfExJ--USy-155" vertex="1" connectable="0">
          <mxGeometry x="67.23" y="10" width="22" height="22" as="geometry" />
        </mxCell>
        <mxCell id="atDbLLzjIxGfExJ--USy-152" value="" style="group" parent="atDbLLzjIxGfExJ--USy-117" vertex="1" connectable="0">
          <mxGeometry x="-3.9099999999999886" y="-5.5" width="22" height="22" as="geometry" />
        </mxCell>
        <mxCell id="atDbLLzjIxGfExJ--USy-106" value="" style="whiteSpace=wrap;html=1;aspect=fixed;strokeColor=none;strokeWidth=2;sketch=1;curveFitting=1;jiggle=2;fillColor=#76D2B6;fillStyle=solid;" parent="atDbLLzjIxGfExJ--USy-152" vertex="1">
          <mxGeometry width="22" height="22" as="geometry" />
        </mxCell>
        <mxCell id="atDbLLzjIxGfExJ--USy-118" value="" style="shape=image;verticalLabelPosition=bottom;verticalAlign=top;imageAspect=0;aspect=fixed;image=data:image/svg+xml,PHN2ZyB4bWxucz0iaHR0cDovL3d3dy53My5vcmcvMjAwMC9zdmciIGZpbGw9Im5vbmUiIHZpZXdCb3g9IjYuMDE4Nzk3Mzk3NjEzNTI1IDUuMDAwNDkwMTg4NTk4NjMzIDUwLjk4MzUwMTQzNDMyNjE3IDUzLjg5OTUxMzI0NDYyODkwNiIgaGVpZ2h0PSI1My44OTk1MTMyNDQ2Mjg5MDYiIHdpZHRoPSI1MC45ODM1MDE0MzQzMjYxNyI+JiN4YTs8cGF0aCBmaWxsPSJ3aGl0ZSIgZD0iTTI5LjUzNTkgNTBDMjkuMTg5OCA1MC42NzkgMjguNzk0OCA1MS40MDg4IDI4LjM0MjEgNTIuMTM5N0MyNS45NjIxIDU1Ljk4MjQgMjIuNjU0NCA1Ni44NDAzIDIwLjQwNjMgNTYuMDQ2OUMxOS45MDM0IDU1Ljg2OTQgMjAuMDk4MiA1NS41NjY0IDIwLjA5ODIgNTUuNTY2NEMyMy4xNDgxIDU1LjU2NjQgMjUuMjczNiA1My4xMDQ5IDI3LjAyMzkgNTBDMjcuMzg3MiA0OS4zNTU2IDI3LjczNCA0OC42ODM4IDI4LjA2OTcgNDhINDQuODgzNUM0NC43MDQ0IDQ2Ljc5MyA0NC42MzU1IDQ1LjI2NzggNDQuNjY3MSA0My40Njc0QzQ1LjAxMzUgMzYuMTc5MyA0Ni44ODgyIDI0LjAwNjMgNDguMDg4NyAxOC4wMDI3QzQ4LjQyMSAxNi4zNDExIDQ4LjYxODIgMTMuNzc1OCA0OC4zNTA0IDEyLjA1ODVDNDguMDM0MSAxMC4wMzAxIDQ3LjE5OTYgOC42MzM0OSA0Ni40MTA3IDcuNjcxMzlDNDUuMDE5NiA1Ljk3NDA5IDQzLjAwNTkgNS4wMDA0OSA0MC44ODY4IDUuMDAwNDlIMTQuMDc1OUM5LjE2NjA2IDUuMDAwNDkgNi4zMzkyNiA4LjIyNjk5IDYuMDQ3NzYgMTEuODY0OUM1LjYzMzA2IDE3LjAzMjkgOS43MzczNiAyMC4zMTYxIDE0LjE0OTEgMjEuMDE1OEMxNC40NTk4IDE5LjMxNTcgMTQuNzI0NyAxNy45NDYyIDE0Ljg5NDUgMTcuMDg4N0MxMi45OTM3IDE2LjgwODggOS43NzA2NiAxNS40OCAxMC4wMzUxIDEyLjE4NTJDMTAuMTgyNCAxMC4zNDQgMTEuNzQxMiA4LjkwMjc5IDEzLjU4MzkgOC45MDA0OUgxMy41OTJDMTQuNTIwMiA4LjkwMTU5IDE1LjM4MjIgOS4zMjk3OSAxNi4wMTkgMTAuMTA3MUMxNy4yMTcyIDExLjU2OCAxNy41NCAxNC4wNTczIDE2LjkyODIgMTcuMTE2OUMxNS41NiAyMy45NTc3IDEyLjcyNzEgNDAuMjc4IDEzLjA5MzggNDcuMDA5NUMxMy4yNDYgNDkuNzk4NCAxNC4zMzU0IDU4LjkgMjEuOTY1OCA1OC45SDQ2QzUxLjkzODggNTguOSA1NS4zMzgzIDUzLjY5NjkgNTcuMDAyMyA1MEgyOS41MzU5Wk0yNC45MDM2IDI2LjM3NTNDMjQuMTAzNiAyNi4zNzUzIDIzLjQwMzYgMjcuMDc1MyAyMy40MDM2IDI3Ljg3NTNDMjMuNDAzNiAyOC42NzUzIDI0LjEwMzYgMjkuMzc1MyAyNC45MDM2IDI5LjM3NTNDMjUuNzAzNiAyOS4zNzUzIDI2LjQwMzYgMjguNjc1MyAyNi40MDM2IDI3Ljg3NTNDMjYuNDAzNiAyNy4wNzUzIDI1LjgwMzYgMjYuMzc1MyAyNC45MDM2IDI2LjM3NTNaTTI0LjQxNTEgMjAuOTc1M0MyNC40MTUxIDIwLjE3NTMgMjUuMTE1MSAxOS40NzUzIDI1LjkxNTEgMTkuNDc1M0MyNi44MTUxIDE5LjQ3NTMgMjcuNDE1MSAyMC4xNzUzIDI3LjQxNTEgMjAuOTc1M0MyNy40MTUxIDIxLjc3NTMgMjYuNzE1MSAyMi40NzUzIDI1LjkxNTEgMjIuNDc1M0MyNS4xMTUxIDIyLjQ3NTMgMjQuNDE1MSAyMS43NzUzIDI0LjQxNTEgMjAuOTc1M1pNMjQuMDAzNyAzMy4zNzUzQzIzLjIwMzcgMzMuMzc1MyAyMi41MDM3IDM0LjA3NTMgMjIuNTAzNyAzNC44NzUzQzIyLjUwMzcgMzUuNjc1MyAyMy4yMDM3IDM2LjM3NTMgMjQuMDAzNyAzNi4zNzUzQzI0LjgwMzcgMzYuMzc1MyAyNS41MDM3IDM1LjY3NTMgMjUuNTAzNyAzNC44NzUzQzI1LjUwMzcgMzMuOTc1MyAyNC45MDM3IDMzLjM3NTMgMjQuMDAzNyAzMy4zNzUzWk0yMS45MDM2IDQxLjg3NTNDMjEuOTAzNiA0MS4wNzUzIDIyLjYwMzYgNDAuMzc1MyAyMy40MDM2IDQwLjM3NTNDMjQuMjAzNiA0MC4zNzUzIDI0LjkwMzYgNDEuMDc1MyAyNC45MDM2IDQxLjg3NTNDMjQuOTAzNiA0Mi42NzUzIDI0LjIwMzYgNDMuMzc1MyAyMy40MDM2IDQzLjM3NTNDMjIuNjAzNiA0My4zNzUzIDIxLjkwMzYgNDIuNjc1MyAyMS45MDM2IDQxLjg3NTNaTTI4LjEwMzcgMjkuNDc1M0g0Mi4wMDM3QzQyLjA1MzcgMjguOTc1MyA0Mi4xMjg3IDI4LjQ3NTMgNDIuMjAzNyAyNy45NzUzQzQyLjI3ODcgMjcuNDc1MyA0Mi4zNTM3IDI2Ljk3NTMgNDIuNDAzNyAyNi40NzUzSDI4LjUwMzdDMjguMzAzNyAyNy40NzUzIDI4LjIwMzcgMjguNDc1MyAyOC4xMDM3IDI5LjQ3NTNaTTQzLjE2NjMgMjIuNTc1M0gyOS4xMTMxQzI5LjIwNTMgMjEuNjUzMyAyOS4zOTA0IDIwLjczMTMgMjkuNTc1NCAxOS44MDkzTDI5LjYyMjMgMTkuNTc1M0g0My41OTA3QzQzLjU0MDcgMjAuMDc1MyA0My40NTk2IDIwLjU3NTMgNDMuMzc4NSAyMS4wNzUzQzQzLjI5NzQgMjEuNTc1MyA0My4yMTYzIDIyLjA3NTMgNDMuMTY2MyAyMi41NzUzWk0yNy4yMDM3IDM2LjQ3NTNINDEuMTAzN0w0MS40MDM3IDMzLjQ3NTNIMjcuNjAzN0MyNy40MDM3IDM0LjQ3NTMgMjcuMzAzNyAzNS40NzUzIDI3LjIwMzcgMzYuNDc1M1pNNDAuNjAzNyA0My40NzUzSDI2LjcwMzdDMjYuNzAzNyA0My4wNDc5IDI2LjcyNjIgNDIuNTk3OSAyNi43NDk5IDQyLjEyNTNDMjYuNzc2MSA0MS42MDI5IDI2LjgwMzcgNDEuMDUyOSAyNi44MDM3IDQwLjQ3NTNINDAuODAzN0M0MC43OTQ1IDQwLjU3NjIgNDAuNzg1MyA0MC42NzYyIDQwLjc3NjIgNDAuNzc1NEM0MC42ODYyIDQxLjc1NzkgNDAuNjAzNyA0Mi42NTc5IDQwLjYwMzcgNDMuNDc1M1oiIGNsaXAtcnVsZT0iZXZlbm9kZCIgZmlsbC1ydWxlPSJldmVub2RkIi8+JiN4YTs8L3N2Zz4=;" parent="atDbLLzjIxGfExJ--USy-152" vertex="1">
          <mxGeometry x="2.9100000000000614" y="2" width="14.165999999999999" height="15" as="geometry" />
        </mxCell>
        <mxCell id="atDbLLzjIxGfExJ--USy-156" value="" style="group" parent="1" vertex="1" connectable="0">
          <mxGeometry x="440" y="170" width="183.23000000000002" height="192.75" as="geometry" />
        </mxCell>
        <mxCell id="atDbLLzjIxGfExJ--USy-157" value="" style="whiteSpace=wrap;html=1;aspect=fixed;strokeColor=none;strokeWidth=2;rounded=1;labelPosition=center;verticalLabelPosition=bottom;align=center;verticalAlign=top;sketch=1;curveFitting=1;jiggle=2;fillColor=#76d2b6;fillStyle=solid;" parent="atDbLLzjIxGfExJ--USy-156" vertex="1">
          <mxGeometry x="1.230000000000004" y="8" width="80" height="80" as="geometry" />
        </mxCell>
        <mxCell id="atDbLLzjIxGfExJ--USy-158" value="" style="whiteSpace=wrap;html=1;aspect=fixed;strokeColor=none;strokeWidth=2;sketch=1;curveFitting=1;jiggle=2;fillColor=#ffb612;fillStyle=solid;" parent="atDbLLzjIxGfExJ--USy-156" vertex="1">
          <mxGeometry x="57.000000000000014" width="30" height="30" as="geometry" />
        </mxCell>
        <mxCell id="atDbLLzjIxGfExJ--USy-159" value="" style="group" parent="atDbLLzjIxGfExJ--USy-156" vertex="1" connectable="0">
          <mxGeometry x="101.23" y="46.5" width="82" height="93" as="geometry" />
        </mxCell>
        <mxCell id="atDbLLzjIxGfExJ--USy-160" value="" style="whiteSpace=wrap;html=1;aspect=fixed;strokeColor=none;strokeWidth=2;rounded=1;labelPosition=center;verticalLabelPosition=bottom;align=center;verticalAlign=top;sketch=1;curveFitting=1;jiggle=2;fillColor=#8FCAE7;fillStyle=solid;" parent="atDbLLzjIxGfExJ--USy-159" vertex="1">
          <mxGeometry y="13" width="80" height="80" as="geometry" />
        </mxCell>
        <mxCell id="atDbLLzjIxGfExJ--USy-161" value="" style="group;" parent="atDbLLzjIxGfExJ--USy-159" vertex="1" connectable="0">
          <mxGeometry x="15" y="30" width="50" height="50" as="geometry" />
        </mxCell>
        <mxCell id="atDbLLzjIxGfExJ--USy-162" value="" style="points=[[0.145,0.145,0],[0.5,0,0],[0.855,0.145,0],[1,0.5,0],[0.855,0.855,0],[0.5,1,0],[0.145,0.855,0],[0,0.5,0]];shape=mxgraph.bpmn.event;html=1;verticalLabelPosition=bottom;labelBackgroundColor=none;verticalAlign=top;align=center;perimeter=ellipsePerimeter;outlineConnect=0;aspect=fixed;outline=standard;symbol=general;strokeColor=none;strokeWidth=2;fontFamily=Fira Sans;fontSource=https%3A%2F%2Ffonts.googleapis.com%2Fcss%3Ffamily%3DFira%2BSans;fontSize=14;fillColor=#d52b1e;labelPosition=center;spacingLeft=4;" parent="atDbLLzjIxGfExJ--USy-161" vertex="1">
          <mxGeometry width="50" height="50" as="geometry" />
        </mxCell>
        <mxCell id="atDbLLzjIxGfExJ--USy-163" value="" style="shape=image;verticalLabelPosition=bottom;verticalAlign=top;imageAspect=0;aspect=fixed;image=data:image/svg+xml,PHN2ZyB4bWxucz0iaHR0cDovL3d3dy53My5vcmcvMjAwMC9zdmciIGZpbGw9Im5vbmUiIHZpZXdCb3g9IjcuNSA3LjQyNjUwOTg1NzE3NzczNCA1MCA0OC45OTk5ODg1NTU5MDgyIiBoZWlnaHQ9IjQ4Ljk5OTk4ODU1NTkwODIiIHdpZHRoPSI1MCI+JiN4YTs8cGF0aCBmaWxsPSJ3aGl0ZSIgZD0iTTkuNSA3LjQyNjUxSDU1LjVDNTYuNjA0NSA3LjQyNjUxIDU3LjUgOC4zMjIwMSA1Ny41IDkuNDI2NTFWNDQuNDI2NkM1Ny41IDQ1LjUzMTEgNTYuNjA0NSA0Ni40MjY2IDU1LjUgNDYuNDI2NkgzMC4zMzM4QzMwLjI5NjkgNDYuNTEyNSAzMC4yNTc4IDQ2Ljc0NjkgMzAuNTc4MSA0Ni44MDk0QzM1LjE1MjkgNDcuNzAyIDM5LjU1NTMgNDguMzQxNyAzOS41NTUzIDQ4LjM0MTdDMzkuNzk3MyA0OS4xNTU5IDQwLjExMTkgNTAuMTkzNSA0MC41IDUxLjQyNjVDNDEuMDc3OSA1My4yNjM4IDQyLjg3OTEgNTMuNDE4NSA0My4zNjkxIDUzLjQyNjVINDUuNUM0Ni4wNTI3IDUzLjQyNjUgNDYuNSA1My44NzQzIDQ2LjUgNTQuNDI2NVY1Ni40MjY1SDE4LjVWNTQuNDI2NUMxOC41IDUzLjg3NDMgMTguOTQ3MyA1My40MjY1IDE5LjUgNTMuNDI2NUgyMS42MzA5QzIyLjEyMDkgNTMuNDE4NSAyMy45MjIxIDUzLjI2MzggMjQuNSA1MS40MjY1QzI1LjQ2NTggNDguMzU3NyAyNiA0Ni40MTY1IDI2IDQ2LjQxNjVIOS41QzguMzk1NSA0Ni40MTY1IDcuNSA0NS41MjEgNy41IDQ0LjQxNjVWOS40MjY1MUM3LjUgOC4zMjIwMSA4LjM5NTUgNy40MjY1MSA5LjUgNy40MjY1MVpNMTIuNSAzOS40MjY1SDUyLjVWMTIuNDI2NUgxMi41VjM5LjQyNjVaTTMzLjU0NDMgMjEuMjE5NUMzNC4xNDEyIDIxLjM0NTYgMzQuNzYxNCAyMS40NzkyIDM1LjM5NjIgMjEuNjE5M0MzNS43NTg5IDIxLjY5OTMgMzUuODkyOSAyMi4xMjc4IDM1Ljg5MjkgMjIuNjIyOUMzNS44OTI5IDIzLjExODEgMzUuNzU3MiAyMy41NDEzIDM1LjM5NjEgMjMuNjI2NkMzNC43NTkgMjMuNzc3MSAzNC4xMzI5IDIzLjkxODQgMzMuNTI4NyAyNC4wNTAyQzMzLjE3NDQgMjQuMTI3NSAzMi44ODQxIDI0LjM3MjMgMzIuNzQ2NSAyNC43MDc3TDMyLjczMjkgMjQuNzQwNEMzMi41OTE5IDI1LjA3NzggMzIuNjI0MiAyNS40NTkxIDMyLjgyMzcgMjUuNzY1NUMzMy4xNTY2IDI2LjI3NjcgMzMuNTAwOSAyNi44MDk3IDMzLjg1MDYgMjcuMzU3N0MzNC4wNTA0IDI3LjY3MDggMzMuODQyMiAyOC4wNjg1IDMzLjQ5MjEgMjguNDE4N0MzMy4xNDE5IDI4Ljc2ODcgMzIuNzQ2NyAyOC45NzIxIDMyLjQzMTEgMjguNzc3MUMzMS44NzQyIDI4LjQzMzEgMzEuMzMxOSAyOC4wOTAzIDMwLjgxMTQgMjcuNzU2M0MzMC41MDgxIDI3LjU2MTYgMzAuMTMyOCAyNy41Mjg2IDI5Ljc5OTQgMjcuNjY1OEwyOS43NjY1IDI3LjY3OTJDMjkuNDI1NiAyNy44MTcgMjkuMTc1OSAyOC4xMTA5IDI5LjA5OTggMjguNDcwOEMyOC45NzM3IDI5LjA2NzcgMjguODQwMyAyOS42ODc5IDI4LjcwMDEgMzAuMzIyN0MyOC42MiAzMC42ODUzIDI4LjE5MTYgMzAuODE5NCAyNy42OTY0IDMwLjgxOTRDMjcuMjAxMyAzMC44MTk0IDI2Ljc3OCAzMC42ODM3IDI2LjY5MjggMzAuMzIyNUMyNi41NDI0IDI5LjY4NTcgMjYuNDAxMiAyOS4wNiAyNi4yNjk0IDI4LjQ1NTlDMjYuMTkxOCAyOC4xMDAyIDI1Ljk0NDggMjcuODA5OSAyNS42MDc5IDI3LjY3MTlMMjUuNTk2NCAyNy42NjcyQzI1LjI2MiAyNy41Mjk0IDI0Ljg4NTQgMjcuNTYxMSAyNC41ODEgMjcuNzU2NUMyNC4wNjA2IDI4LjA5MDQgMjMuNTE4NSAyOC40MzMxIDIyLjk2MTcgMjguNzc3QzIyLjY0NjEgMjguOTcyIDIyLjI1MDkgMjguNzY4NiAyMS45MDA4IDI4LjQxODZDMjEuNTUwNiAyOC4wNjg0IDIxLjM0MjUgMjcuNjcwNyAyMS41NDIzIDI3LjM1NzZDMjEuODkyMSAyNi44MDk2IDIyLjIzNjIgMjYuMjc2NyAyMi41NjkxIDI1Ljc2NTRDMjIuNzY4NiAyNS40NTkgMjIuODAwOSAyNS4wNzc3IDIyLjY1OTkgMjQuNzQwM0wyMi42NDY0IDI0LjcwNzZDMjIuNTA4NyAyNC4zNzIzIDIyLjIxODQgMjQuMTI3NCAyMS44NjQxIDI0LjA1MDJDMjEuMjU5OCAyMy45MTg0IDIwLjYzMzkgMjMuNzc3MSAxOS45OTY3IDIzLjYyNjZDMTkuNjM1NyAyMy41NDEzIDE5LjUgMjMuMTE4MSAxOS41IDIyLjYyMjlDMTkuNSAyMi4xMjc4IDE5LjYzNCAyMS42OTkzIDE5Ljk5NjcgMjEuNjE5M0MyMC42MzE1IDIxLjQ3OTEgMjEuMjUxNiAyMS4zNDU2IDIxLjg0ODYgMjEuMjE5NUMyMi4yMDg0IDIxLjE0MzQgMjIuNTAyNSAyMC44OTM4IDIyLjY0MDIgMjAuNTUyOEwyMi42NTM2IDIwLjUxOThDMjIuNzkwOCAyMC4xODY1IDIyLjc1NzcgMTkuODExMyAyMi41NjMxIDE5LjUwNzlDMjIuMjI5IDE4Ljk4NzUgMjEuODg2MyAxOC40NDUxIDIxLjU0MjMgMTcuODg4MkMyMS4zNDczIDE3LjU3MjUgMjEuNTUwNiAxNy4xNzc0IDIxLjkwMDggMTYuODI3MkMyMi4yNTA5IDE2LjQ3NzEgMjIuNjQ4NiAxNi4yNjg5IDIyLjk2MTcgMTYuNDY4N0MyMy41MDY0IDE2LjgxNjQgMjQuMDM2MiAxNy4xNTg1IDI0LjU0NDggMTcuNDg5N0MyNC44NTY4IDE3LjY5MjggMjUuMjQ1MSAxNy43MjUyIDI1LjU4OSAxNy41ODIyTDI1LjYwMTkgMTcuNTc2OEMyNS45NDMyIDE3LjQzNiAyNi4xOTI4IDE3LjE0MDggMjYuMjcxNiAxNi43OEMyNi40MDI3IDE2LjE3OSAyNi41NDMxIDE1LjU1NjcgMjYuNjkyOCAxNC45MjMyQzI2Ljc3OCAxNC41NjIyIDI3LjIwMTMgMTQuNDI2NSAyNy42OTY0IDE0LjQyNjVDMjguMTkxNiAxNC40MjY1IDI4LjYyIDE0LjU2MDUgMjguNyAxNC45MjMyQzI4LjgzOTMgMTUuNTU0NCAyOC45NzIxIDE2LjE3MTMgMjkuMDk3NiAxNi43NjUyQzI5LjE3NDggMTcuMTMwMiAyOS40MjcyIDE3LjQyOTEgMjkuNzcyNiAxNy41Njk4TDI5LjgwNyAxNy41ODM5QzMwLjE0OTYgMTcuNzI2MSAzMC41MzY2IDE3LjY5MjUgMzAuODQ3NSAxNy40OUMzMS4zNTYzIDE3LjE1ODggMzEuODg2MiAxNi44MTY1IDMyLjQzMTIgMTYuNDY4N0MzMi43NDQ0IDE2LjI2ODkgMzMuMTQyIDE2LjQ3NzEgMzMuNDkyMiAxNi44MjcyQzMzLjg0MjMgMTcuMTc3NCAzNC4wNDU3IDE3LjU3MjYgMzMuODUwNyAxNy44ODgyQzMzLjUwNjYgMTguNDQ1MSAzMy4xNjM5IDE4Ljk4NzUgMzIuODI5OSAxOS41MDc5QzMyLjYzNTIgMTkuODExMiAzMi42MDIxIDIwLjE4NjYgMzIuNzM5MyAyMC41MTk4TDMyLjc1MjggMjAuNTUyOEMzMi44OTA2IDIwLjg5MzggMzMuMTg0NSAyMS4xNDM0IDMzLjU0NDMgMjEuMjE5NVpNMjUuMDcxNyAyMi42MjI4QzI1LjA3MTcgMjQuMDcyNSAyNi4yNDY5IDI1LjI0NzUgMjcuNjk2NCAyNS4yNDc1QzI5LjE0NiAyNS4yNDc1IDMwLjMyMTEgMjQuMDcyNSAzMC4zMjExIDIyLjYyMjhDMzAuMzIxMSAyMS4xNzMyIDI5LjE0NiAxOS45OTgyIDI3LjY5NjQgMTkuOTk4MkMyNi4yNDY5IDE5Ljk5ODIgMjUuMDcxNyAyMS4xNzMzIDI1LjA3MTcgMjIuNjIyOFpNNDYuMDkxIDI5Ljk5MjhDNDUuNTY4MiAyOS44Nzc1IDQ1LjA1NzUgMjkuNzY3NSA0NC41NjU5IDI5LjY2MzZDNDQuMjY5NiAyOS42MDEgNDQuMDI3NSAyOS4zOTU0IDQzLjkxNCAyOS4xMTQ2TDQzLjkwMjkgMjkuMDg3NEM0My43OSAyOC44MTI5IDQzLjgxNzIgMjguNTAzOCA0My45Nzc2IDI4LjI1NEM0NC4yNTI2IDI3LjgyNTUgNDQuNTM0OSAyNy4zNzg4IDQ0LjgxODIgMjYuOTIwMkM0NC45Nzg4IDI2LjY2MDMgNDQuODExMyAyNi4zMzQ4IDQ0LjUyMyAyNi4wNDY0QzQ0LjIzNDYgMjUuNzU4MSA0My45MDcxIDI1LjU4NjYgNDMuNjQ5MiAyNS43NTExQzQzLjIwMDQgMjYuMDM3NiA0Mi43NjQgMjYuMzE5NSA0Mi4zNDUgMjYuNTkyMkM0Mi4wODkgMjYuNzU5IDQxLjc3MDIgMjYuNzg2NyA0MS40ODgxIDI2LjY2OTVMNDEuNDU5OCAyNi42NThDNDEuMTc1NCAyNi41NDIxIDQwLjk2NzUgMjYuMjk1OSA0MC45MDM5IDI1Ljk5NTNDNDAuODAwNSAyNS41MDYyIDQwLjY5MTIgMjQuOTk4MiA0MC41NzY0IDI0LjQ3ODRDNDAuNTEwNiAyNC4xNzk3IDQwLjE1NzggMjQuMDY5NCAzOS43NSAyNC4wNjk0QzM5LjM0MjIgMjQuMDY5NCAzOC45OTM3IDI0LjE4MTEgMzguOTIzNSAyNC40Nzg0QzM4LjgwMDIgMjUuMDAwMSAzOC42ODQ2IDI1LjUxMjYgMzguNTc2NiAyNi4wMDc2QzM4LjUxMTcgMjYuMzA0NiAzOC4zMDYxIDI2LjU0NzcgMzguMDI1MSAyNi42NjM3TDM4LjAxNDUgMjYuNjY4MkMzNy43MzEzIDI2Ljc4NiAzNy40MTE1IDI2Ljc1OTMgMzcuMTU0NSAyNi41OTJDMzYuNzM1NyAyNi4zMTkzIDM2LjI5OTQgMjYuMDM3NSAzNS44NTA4IDI1Ljc1MTFDMzUuNTkzIDI1LjU4NjYgMzUuMjY1NSAyNS43NTgxIDM0Ljk3NzEgMjYuMDQ2NEMzNC42ODg4IDI2LjMzNDggMzQuNTIxMyAyNi42NjAyIDM0LjY4MTkgMjYuOTIwMkMzNC45NjUyIDI3LjM3ODggMzUuMjQ3NCAyNy44MjU1IDM1LjUyMjUgMjguMjU0QzM1LjY4MjggMjguNTAzOSAzNS43MTAxIDI4LjgxMjkgMzUuNTk3MSAyOS4wODc0TDM1LjU4NiAyOS4xMTQ2QzM1LjQ3MjYgMjkuMzk1NCAzNS4yMzA0IDI5LjYwMSAzNC45MzQyIDI5LjY2MzZDMzQuNDQyNSAyOS43Njc1IDMzLjkzMTggMjkuODc3NCAzMy40MDkgMjkuOTkyOEMzMy4xMTA0IDMwLjA1ODggMzMgMzAuNDExNiAzMyAzMC44MTk0QzMzIDMxLjIyNzEgMzMuMTExNyAzMS41NzU3IDMzLjQwOSAzMS42NDU5QzMzLjkzMzggMzEuNzY5OCAzNC40NDkzIDMxLjg4NjIgMzQuOTQ2OSAzMS45OTQ3QzM1LjIzODcgMzIuMDU4MyAzNS40Nzc3IDMyLjI2IDM1LjU5MTEgMzIuNTM2MkwzNS42MDIyIDMyLjU2MzFDMzUuNzE4NCAzMi44NDEgMzUuNjkxOCAzMy4xNTQ5IDM1LjUyNzUgMzMuNDA3MkMzNS4yNTMzIDMzLjgyODQgMzQuOTcgMzQuMjY3MiAzNC42ODE5IDM0LjcxODVDMzQuNTE3MyAzNC45NzYzIDM0LjY4ODggMzUuMzAzOCAzNC45NzcxIDM1LjU5MjNDMzUuMjY1NSAzNS44ODA1IDM1LjU5MDkgMzYuMDQ4IDM1Ljg1MDggMzUuODg3NEMzNi4zMDkzIDM1LjYwNDIgMzYuNzU1OCAzNS4zMjIgMzcuMTg0NCAzNS4wNDdDMzcuNDM1MSAzNC44ODYxIDM3Ljc0NTIgMzQuODYgMzguMDIwNiAzNC45NzM1TDM4LjAzIDM0Ljk3NzRDMzguMzA3NSAzNS4wOTEgMzguNTEwOSAzNS4zMyAzOC41NzQ4IDM1LjYyM0MzOC42ODMzIDM2LjEyMDUgMzguNzk5NiAzNi42MzU3IDM4LjkyMzUgMzcuMTYwMkMzOC45OTM3IDM3LjQ1NzYgMzkuMzQyMiAzNy41Njk0IDM5Ljc1IDM3LjU2OTRDNDAuMTU3OCAzNy41Njk0IDQwLjUxMDYgMzcuNDU5IDQwLjU3NjUgMzcuMTYwM0M0MC42OTIgMzYuNjM3NSA0MC44MDE5IDM2LjEyNjkgNDAuOTA1OCAzNS42MzUyQzQwLjk2ODQgMzUuMzM4OCA0MS4xNzQgMzUuMDk2OCA0MS40NTQ3IDM0Ljk4MzNMNDEuNDgxOSAzNC45NzIzQzQxLjc1NjQgMzQuODU5MyA0Mi4wNjU1IDM0Ljg4NjUgNDIuMzE1MiAzNS4wNDY5QzQyLjc0MzkgMzUuMzIxOSA0My4xOTA1IDM1LjYwNDIgNDMuNjQ5MSAzNS44ODc1QzQzLjkwOSAzNi4wNDgxIDQ0LjIzNDUgMzUuODgwNiA0NC41MjI5IDM1LjU5MjNDNDQuODExMiAzNS4zMDM5IDQ0Ljk4MjcgMzQuOTc2NCA0NC44MTgxIDM0LjcxODZDNDQuNTMwMSAzNC4yNjczIDQ0LjI0NjYgMzMuODI4NCA0My45NzI1IDMzLjQwNzNDNDMuODA4MiAzMy4xNTUgNDMuNzgxNiAzMi44NDEgNDMuODk3NyAzMi41NjMyTDQzLjkwODkgMzIuNTM2MkM0NC4wMjIyIDMyLjI2MDEgNDQuMjYxMyAzMi4wNTg0IDQ0LjU1MzEgMzEuOTk0N0M0NS4wNTA3IDMxLjg4NjIgNDUuNTY2MiAzMS43Njk4IDQ2LjA5MDkgMzEuNjQ1OUM0Ni4zODgzIDMxLjU3NTcgNDYuNSAzMS4yMjcxIDQ2LjUgMzAuODE5NEM0Ni41IDMwLjQxMTYgNDYuMzg5NyAzMC4wNTg4IDQ2LjA5MSAyOS45OTI4Wk0zOS43NSAzMi45ODA4QzM4LjU1NjMgMzIuOTgwOCAzNy41ODg1IDMyLjAxMzEgMzcuNTg4NSAzMC44MTkzQzM3LjU4ODUgMjkuNjI1NiAzOC41NTYzIDI4LjY1NzggMzkuNzUgMjguNjU3OEM0MC45NDM4IDI4LjY1NzggNDEuOTExNSAyOS42MjU1IDQxLjkxMTUgMzAuODE5M0M0MS45MTE1IDMyLjAxMzEgNDAuOTQzOCAzMi45ODA4IDM5Ljc1IDMyLjk4MDhaIiBjbGlwLXJ1bGU9ImV2ZW5vZGQiIGZpbGwtcnVsZT0iZXZlbm9kZCIvPiYjeGE7PC9zdmc+;" parent="atDbLLzjIxGfExJ--USy-161" vertex="1">
          <mxGeometry x="10.440000000000055" y="10" width="30.61" height="30" as="geometry" />
        </mxCell>
        <mxCell id="atDbLLzjIxGfExJ--USy-164" value="" style="whiteSpace=wrap;html=1;aspect=fixed;strokeColor=none;strokeWidth=2;sketch=1;curveFitting=1;jiggle=2;fillColor=#ffb612;fillStyle=solid;" parent="atDbLLzjIxGfExJ--USy-159" vertex="1">
          <mxGeometry x="58" y="8" width="22" height="22" as="geometry" />
        </mxCell>
        <mxCell id="atDbLLzjIxGfExJ--USy-165" value="" style="group" parent="atDbLLzjIxGfExJ--USy-159" vertex="1" connectable="0">
          <mxGeometry x="60" width="22" height="22" as="geometry" />
        </mxCell>
        <mxCell id="atDbLLzjIxGfExJ--USy-166" value="" style="whiteSpace=wrap;html=1;aspect=fixed;strokeColor=none;strokeWidth=2;sketch=1;curveFitting=1;jiggle=2;fillColor=#8FCAE7;fillStyle=solid;" parent="atDbLLzjIxGfExJ--USy-165" vertex="1">
          <mxGeometry width="22" height="22" as="geometry" />
        </mxCell>
        <mxCell id="atDbLLzjIxGfExJ--USy-167" value="" style="shape=image;verticalLabelPosition=bottom;verticalAlign=top;imageAspect=0;aspect=fixed;image=data:image/svg+xml,PHN2ZyB4bWxucz0iaHR0cDovL3d3dy53My5vcmcvMjAwMC9zdmciIGZpbGw9Im5vbmUiIHZpZXdCb3g9IjYuMDE4Nzk3Mzk3NjEzNTI1IDUuMDAwNDkwMTg4NTk4NjMzIDUwLjk4MzUwMTQzNDMyNjE3IDUzLjg5OTUxMzI0NDYyODkwNiIgaGVpZ2h0PSI1My44OTk1MTMyNDQ2Mjg5MDYiIHdpZHRoPSI1MC45ODM1MDE0MzQzMjYxNyI+JiN4YTs8cGF0aCBmaWxsPSJ3aGl0ZSIgZD0iTTI5LjUzNTkgNTBDMjkuMTg5OCA1MC42NzkgMjguNzk0OCA1MS40MDg4IDI4LjM0MjEgNTIuMTM5N0MyNS45NjIxIDU1Ljk4MjQgMjIuNjU0NCA1Ni44NDAzIDIwLjQwNjMgNTYuMDQ2OUMxOS45MDM0IDU1Ljg2OTQgMjAuMDk4MiA1NS41NjY0IDIwLjA5ODIgNTUuNTY2NEMyMy4xNDgxIDU1LjU2NjQgMjUuMjczNiA1My4xMDQ5IDI3LjAyMzkgNTBDMjcuMzg3MiA0OS4zNTU2IDI3LjczNCA0OC42ODM4IDI4LjA2OTcgNDhINDQuODgzNUM0NC43MDQ0IDQ2Ljc5MyA0NC42MzU1IDQ1LjI2NzggNDQuNjY3MSA0My40Njc0QzQ1LjAxMzUgMzYuMTc5MyA0Ni44ODgyIDI0LjAwNjMgNDguMDg4NyAxOC4wMDI3QzQ4LjQyMSAxNi4zNDExIDQ4LjYxODIgMTMuNzc1OCA0OC4zNTA0IDEyLjA1ODVDNDguMDM0MSAxMC4wMzAxIDQ3LjE5OTYgOC42MzM0OSA0Ni40MTA3IDcuNjcxMzlDNDUuMDE5NiA1Ljk3NDA5IDQzLjAwNTkgNS4wMDA0OSA0MC44ODY4IDUuMDAwNDlIMTQuMDc1OUM5LjE2NjA2IDUuMDAwNDkgNi4zMzkyNiA4LjIyNjk5IDYuMDQ3NzYgMTEuODY0OUM1LjYzMzA2IDE3LjAzMjkgOS43MzczNiAyMC4zMTYxIDE0LjE0OTEgMjEuMDE1OEMxNC40NTk4IDE5LjMxNTcgMTQuNzI0NyAxNy45NDYyIDE0Ljg5NDUgMTcuMDg4N0MxMi45OTM3IDE2LjgwODggOS43NzA2NiAxNS40OCAxMC4wMzUxIDEyLjE4NTJDMTAuMTgyNCAxMC4zNDQgMTEuNzQxMiA4LjkwMjc5IDEzLjU4MzkgOC45MDA0OUgxMy41OTJDMTQuNTIwMiA4LjkwMTU5IDE1LjM4MjIgOS4zMjk3OSAxNi4wMTkgMTAuMTA3MUMxNy4yMTcyIDExLjU2OCAxNy41NCAxNC4wNTczIDE2LjkyODIgMTcuMTE2OUMxNS41NiAyMy45NTc3IDEyLjcyNzEgNDAuMjc4IDEzLjA5MzggNDcuMDA5NUMxMy4yNDYgNDkuNzk4NCAxNC4zMzU0IDU4LjkgMjEuOTY1OCA1OC45SDQ2QzUxLjkzODggNTguOSA1NS4zMzgzIDUzLjY5NjkgNTcuMDAyMyA1MEgyOS41MzU5Wk0yNC45MDM2IDI2LjM3NTNDMjQuMTAzNiAyNi4zNzUzIDIzLjQwMzYgMjcuMDc1MyAyMy40MDM2IDI3Ljg3NTNDMjMuNDAzNiAyOC42NzUzIDI0LjEwMzYgMjkuMzc1MyAyNC45MDM2IDI5LjM3NTNDMjUuNzAzNiAyOS4zNzUzIDI2LjQwMzYgMjguNjc1MyAyNi40MDM2IDI3Ljg3NTNDMjYuNDAzNiAyNy4wNzUzIDI1LjgwMzYgMjYuMzc1MyAyNC45MDM2IDI2LjM3NTNaTTI0LjQxNTEgMjAuOTc1M0MyNC40MTUxIDIwLjE3NTMgMjUuMTE1MSAxOS40NzUzIDI1LjkxNTEgMTkuNDc1M0MyNi44MTUxIDE5LjQ3NTMgMjcuNDE1MSAyMC4xNzUzIDI3LjQxNTEgMjAuOTc1M0MyNy40MTUxIDIxLjc3NTMgMjYuNzE1MSAyMi40NzUzIDI1LjkxNTEgMjIuNDc1M0MyNS4xMTUxIDIyLjQ3NTMgMjQuNDE1MSAyMS43NzUzIDI0LjQxNTEgMjAuOTc1M1pNMjQuMDAzNyAzMy4zNzUzQzIzLjIwMzcgMzMuMzc1MyAyMi41MDM3IDM0LjA3NTMgMjIuNTAzNyAzNC44NzUzQzIyLjUwMzcgMzUuNjc1MyAyMy4yMDM3IDM2LjM3NTMgMjQuMDAzNyAzNi4zNzUzQzI0LjgwMzcgMzYuMzc1MyAyNS41MDM3IDM1LjY3NTMgMjUuNTAzNyAzNC44NzUzQzI1LjUwMzcgMzMuOTc1MyAyNC45MDM3IDMzLjM3NTMgMjQuMDAzNyAzMy4zNzUzWk0yMS45MDM2IDQxLjg3NTNDMjEuOTAzNiA0MS4wNzUzIDIyLjYwMzYgNDAuMzc1MyAyMy40MDM2IDQwLjM3NTNDMjQuMjAzNiA0MC4zNzUzIDI0LjkwMzYgNDEuMDc1MyAyNC45MDM2IDQxLjg3NTNDMjQuOTAzNiA0Mi42NzUzIDI0LjIwMzYgNDMuMzc1MyAyMy40MDM2IDQzLjM3NTNDMjIuNjAzNiA0My4zNzUzIDIxLjkwMzYgNDIuNjc1MyAyMS45MDM2IDQxLjg3NTNaTTI4LjEwMzcgMjkuNDc1M0g0Mi4wMDM3QzQyLjA1MzcgMjguOTc1MyA0Mi4xMjg3IDI4LjQ3NTMgNDIuMjAzNyAyNy45NzUzQzQyLjI3ODcgMjcuNDc1MyA0Mi4zNTM3IDI2Ljk3NTMgNDIuNDAzNyAyNi40NzUzSDI4LjUwMzdDMjguMzAzNyAyNy40NzUzIDI4LjIwMzcgMjguNDc1MyAyOC4xMDM3IDI5LjQ3NTNaTTQzLjE2NjMgMjIuNTc1M0gyOS4xMTMxQzI5LjIwNTMgMjEuNjUzMyAyOS4zOTA0IDIwLjczMTMgMjkuNTc1NCAxOS44MDkzTDI5LjYyMjMgMTkuNTc1M0g0My41OTA3QzQzLjU0MDcgMjAuMDc1MyA0My40NTk2IDIwLjU3NTMgNDMuMzc4NSAyMS4wNzUzQzQzLjI5NzQgMjEuNTc1MyA0My4yMTYzIDIyLjA3NTMgNDMuMTY2MyAyMi41NzUzWk0yNy4yMDM3IDM2LjQ3NTNINDEuMTAzN0w0MS40MDM3IDMzLjQ3NTNIMjcuNjAzN0MyNy40MDM3IDM0LjQ3NTMgMjcuMzAzNyAzNS40NzUzIDI3LjIwMzcgMzYuNDc1M1pNNDAuNjAzNyA0My40NzUzSDI2LjcwMzdDMjYuNzAzNyA0My4wNDc5IDI2LjcyNjIgNDIuNTk3OSAyNi43NDk5IDQyLjEyNTNDMjYuNzc2MSA0MS42MDI5IDI2LjgwMzcgNDEuMDUyOSAyNi44MDM3IDQwLjQ3NTNINDAuODAzN0M0MC43OTQ1IDQwLjU3NjIgNDAuNzg1MyA0MC42NzYyIDQwLjc3NjIgNDAuNzc1NEM0MC42ODYyIDQxLjc1NzkgNDAuNjAzNyA0Mi42NTc5IDQwLjYwMzcgNDMuNDc1M1oiIGNsaXAtcnVsZT0iZXZlbm9kZCIgZmlsbC1ydWxlPSJldmVub2RkIi8+JiN4YTs8L3N2Zz4=;" parent="atDbLLzjIxGfExJ--USy-165" vertex="1">
          <mxGeometry x="3.9200000000000728" y="7" width="14.165999999999999" height="15" as="geometry" />
        </mxCell>
        <mxCell id="atDbLLzjIxGfExJ--USy-168" value="" style="group" parent="atDbLLzjIxGfExJ--USy-156" vertex="1" connectable="0">
          <mxGeometry y="105.25" width="87" height="87.5" as="geometry" />
        </mxCell>
        <mxCell id="atDbLLzjIxGfExJ--USy-169" value="" style="whiteSpace=wrap;html=1;aspect=fixed;strokeColor=none;strokeWidth=2;rounded=1;labelPosition=center;verticalLabelPosition=bottom;align=center;verticalAlign=top;sketch=1;curveFitting=1;jiggle=2;fillColor=#e17000;fillStyle=solid;rotation=-90;" parent="atDbLLzjIxGfExJ--USy-168" vertex="1">
          <mxGeometry y="7.5" width="80" height="80" as="geometry" />
        </mxCell>
        <mxCell id="atDbLLzjIxGfExJ--USy-170" value="" style="group;" parent="atDbLLzjIxGfExJ--USy-168" vertex="1" connectable="0">
          <mxGeometry x="15" y="24.5" width="50" height="50" as="geometry" />
        </mxCell>
        <mxCell id="atDbLLzjIxGfExJ--USy-171" value="" style="points=[[0.145,0.145,0],[0.5,0,0],[0.855,0.145,0],[1,0.5,0],[0.855,0.855,0],[0.5,1,0],[0.145,0.855,0],[0,0.5,0]];shape=mxgraph.bpmn.event;html=1;verticalLabelPosition=bottom;labelBackgroundColor=none;verticalAlign=top;align=center;perimeter=ellipsePerimeter;outlineConnect=0;aspect=fixed;outline=standard;symbol=general;strokeColor=none;strokeWidth=2;fontFamily=Fira Sans;fontSource=https%3A%2F%2Ffonts.googleapis.com%2Fcss%3Ffamily%3DFira%2BSans;fontSize=14;fillColor=#d52b1e;labelPosition=center;spacingLeft=4;" parent="atDbLLzjIxGfExJ--USy-170" vertex="1">
          <mxGeometry width="50" height="50" as="geometry" />
        </mxCell>
        <mxCell id="atDbLLzjIxGfExJ--USy-172" value="" style="shape=image;verticalLabelPosition=bottom;verticalAlign=top;imageAspect=0;aspect=fixed;image=data:image/svg+xml,PHN2ZyB4bWxucz0iaHR0cDovL3d3dy53My5vcmcvMjAwMC9zdmciIGZpbGw9Im5vbmUiIHZpZXdCb3g9IjcuNSA3LjQyNjUwOTg1NzE3NzczNCA1MCA0OC45OTk5ODg1NTU5MDgyIiBoZWlnaHQ9IjQ4Ljk5OTk4ODU1NTkwODIiIHdpZHRoPSI1MCI+JiN4YTs8cGF0aCBmaWxsPSJ3aGl0ZSIgZD0iTTkuNSA3LjQyNjUxSDU1LjVDNTYuNjA0NSA3LjQyNjUxIDU3LjUgOC4zMjIwMSA1Ny41IDkuNDI2NTFWNDQuNDI2NkM1Ny41IDQ1LjUzMTEgNTYuNjA0NSA0Ni40MjY2IDU1LjUgNDYuNDI2NkgzMC4zMzM4QzMwLjI5NjkgNDYuNTEyNSAzMC4yNTc4IDQ2Ljc0NjkgMzAuNTc4MSA0Ni44MDk0QzM1LjE1MjkgNDcuNzAyIDM5LjU1NTMgNDguMzQxNyAzOS41NTUzIDQ4LjM0MTdDMzkuNzk3MyA0OS4xNTU5IDQwLjExMTkgNTAuMTkzNSA0MC41IDUxLjQyNjVDNDEuMDc3OSA1My4yNjM4IDQyLjg3OTEgNTMuNDE4NSA0My4zNjkxIDUzLjQyNjVINDUuNUM0Ni4wNTI3IDUzLjQyNjUgNDYuNSA1My44NzQzIDQ2LjUgNTQuNDI2NVY1Ni40MjY1SDE4LjVWNTQuNDI2NUMxOC41IDUzLjg3NDMgMTguOTQ3MyA1My40MjY1IDE5LjUgNTMuNDI2NUgyMS42MzA5QzIyLjEyMDkgNTMuNDE4NSAyMy45MjIxIDUzLjI2MzggMjQuNSA1MS40MjY1QzI1LjQ2NTggNDguMzU3NyAyNiA0Ni40MTY1IDI2IDQ2LjQxNjVIOS41QzguMzk1NSA0Ni40MTY1IDcuNSA0NS41MjEgNy41IDQ0LjQxNjVWOS40MjY1MUM3LjUgOC4zMjIwMSA4LjM5NTUgNy40MjY1MSA5LjUgNy40MjY1MVpNMTIuNSAzOS40MjY1SDUyLjVWMTIuNDI2NUgxMi41VjM5LjQyNjVaTTMzLjU0NDMgMjEuMjE5NUMzNC4xNDEyIDIxLjM0NTYgMzQuNzYxNCAyMS40NzkyIDM1LjM5NjIgMjEuNjE5M0MzNS43NTg5IDIxLjY5OTMgMzUuODkyOSAyMi4xMjc4IDM1Ljg5MjkgMjIuNjIyOUMzNS44OTI5IDIzLjExODEgMzUuNzU3MiAyMy41NDEzIDM1LjM5NjEgMjMuNjI2NkMzNC43NTkgMjMuNzc3MSAzNC4xMzI5IDIzLjkxODQgMzMuNTI4NyAyNC4wNTAyQzMzLjE3NDQgMjQuMTI3NSAzMi44ODQxIDI0LjM3MjMgMzIuNzQ2NSAyNC43MDc3TDMyLjczMjkgMjQuNzQwNEMzMi41OTE5IDI1LjA3NzggMzIuNjI0MiAyNS40NTkxIDMyLjgyMzcgMjUuNzY1NUMzMy4xNTY2IDI2LjI3NjcgMzMuNTAwOSAyNi44MDk3IDMzLjg1MDYgMjcuMzU3N0MzNC4wNTA0IDI3LjY3MDggMzMuODQyMiAyOC4wNjg1IDMzLjQ5MjEgMjguNDE4N0MzMy4xNDE5IDI4Ljc2ODcgMzIuNzQ2NyAyOC45NzIxIDMyLjQzMTEgMjguNzc3MUMzMS44NzQyIDI4LjQzMzEgMzEuMzMxOSAyOC4wOTAzIDMwLjgxMTQgMjcuNzU2M0MzMC41MDgxIDI3LjU2MTYgMzAuMTMyOCAyNy41Mjg2IDI5Ljc5OTQgMjcuNjY1OEwyOS43NjY1IDI3LjY3OTJDMjkuNDI1NiAyNy44MTcgMjkuMTc1OSAyOC4xMTA5IDI5LjA5OTggMjguNDcwOEMyOC45NzM3IDI5LjA2NzcgMjguODQwMyAyOS42ODc5IDI4LjcwMDEgMzAuMzIyN0MyOC42MiAzMC42ODUzIDI4LjE5MTYgMzAuODE5NCAyNy42OTY0IDMwLjgxOTRDMjcuMjAxMyAzMC44MTk0IDI2Ljc3OCAzMC42ODM3IDI2LjY5MjggMzAuMzIyNUMyNi41NDI0IDI5LjY4NTcgMjYuNDAxMiAyOS4wNiAyNi4yNjk0IDI4LjQ1NTlDMjYuMTkxOCAyOC4xMDAyIDI1Ljk0NDggMjcuODA5OSAyNS42MDc5IDI3LjY3MTlMMjUuNTk2NCAyNy42NjcyQzI1LjI2MiAyNy41Mjk0IDI0Ljg4NTQgMjcuNTYxMSAyNC41ODEgMjcuNzU2NUMyNC4wNjA2IDI4LjA5MDQgMjMuNTE4NSAyOC40MzMxIDIyLjk2MTcgMjguNzc3QzIyLjY0NjEgMjguOTcyIDIyLjI1MDkgMjguNzY4NiAyMS45MDA4IDI4LjQxODZDMjEuNTUwNiAyOC4wNjg0IDIxLjM0MjUgMjcuNjcwNyAyMS41NDIzIDI3LjM1NzZDMjEuODkyMSAyNi44MDk2IDIyLjIzNjIgMjYuMjc2NyAyMi41NjkxIDI1Ljc2NTRDMjIuNzY4NiAyNS40NTkgMjIuODAwOSAyNS4wNzc3IDIyLjY1OTkgMjQuNzQwM0wyMi42NDY0IDI0LjcwNzZDMjIuNTA4NyAyNC4zNzIzIDIyLjIxODQgMjQuMTI3NCAyMS44NjQxIDI0LjA1MDJDMjEuMjU5OCAyMy45MTg0IDIwLjYzMzkgMjMuNzc3MSAxOS45OTY3IDIzLjYyNjZDMTkuNjM1NyAyMy41NDEzIDE5LjUgMjMuMTE4MSAxOS41IDIyLjYyMjlDMTkuNSAyMi4xMjc4IDE5LjYzNCAyMS42OTkzIDE5Ljk5NjcgMjEuNjE5M0MyMC42MzE1IDIxLjQ3OTEgMjEuMjUxNiAyMS4zNDU2IDIxLjg0ODYgMjEuMjE5NUMyMi4yMDg0IDIxLjE0MzQgMjIuNTAyNSAyMC44OTM4IDIyLjY0MDIgMjAuNTUyOEwyMi42NTM2IDIwLjUxOThDMjIuNzkwOCAyMC4xODY1IDIyLjc1NzcgMTkuODExMyAyMi41NjMxIDE5LjUwNzlDMjIuMjI5IDE4Ljk4NzUgMjEuODg2MyAxOC40NDUxIDIxLjU0MjMgMTcuODg4MkMyMS4zNDczIDE3LjU3MjUgMjEuNTUwNiAxNy4xNzc0IDIxLjkwMDggMTYuODI3MkMyMi4yNTA5IDE2LjQ3NzEgMjIuNjQ4NiAxNi4yNjg5IDIyLjk2MTcgMTYuNDY4N0MyMy41MDY0IDE2LjgxNjQgMjQuMDM2MiAxNy4xNTg1IDI0LjU0NDggMTcuNDg5N0MyNC44NTY4IDE3LjY5MjggMjUuMjQ1MSAxNy43MjUyIDI1LjU4OSAxNy41ODIyTDI1LjYwMTkgMTcuNTc2OEMyNS45NDMyIDE3LjQzNiAyNi4xOTI4IDE3LjE0MDggMjYuMjcxNiAxNi43OEMyNi40MDI3IDE2LjE3OSAyNi41NDMxIDE1LjU1NjcgMjYuNjkyOCAxNC45MjMyQzI2Ljc3OCAxNC41NjIyIDI3LjIwMTMgMTQuNDI2NSAyNy42OTY0IDE0LjQyNjVDMjguMTkxNiAxNC40MjY1IDI4LjYyIDE0LjU2MDUgMjguNyAxNC45MjMyQzI4LjgzOTMgMTUuNTU0NCAyOC45NzIxIDE2LjE3MTMgMjkuMDk3NiAxNi43NjUyQzI5LjE3NDggMTcuMTMwMiAyOS40MjcyIDE3LjQyOTEgMjkuNzcyNiAxNy41Njk4TDI5LjgwNyAxNy41ODM5QzMwLjE0OTYgMTcuNzI2MSAzMC41MzY2IDE3LjY5MjUgMzAuODQ3NSAxNy40OUMzMS4zNTYzIDE3LjE1ODggMzEuODg2MiAxNi44MTY1IDMyLjQzMTIgMTYuNDY4N0MzMi43NDQ0IDE2LjI2ODkgMzMuMTQyIDE2LjQ3NzEgMzMuNDkyMiAxNi44MjcyQzMzLjg0MjMgMTcuMTc3NCAzNC4wNDU3IDE3LjU3MjYgMzMuODUwNyAxNy44ODgyQzMzLjUwNjYgMTguNDQ1MSAzMy4xNjM5IDE4Ljk4NzUgMzIuODI5OSAxOS41MDc5QzMyLjYzNTIgMTkuODExMiAzMi42MDIxIDIwLjE4NjYgMzIuNzM5MyAyMC41MTk4TDMyLjc1MjggMjAuNTUyOEMzMi44OTA2IDIwLjg5MzggMzMuMTg0NSAyMS4xNDM0IDMzLjU0NDMgMjEuMjE5NVpNMjUuMDcxNyAyMi42MjI4QzI1LjA3MTcgMjQuMDcyNSAyNi4yNDY5IDI1LjI0NzUgMjcuNjk2NCAyNS4yNDc1QzI5LjE0NiAyNS4yNDc1IDMwLjMyMTEgMjQuMDcyNSAzMC4zMjExIDIyLjYyMjhDMzAuMzIxMSAyMS4xNzMyIDI5LjE0NiAxOS45OTgyIDI3LjY5NjQgMTkuOTk4MkMyNi4yNDY5IDE5Ljk5ODIgMjUuMDcxNyAyMS4xNzMzIDI1LjA3MTcgMjIuNjIyOFpNNDYuMDkxIDI5Ljk5MjhDNDUuNTY4MiAyOS44Nzc1IDQ1LjA1NzUgMjkuNzY3NSA0NC41NjU5IDI5LjY2MzZDNDQuMjY5NiAyOS42MDEgNDQuMDI3NSAyOS4zOTU0IDQzLjkxNCAyOS4xMTQ2TDQzLjkwMjkgMjkuMDg3NEM0My43OSAyOC44MTI5IDQzLjgxNzIgMjguNTAzOCA0My45Nzc2IDI4LjI1NEM0NC4yNTI2IDI3LjgyNTUgNDQuNTM0OSAyNy4zNzg4IDQ0LjgxODIgMjYuOTIwMkM0NC45Nzg4IDI2LjY2MDMgNDQuODExMyAyNi4zMzQ4IDQ0LjUyMyAyNi4wNDY0QzQ0LjIzNDYgMjUuNzU4MSA0My45MDcxIDI1LjU4NjYgNDMuNjQ5MiAyNS43NTExQzQzLjIwMDQgMjYuMDM3NiA0Mi43NjQgMjYuMzE5NSA0Mi4zNDUgMjYuNTkyMkM0Mi4wODkgMjYuNzU5IDQxLjc3MDIgMjYuNzg2NyA0MS40ODgxIDI2LjY2OTVMNDEuNDU5OCAyNi42NThDNDEuMTc1NCAyNi41NDIxIDQwLjk2NzUgMjYuMjk1OSA0MC45MDM5IDI1Ljk5NTNDNDAuODAwNSAyNS41MDYyIDQwLjY5MTIgMjQuOTk4MiA0MC41NzY0IDI0LjQ3ODRDNDAuNTEwNiAyNC4xNzk3IDQwLjE1NzggMjQuMDY5NCAzOS43NSAyNC4wNjk0QzM5LjM0MjIgMjQuMDY5NCAzOC45OTM3IDI0LjE4MTEgMzguOTIzNSAyNC40Nzg0QzM4LjgwMDIgMjUuMDAwMSAzOC42ODQ2IDI1LjUxMjYgMzguNTc2NiAyNi4wMDc2QzM4LjUxMTcgMjYuMzA0NiAzOC4zMDYxIDI2LjU0NzcgMzguMDI1MSAyNi42NjM3TDM4LjAxNDUgMjYuNjY4MkMzNy43MzEzIDI2Ljc4NiAzNy40MTE1IDI2Ljc1OTMgMzcuMTU0NSAyNi41OTJDMzYuNzM1NyAyNi4zMTkzIDM2LjI5OTQgMjYuMDM3NSAzNS44NTA4IDI1Ljc1MTFDMzUuNTkzIDI1LjU4NjYgMzUuMjY1NSAyNS43NTgxIDM0Ljk3NzEgMjYuMDQ2NEMzNC42ODg4IDI2LjMzNDggMzQuNTIxMyAyNi42NjAyIDM0LjY4MTkgMjYuOTIwMkMzNC45NjUyIDI3LjM3ODggMzUuMjQ3NCAyNy44MjU1IDM1LjUyMjUgMjguMjU0QzM1LjY4MjggMjguNTAzOSAzNS43MTAxIDI4LjgxMjkgMzUuNTk3MSAyOS4wODc0TDM1LjU4NiAyOS4xMTQ2QzM1LjQ3MjYgMjkuMzk1NCAzNS4yMzA0IDI5LjYwMSAzNC45MzQyIDI5LjY2MzZDMzQuNDQyNSAyOS43Njc1IDMzLjkzMTggMjkuODc3NCAzMy40MDkgMjkuOTkyOEMzMy4xMTA0IDMwLjA1ODggMzMgMzAuNDExNiAzMyAzMC44MTk0QzMzIDMxLjIyNzEgMzMuMTExNyAzMS41NzU3IDMzLjQwOSAzMS42NDU5QzMzLjkzMzggMzEuNzY5OCAzNC40NDkzIDMxLjg4NjIgMzQuOTQ2OSAzMS45OTQ3QzM1LjIzODcgMzIuMDU4MyAzNS40Nzc3IDMyLjI2IDM1LjU5MTEgMzIuNTM2MkwzNS42MDIyIDMyLjU2MzFDMzUuNzE4NCAzMi44NDEgMzUuNjkxOCAzMy4xNTQ5IDM1LjUyNzUgMzMuNDA3MkMzNS4yNTMzIDMzLjgyODQgMzQuOTcgMzQuMjY3MiAzNC42ODE5IDM0LjcxODVDMzQuNTE3MyAzNC45NzYzIDM0LjY4ODggMzUuMzAzOCAzNC45NzcxIDM1LjU5MjNDMzUuMjY1NSAzNS44ODA1IDM1LjU5MDkgMzYuMDQ4IDM1Ljg1MDggMzUuODg3NEMzNi4zMDkzIDM1LjYwNDIgMzYuNzU1OCAzNS4zMjIgMzcuMTg0NCAzNS4wNDdDMzcuNDM1MSAzNC44ODYxIDM3Ljc0NTIgMzQuODYgMzguMDIwNiAzNC45NzM1TDM4LjAzIDM0Ljk3NzRDMzguMzA3NSAzNS4wOTEgMzguNTEwOSAzNS4zMyAzOC41NzQ4IDM1LjYyM0MzOC42ODMzIDM2LjEyMDUgMzguNzk5NiAzNi42MzU3IDM4LjkyMzUgMzcuMTYwMkMzOC45OTM3IDM3LjQ1NzYgMzkuMzQyMiAzNy41Njk0IDM5Ljc1IDM3LjU2OTRDNDAuMTU3OCAzNy41Njk0IDQwLjUxMDYgMzcuNDU5IDQwLjU3NjUgMzcuMTYwM0M0MC42OTIgMzYuNjM3NSA0MC44MDE5IDM2LjEyNjkgNDAuOTA1OCAzNS42MzUyQzQwLjk2ODQgMzUuMzM4OCA0MS4xNzQgMzUuMDk2OCA0MS40NTQ3IDM0Ljk4MzNMNDEuNDgxOSAzNC45NzIzQzQxLjc1NjQgMzQuODU5MyA0Mi4wNjU1IDM0Ljg4NjUgNDIuMzE1MiAzNS4wNDY5QzQyLjc0MzkgMzUuMzIxOSA0My4xOTA1IDM1LjYwNDIgNDMuNjQ5MSAzNS44ODc1QzQzLjkwOSAzNi4wNDgxIDQ0LjIzNDUgMzUuODgwNiA0NC41MjI5IDM1LjU5MjNDNDQuODExMiAzNS4zMDM5IDQ0Ljk4MjcgMzQuOTc2NCA0NC44MTgxIDM0LjcxODZDNDQuNTMwMSAzNC4yNjczIDQ0LjI0NjYgMzMuODI4NCA0My45NzI1IDMzLjQwNzNDNDMuODA4MiAzMy4xNTUgNDMuNzgxNiAzMi44NDEgNDMuODk3NyAzMi41NjMyTDQzLjkwODkgMzIuNTM2MkM0NC4wMjIyIDMyLjI2MDEgNDQuMjYxMyAzMi4wNTg0IDQ0LjU1MzEgMzEuOTk0N0M0NS4wNTA3IDMxLjg4NjIgNDUuNTY2MiAzMS43Njk4IDQ2LjA5MDkgMzEuNjQ1OUM0Ni4zODgzIDMxLjU3NTcgNDYuNSAzMS4yMjcxIDQ2LjUgMzAuODE5NEM0Ni41IDMwLjQxMTYgNDYuMzg5NyAzMC4wNTg4IDQ2LjA5MSAyOS45OTI4Wk0zOS43NSAzMi45ODA4QzM4LjU1NjMgMzIuOTgwOCAzNy41ODg1IDMyLjAxMzEgMzcuNTg4NSAzMC44MTkzQzM3LjU4ODUgMjkuNjI1NiAzOC41NTYzIDI4LjY1NzggMzkuNzUgMjguNjU3OEM0MC45NDM4IDI4LjY1NzggNDEuOTExNSAyOS42MjU1IDQxLjkxMTUgMzAuODE5M0M0MS45MTE1IDMyLjAxMzEgNDAuOTQzOCAzMi45ODA4IDM5Ljc1IDMyLjk4MDhaIiBjbGlwLXJ1bGU9ImV2ZW5vZGQiIGZpbGwtcnVsZT0iZXZlbm9kZCIvPiYjeGE7PC9zdmc+;" parent="atDbLLzjIxGfExJ--USy-170" vertex="1">
          <mxGeometry x="10.440000000000055" y="10" width="30.61" height="30" as="geometry" />
        </mxCell>
        <mxCell id="atDbLLzjIxGfExJ--USy-173" value="" style="whiteSpace=wrap;html=1;aspect=fixed;strokeColor=none;strokeWidth=2;sketch=1;curveFitting=1;jiggle=2;fillColor=#ffb612;fillStyle=solid;" parent="atDbLLzjIxGfExJ--USy-168" vertex="1">
          <mxGeometry x="60" y="4" width="22" height="22" as="geometry" />
        </mxCell>
        <mxCell id="atDbLLzjIxGfExJ--USy-174" value="" style="group" parent="atDbLLzjIxGfExJ--USy-168" vertex="1" connectable="0">
          <mxGeometry x="65" width="22" height="24.5" as="geometry" />
        </mxCell>
        <mxCell id="atDbLLzjIxGfExJ--USy-175" value="" style="whiteSpace=wrap;html=1;aspect=fixed;strokeColor=none;strokeWidth=2;sketch=1;curveFitting=1;jiggle=2;fillColor=#E17000;fillStyle=solid;" parent="atDbLLzjIxGfExJ--USy-174" vertex="1">
          <mxGeometry width="22" height="22" as="geometry" />
        </mxCell>
        <mxCell id="atDbLLzjIxGfExJ--USy-176" value="" style="shape=image;verticalLabelPosition=bottom;verticalAlign=top;imageAspect=0;aspect=fixed;image=data:image/svg+xml,PHN2ZyB4bWxucz0iaHR0cDovL3d3dy53My5vcmcvMjAwMC9zdmciIGZpbGw9Im5vbmUiIHZpZXdCb3g9IjYuMDE4Nzk3Mzk3NjEzNTI1IDUuMDAwNDkwMTg4NTk4NjMzIDUwLjk4MzUwMTQzNDMyNjE3IDUzLjg5OTUxMzI0NDYyODkwNiIgaGVpZ2h0PSI1My44OTk1MTMyNDQ2Mjg5MDYiIHdpZHRoPSI1MC45ODM1MDE0MzQzMjYxNyI+JiN4YTs8cGF0aCBmaWxsPSJ3aGl0ZSIgZD0iTTI5LjUzNTkgNTBDMjkuMTg5OCA1MC42NzkgMjguNzk0OCA1MS40MDg4IDI4LjM0MjEgNTIuMTM5N0MyNS45NjIxIDU1Ljk4MjQgMjIuNjU0NCA1Ni44NDAzIDIwLjQwNjMgNTYuMDQ2OUMxOS45MDM0IDU1Ljg2OTQgMjAuMDk4MiA1NS41NjY0IDIwLjA5ODIgNTUuNTY2NEMyMy4xNDgxIDU1LjU2NjQgMjUuMjczNiA1My4xMDQ5IDI3LjAyMzkgNTBDMjcuMzg3MiA0OS4zNTU2IDI3LjczNCA0OC42ODM4IDI4LjA2OTcgNDhINDQuODgzNUM0NC43MDQ0IDQ2Ljc5MyA0NC42MzU1IDQ1LjI2NzggNDQuNjY3MSA0My40Njc0QzQ1LjAxMzUgMzYuMTc5MyA0Ni44ODgyIDI0LjAwNjMgNDguMDg4NyAxOC4wMDI3QzQ4LjQyMSAxNi4zNDExIDQ4LjYxODIgMTMuNzc1OCA0OC4zNTA0IDEyLjA1ODVDNDguMDM0MSAxMC4wMzAxIDQ3LjE5OTYgOC42MzM0OSA0Ni40MTA3IDcuNjcxMzlDNDUuMDE5NiA1Ljk3NDA5IDQzLjAwNTkgNS4wMDA0OSA0MC44ODY4IDUuMDAwNDlIMTQuMDc1OUM5LjE2NjA2IDUuMDAwNDkgNi4zMzkyNiA4LjIyNjk5IDYuMDQ3NzYgMTEuODY0OUM1LjYzMzA2IDE3LjAzMjkgOS43MzczNiAyMC4zMTYxIDE0LjE0OTEgMjEuMDE1OEMxNC40NTk4IDE5LjMxNTcgMTQuNzI0NyAxNy45NDYyIDE0Ljg5NDUgMTcuMDg4N0MxMi45OTM3IDE2LjgwODggOS43NzA2NiAxNS40OCAxMC4wMzUxIDEyLjE4NTJDMTAuMTgyNCAxMC4zNDQgMTEuNzQxMiA4LjkwMjc5IDEzLjU4MzkgOC45MDA0OUgxMy41OTJDMTQuNTIwMiA4LjkwMTU5IDE1LjM4MjIgOS4zMjk3OSAxNi4wMTkgMTAuMTA3MUMxNy4yMTcyIDExLjU2OCAxNy41NCAxNC4wNTczIDE2LjkyODIgMTcuMTE2OUMxNS41NiAyMy45NTc3IDEyLjcyNzEgNDAuMjc4IDEzLjA5MzggNDcuMDA5NUMxMy4yNDYgNDkuNzk4NCAxNC4zMzU0IDU4LjkgMjEuOTY1OCA1OC45SDQ2QzUxLjkzODggNTguOSA1NS4zMzgzIDUzLjY5NjkgNTcuMDAyMyA1MEgyOS41MzU5Wk0yNC45MDM2IDI2LjM3NTNDMjQuMTAzNiAyNi4zNzUzIDIzLjQwMzYgMjcuMDc1MyAyMy40MDM2IDI3Ljg3NTNDMjMuNDAzNiAyOC42NzUzIDI0LjEwMzYgMjkuMzc1MyAyNC45MDM2IDI5LjM3NTNDMjUuNzAzNiAyOS4zNzUzIDI2LjQwMzYgMjguNjc1MyAyNi40MDM2IDI3Ljg3NTNDMjYuNDAzNiAyNy4wNzUzIDI1LjgwMzYgMjYuMzc1MyAyNC45MDM2IDI2LjM3NTNaTTI0LjQxNTEgMjAuOTc1M0MyNC40MTUxIDIwLjE3NTMgMjUuMTE1MSAxOS40NzUzIDI1LjkxNTEgMTkuNDc1M0MyNi44MTUxIDE5LjQ3NTMgMjcuNDE1MSAyMC4xNzUzIDI3LjQxNTEgMjAuOTc1M0MyNy40MTUxIDIxLjc3NTMgMjYuNzE1MSAyMi40NzUzIDI1LjkxNTEgMjIuNDc1M0MyNS4xMTUxIDIyLjQ3NTMgMjQuNDE1MSAyMS43NzUzIDI0LjQxNTEgMjAuOTc1M1pNMjQuMDAzNyAzMy4zNzUzQzIzLjIwMzcgMzMuMzc1MyAyMi41MDM3IDM0LjA3NTMgMjIuNTAzNyAzNC44NzUzQzIyLjUwMzcgMzUuNjc1MyAyMy4yMDM3IDM2LjM3NTMgMjQuMDAzNyAzNi4zNzUzQzI0LjgwMzcgMzYuMzc1MyAyNS41MDM3IDM1LjY3NTMgMjUuNTAzNyAzNC44NzUzQzI1LjUwMzcgMzMuOTc1MyAyNC45MDM3IDMzLjM3NTMgMjQuMDAzNyAzMy4zNzUzWk0yMS45MDM2IDQxLjg3NTNDMjEuOTAzNiA0MS4wNzUzIDIyLjYwMzYgNDAuMzc1MyAyMy40MDM2IDQwLjM3NTNDMjQuMjAzNiA0MC4zNzUzIDI0LjkwMzYgNDEuMDc1MyAyNC45MDM2IDQxLjg3NTNDMjQuOTAzNiA0Mi42NzUzIDI0LjIwMzYgNDMuMzc1MyAyMy40MDM2IDQzLjM3NTNDMjIuNjAzNiA0My4zNzUzIDIxLjkwMzYgNDIuNjc1MyAyMS45MDM2IDQxLjg3NTNaTTI4LjEwMzcgMjkuNDc1M0g0Mi4wMDM3QzQyLjA1MzcgMjguOTc1MyA0Mi4xMjg3IDI4LjQ3NTMgNDIuMjAzNyAyNy45NzUzQzQyLjI3ODcgMjcuNDc1MyA0Mi4zNTM3IDI2Ljk3NTMgNDIuNDAzNyAyNi40NzUzSDI4LjUwMzdDMjguMzAzNyAyNy40NzUzIDI4LjIwMzcgMjguNDc1MyAyOC4xMDM3IDI5LjQ3NTNaTTQzLjE2NjMgMjIuNTc1M0gyOS4xMTMxQzI5LjIwNTMgMjEuNjUzMyAyOS4zOTA0IDIwLjczMTMgMjkuNTc1NCAxOS44MDkzTDI5LjYyMjMgMTkuNTc1M0g0My41OTA3QzQzLjU0MDcgMjAuMDc1MyA0My40NTk2IDIwLjU3NTMgNDMuMzc4NSAyMS4wNzUzQzQzLjI5NzQgMjEuNTc1MyA0My4yMTYzIDIyLjA3NTMgNDMuMTY2MyAyMi41NzUzWk0yNy4yMDM3IDM2LjQ3NTNINDEuMTAzN0w0MS40MDM3IDMzLjQ3NTNIMjcuNjAzN0MyNy40MDM3IDM0LjQ3NTMgMjcuMzAzNyAzNS40NzUzIDI3LjIwMzcgMzYuNDc1M1pNNDAuNjAzNyA0My40NzUzSDI2LjcwMzdDMjYuNzAzNyA0My4wNDc5IDI2LjcyNjIgNDIuNTk3OSAyNi43NDk5IDQyLjEyNTNDMjYuNzc2MSA0MS42MDI5IDI2LjgwMzcgNDEuMDUyOSAyNi44MDM3IDQwLjQ3NTNINDAuODAzN0M0MC43OTQ1IDQwLjU3NjIgNDAuNzg1MyA0MC42NzYyIDQwLjc3NjIgNDAuNzc1NEM0MC42ODYyIDQxLjc1NzkgNDAuNjAzNyA0Mi42NTc5IDQwLjYwMzcgNDMuNDc1M1oiIGNsaXAtcnVsZT0iZXZlbm9kZCIgZmlsbC1ydWxlPSJldmVub2RkIi8+JiN4YTs8L3N2Zz4=;" parent="atDbLLzjIxGfExJ--USy-174" vertex="1">
          <mxGeometry x="4.170000000000016" y="1.75" width="14.165999999999999" height="15" as="geometry" />
        </mxCell>
        <mxCell id="atDbLLzjIxGfExJ--USy-177" value="" style="group;" parent="atDbLLzjIxGfExJ--USy-156" vertex="1" connectable="0">
          <mxGeometry x="16.230000000000004" y="25" width="50" height="50" as="geometry" />
        </mxCell>
        <mxCell id="atDbLLzjIxGfExJ--USy-178" value="" style="points=[[0.145,0.145,0],[0.5,0,0],[0.855,0.145,0],[1,0.5,0],[0.855,0.855,0],[0.5,1,0],[0.145,0.855,0],[0,0.5,0]];shape=mxgraph.bpmn.event;html=1;verticalLabelPosition=bottom;labelBackgroundColor=none;verticalAlign=top;align=center;perimeter=ellipsePerimeter;outlineConnect=0;aspect=fixed;outline=standard;symbol=general;strokeColor=none;strokeWidth=2;fontFamily=Fira Sans;fontSource=https%3A%2F%2Ffonts.googleapis.com%2Fcss%3Ffamily%3DFira%2BSans;fontSize=14;fillColor=#d52b1e;labelPosition=center;spacingLeft=4;" parent="atDbLLzjIxGfExJ--USy-177" vertex="1">
          <mxGeometry width="50" height="50" as="geometry" />
        </mxCell>
        <mxCell id="atDbLLzjIxGfExJ--USy-179" value="" style="shape=image;verticalLabelPosition=bottom;verticalAlign=top;imageAspect=0;aspect=fixed;image=data:image/svg+xml,PHN2ZyB4bWxucz0iaHR0cDovL3d3dy53My5vcmcvMjAwMC9zdmciIGZpbGw9Im5vbmUiIHZpZXdCb3g9IjcuNSA3LjQyNjUwOTg1NzE3NzczNCA1MCA0OC45OTk5ODg1NTU5MDgyIiBoZWlnaHQ9IjQ4Ljk5OTk4ODU1NTkwODIiIHdpZHRoPSI1MCI+JiN4YTs8cGF0aCBmaWxsPSJ3aGl0ZSIgZD0iTTkuNSA3LjQyNjUxSDU1LjVDNTYuNjA0NSA3LjQyNjUxIDU3LjUgOC4zMjIwMSA1Ny41IDkuNDI2NTFWNDQuNDI2NkM1Ny41IDQ1LjUzMTEgNTYuNjA0NSA0Ni40MjY2IDU1LjUgNDYuNDI2NkgzMC4zMzM4QzMwLjI5NjkgNDYuNTEyNSAzMC4yNTc4IDQ2Ljc0NjkgMzAuNTc4MSA0Ni44MDk0QzM1LjE1MjkgNDcuNzAyIDM5LjU1NTMgNDguMzQxNyAzOS41NTUzIDQ4LjM0MTdDMzkuNzk3MyA0OS4xNTU5IDQwLjExMTkgNTAuMTkzNSA0MC41IDUxLjQyNjVDNDEuMDc3OSA1My4yNjM4IDQyLjg3OTEgNTMuNDE4NSA0My4zNjkxIDUzLjQyNjVINDUuNUM0Ni4wNTI3IDUzLjQyNjUgNDYuNSA1My44NzQzIDQ2LjUgNTQuNDI2NVY1Ni40MjY1SDE4LjVWNTQuNDI2NUMxOC41IDUzLjg3NDMgMTguOTQ3MyA1My40MjY1IDE5LjUgNTMuNDI2NUgyMS42MzA5QzIyLjEyMDkgNTMuNDE4NSAyMy45MjIxIDUzLjI2MzggMjQuNSA1MS40MjY1QzI1LjQ2NTggNDguMzU3NyAyNiA0Ni40MTY1IDI2IDQ2LjQxNjVIOS41QzguMzk1NSA0Ni40MTY1IDcuNSA0NS41MjEgNy41IDQ0LjQxNjVWOS40MjY1MUM3LjUgOC4zMjIwMSA4LjM5NTUgNy40MjY1MSA5LjUgNy40MjY1MVpNMTIuNSAzOS40MjY1SDUyLjVWMTIuNDI2NUgxMi41VjM5LjQyNjVaTTMzLjU0NDMgMjEuMjE5NUMzNC4xNDEyIDIxLjM0NTYgMzQuNzYxNCAyMS40NzkyIDM1LjM5NjIgMjEuNjE5M0MzNS43NTg5IDIxLjY5OTMgMzUuODkyOSAyMi4xMjc4IDM1Ljg5MjkgMjIuNjIyOUMzNS44OTI5IDIzLjExODEgMzUuNzU3MiAyMy41NDEzIDM1LjM5NjEgMjMuNjI2NkMzNC43NTkgMjMuNzc3MSAzNC4xMzI5IDIzLjkxODQgMzMuNTI4NyAyNC4wNTAyQzMzLjE3NDQgMjQuMTI3NSAzMi44ODQxIDI0LjM3MjMgMzIuNzQ2NSAyNC43MDc3TDMyLjczMjkgMjQuNzQwNEMzMi41OTE5IDI1LjA3NzggMzIuNjI0MiAyNS40NTkxIDMyLjgyMzcgMjUuNzY1NUMzMy4xNTY2IDI2LjI3NjcgMzMuNTAwOSAyNi44MDk3IDMzLjg1MDYgMjcuMzU3N0MzNC4wNTA0IDI3LjY3MDggMzMuODQyMiAyOC4wNjg1IDMzLjQ5MjEgMjguNDE4N0MzMy4xNDE5IDI4Ljc2ODcgMzIuNzQ2NyAyOC45NzIxIDMyLjQzMTEgMjguNzc3MUMzMS44NzQyIDI4LjQzMzEgMzEuMzMxOSAyOC4wOTAzIDMwLjgxMTQgMjcuNzU2M0MzMC41MDgxIDI3LjU2MTYgMzAuMTMyOCAyNy41Mjg2IDI5Ljc5OTQgMjcuNjY1OEwyOS43NjY1IDI3LjY3OTJDMjkuNDI1NiAyNy44MTcgMjkuMTc1OSAyOC4xMTA5IDI5LjA5OTggMjguNDcwOEMyOC45NzM3IDI5LjA2NzcgMjguODQwMyAyOS42ODc5IDI4LjcwMDEgMzAuMzIyN0MyOC42MiAzMC42ODUzIDI4LjE5MTYgMzAuODE5NCAyNy42OTY0IDMwLjgxOTRDMjcuMjAxMyAzMC44MTk0IDI2Ljc3OCAzMC42ODM3IDI2LjY5MjggMzAuMzIyNUMyNi41NDI0IDI5LjY4NTcgMjYuNDAxMiAyOS4wNiAyNi4yNjk0IDI4LjQ1NTlDMjYuMTkxOCAyOC4xMDAyIDI1Ljk0NDggMjcuODA5OSAyNS42MDc5IDI3LjY3MTlMMjUuNTk2NCAyNy42NjcyQzI1LjI2MiAyNy41Mjk0IDI0Ljg4NTQgMjcuNTYxMSAyNC41ODEgMjcuNzU2NUMyNC4wNjA2IDI4LjA5MDQgMjMuNTE4NSAyOC40MzMxIDIyLjk2MTcgMjguNzc3QzIyLjY0NjEgMjguOTcyIDIyLjI1MDkgMjguNzY4NiAyMS45MDA4IDI4LjQxODZDMjEuNTUwNiAyOC4wNjg0IDIxLjM0MjUgMjcuNjcwNyAyMS41NDIzIDI3LjM1NzZDMjEuODkyMSAyNi44MDk2IDIyLjIzNjIgMjYuMjc2NyAyMi41NjkxIDI1Ljc2NTRDMjIuNzY4NiAyNS40NTkgMjIuODAwOSAyNS4wNzc3IDIyLjY1OTkgMjQuNzQwM0wyMi42NDY0IDI0LjcwNzZDMjIuNTA4NyAyNC4zNzIzIDIyLjIxODQgMjQuMTI3NCAyMS44NjQxIDI0LjA1MDJDMjEuMjU5OCAyMy45MTg0IDIwLjYzMzkgMjMuNzc3MSAxOS45OTY3IDIzLjYyNjZDMTkuNjM1NyAyMy41NDEzIDE5LjUgMjMuMTE4MSAxOS41IDIyLjYyMjlDMTkuNSAyMi4xMjc4IDE5LjYzNCAyMS42OTkzIDE5Ljk5NjcgMjEuNjE5M0MyMC42MzE1IDIxLjQ3OTEgMjEuMjUxNiAyMS4zNDU2IDIxLjg0ODYgMjEuMjE5NUMyMi4yMDg0IDIxLjE0MzQgMjIuNTAyNSAyMC44OTM4IDIyLjY0MDIgMjAuNTUyOEwyMi42NTM2IDIwLjUxOThDMjIuNzkwOCAyMC4xODY1IDIyLjc1NzcgMTkuODExMyAyMi41NjMxIDE5LjUwNzlDMjIuMjI5IDE4Ljk4NzUgMjEuODg2MyAxOC40NDUxIDIxLjU0MjMgMTcuODg4MkMyMS4zNDczIDE3LjU3MjUgMjEuNTUwNiAxNy4xNzc0IDIxLjkwMDggMTYuODI3MkMyMi4yNTA5IDE2LjQ3NzEgMjIuNjQ4NiAxNi4yNjg5IDIyLjk2MTcgMTYuNDY4N0MyMy41MDY0IDE2LjgxNjQgMjQuMDM2MiAxNy4xNTg1IDI0LjU0NDggMTcuNDg5N0MyNC44NTY4IDE3LjY5MjggMjUuMjQ1MSAxNy43MjUyIDI1LjU4OSAxNy41ODIyTDI1LjYwMTkgMTcuNTc2OEMyNS45NDMyIDE3LjQzNiAyNi4xOTI4IDE3LjE0MDggMjYuMjcxNiAxNi43OEMyNi40MDI3IDE2LjE3OSAyNi41NDMxIDE1LjU1NjcgMjYuNjkyOCAxNC45MjMyQzI2Ljc3OCAxNC41NjIyIDI3LjIwMTMgMTQuNDI2NSAyNy42OTY0IDE0LjQyNjVDMjguMTkxNiAxNC40MjY1IDI4LjYyIDE0LjU2MDUgMjguNyAxNC45MjMyQzI4LjgzOTMgMTUuNTU0NCAyOC45NzIxIDE2LjE3MTMgMjkuMDk3NiAxNi43NjUyQzI5LjE3NDggMTcuMTMwMiAyOS40MjcyIDE3LjQyOTEgMjkuNzcyNiAxNy41Njk4TDI5LjgwNyAxNy41ODM5QzMwLjE0OTYgMTcuNzI2MSAzMC41MzY2IDE3LjY5MjUgMzAuODQ3NSAxNy40OUMzMS4zNTYzIDE3LjE1ODggMzEuODg2MiAxNi44MTY1IDMyLjQzMTIgMTYuNDY4N0MzMi43NDQ0IDE2LjI2ODkgMzMuMTQyIDE2LjQ3NzEgMzMuNDkyMiAxNi44MjcyQzMzLjg0MjMgMTcuMTc3NCAzNC4wNDU3IDE3LjU3MjYgMzMuODUwNyAxNy44ODgyQzMzLjUwNjYgMTguNDQ1MSAzMy4xNjM5IDE4Ljk4NzUgMzIuODI5OSAxOS41MDc5QzMyLjYzNTIgMTkuODExMiAzMi42MDIxIDIwLjE4NjYgMzIuNzM5MyAyMC41MTk4TDMyLjc1MjggMjAuNTUyOEMzMi44OTA2IDIwLjg5MzggMzMuMTg0NSAyMS4xNDM0IDMzLjU0NDMgMjEuMjE5NVpNMjUuMDcxNyAyMi42MjI4QzI1LjA3MTcgMjQuMDcyNSAyNi4yNDY5IDI1LjI0NzUgMjcuNjk2NCAyNS4yNDc1QzI5LjE0NiAyNS4yNDc1IDMwLjMyMTEgMjQuMDcyNSAzMC4zMjExIDIyLjYyMjhDMzAuMzIxMSAyMS4xNzMyIDI5LjE0NiAxOS45OTgyIDI3LjY5NjQgMTkuOTk4MkMyNi4yNDY5IDE5Ljk5ODIgMjUuMDcxNyAyMS4xNzMzIDI1LjA3MTcgMjIuNjIyOFpNNDYuMDkxIDI5Ljk5MjhDNDUuNTY4MiAyOS44Nzc1IDQ1LjA1NzUgMjkuNzY3NSA0NC41NjU5IDI5LjY2MzZDNDQuMjY5NiAyOS42MDEgNDQuMDI3NSAyOS4zOTU0IDQzLjkxNCAyOS4xMTQ2TDQzLjkwMjkgMjkuMDg3NEM0My43OSAyOC44MTI5IDQzLjgxNzIgMjguNTAzOCA0My45Nzc2IDI4LjI1NEM0NC4yNTI2IDI3LjgyNTUgNDQuNTM0OSAyNy4zNzg4IDQ0LjgxODIgMjYuOTIwMkM0NC45Nzg4IDI2LjY2MDMgNDQuODExMyAyNi4zMzQ4IDQ0LjUyMyAyNi4wNDY0QzQ0LjIzNDYgMjUuNzU4MSA0My45MDcxIDI1LjU4NjYgNDMuNjQ5MiAyNS43NTExQzQzLjIwMDQgMjYuMDM3NiA0Mi43NjQgMjYuMzE5NSA0Mi4zNDUgMjYuNTkyMkM0Mi4wODkgMjYuNzU5IDQxLjc3MDIgMjYuNzg2NyA0MS40ODgxIDI2LjY2OTVMNDEuNDU5OCAyNi42NThDNDEuMTc1NCAyNi41NDIxIDQwLjk2NzUgMjYuMjk1OSA0MC45MDM5IDI1Ljk5NTNDNDAuODAwNSAyNS41MDYyIDQwLjY5MTIgMjQuOTk4MiA0MC41NzY0IDI0LjQ3ODRDNDAuNTEwNiAyNC4xNzk3IDQwLjE1NzggMjQuMDY5NCAzOS43NSAyNC4wNjk0QzM5LjM0MjIgMjQuMDY5NCAzOC45OTM3IDI0LjE4MTEgMzguOTIzNSAyNC40Nzg0QzM4LjgwMDIgMjUuMDAwMSAzOC42ODQ2IDI1LjUxMjYgMzguNTc2NiAyNi4wMDc2QzM4LjUxMTcgMjYuMzA0NiAzOC4zMDYxIDI2LjU0NzcgMzguMDI1MSAyNi42NjM3TDM4LjAxNDUgMjYuNjY4MkMzNy43MzEzIDI2Ljc4NiAzNy40MTE1IDI2Ljc1OTMgMzcuMTU0NSAyNi41OTJDMzYuNzM1NyAyNi4zMTkzIDM2LjI5OTQgMjYuMDM3NSAzNS44NTA4IDI1Ljc1MTFDMzUuNTkzIDI1LjU4NjYgMzUuMjY1NSAyNS43NTgxIDM0Ljk3NzEgMjYuMDQ2NEMzNC42ODg4IDI2LjMzNDggMzQuNTIxMyAyNi42NjAyIDM0LjY4MTkgMjYuOTIwMkMzNC45NjUyIDI3LjM3ODggMzUuMjQ3NCAyNy44MjU1IDM1LjUyMjUgMjguMjU0QzM1LjY4MjggMjguNTAzOSAzNS43MTAxIDI4LjgxMjkgMzUuNTk3MSAyOS4wODc0TDM1LjU4NiAyOS4xMTQ2QzM1LjQ3MjYgMjkuMzk1NCAzNS4yMzA0IDI5LjYwMSAzNC45MzQyIDI5LjY2MzZDMzQuNDQyNSAyOS43Njc1IDMzLjkzMTggMjkuODc3NCAzMy40MDkgMjkuOTkyOEMzMy4xMTA0IDMwLjA1ODggMzMgMzAuNDExNiAzMyAzMC44MTk0QzMzIDMxLjIyNzEgMzMuMTExNyAzMS41NzU3IDMzLjQwOSAzMS42NDU5QzMzLjkzMzggMzEuNzY5OCAzNC40NDkzIDMxLjg4NjIgMzQuOTQ2OSAzMS45OTQ3QzM1LjIzODcgMzIuMDU4MyAzNS40Nzc3IDMyLjI2IDM1LjU5MTEgMzIuNTM2MkwzNS42MDIyIDMyLjU2MzFDMzUuNzE4NCAzMi44NDEgMzUuNjkxOCAzMy4xNTQ5IDM1LjUyNzUgMzMuNDA3MkMzNS4yNTMzIDMzLjgyODQgMzQuOTcgMzQuMjY3MiAzNC42ODE5IDM0LjcxODVDMzQuNTE3MyAzNC45NzYzIDM0LjY4ODggMzUuMzAzOCAzNC45NzcxIDM1LjU5MjNDMzUuMjY1NSAzNS44ODA1IDM1LjU5MDkgMzYuMDQ4IDM1Ljg1MDggMzUuODg3NEMzNi4zMDkzIDM1LjYwNDIgMzYuNzU1OCAzNS4zMjIgMzcuMTg0NCAzNS4wNDdDMzcuNDM1MSAzNC44ODYxIDM3Ljc0NTIgMzQuODYgMzguMDIwNiAzNC45NzM1TDM4LjAzIDM0Ljk3NzRDMzguMzA3NSAzNS4wOTEgMzguNTEwOSAzNS4zMyAzOC41NzQ4IDM1LjYyM0MzOC42ODMzIDM2LjEyMDUgMzguNzk5NiAzNi42MzU3IDM4LjkyMzUgMzcuMTYwMkMzOC45OTM3IDM3LjQ1NzYgMzkuMzQyMiAzNy41Njk0IDM5Ljc1IDM3LjU2OTRDNDAuMTU3OCAzNy41Njk0IDQwLjUxMDYgMzcuNDU5IDQwLjU3NjUgMzcuMTYwM0M0MC42OTIgMzYuNjM3NSA0MC44MDE5IDM2LjEyNjkgNDAuOTA1OCAzNS42MzUyQzQwLjk2ODQgMzUuMzM4OCA0MS4xNzQgMzUuMDk2OCA0MS40NTQ3IDM0Ljk4MzNMNDEuNDgxOSAzNC45NzIzQzQxLjc1NjQgMzQuODU5MyA0Mi4wNjU1IDM0Ljg4NjUgNDIuMzE1MiAzNS4wNDY5QzQyLjc0MzkgMzUuMzIxOSA0My4xOTA1IDM1LjYwNDIgNDMuNjQ5MSAzNS44ODc1QzQzLjkwOSAzNi4wNDgxIDQ0LjIzNDUgMzUuODgwNiA0NC41MjI5IDM1LjU5MjNDNDQuODExMiAzNS4zMDM5IDQ0Ljk4MjcgMzQuOTc2NCA0NC44MTgxIDM0LjcxODZDNDQuNTMwMSAzNC4yNjczIDQ0LjI0NjYgMzMuODI4NCA0My45NzI1IDMzLjQwNzNDNDMuODA4MiAzMy4xNTUgNDMuNzgxNiAzMi44NDEgNDMuODk3NyAzMi41NjMyTDQzLjkwODkgMzIuNTM2MkM0NC4wMjIyIDMyLjI2MDEgNDQuMjYxMyAzMi4wNTg0IDQ0LjU1MzEgMzEuOTk0N0M0NS4wNTA3IDMxLjg4NjIgNDUuNTY2MiAzMS43Njk4IDQ2LjA5MDkgMzEuNjQ1OUM0Ni4zODgzIDMxLjU3NTcgNDYuNSAzMS4yMjcxIDQ2LjUgMzAuODE5NEM0Ni41IDMwLjQxMTYgNDYuMzg5NyAzMC4wNTg4IDQ2LjA5MSAyOS45OTI4Wk0zOS43NSAzMi45ODA4QzM4LjU1NjMgMzIuOTgwOCAzNy41ODg1IDMyLjAxMzEgMzcuNTg4NSAzMC44MTkzQzM3LjU4ODUgMjkuNjI1NiAzOC41NTYzIDI4LjY1NzggMzkuNzUgMjguNjU3OEM0MC45NDM4IDI4LjY1NzggNDEuOTExNSAyOS42MjU1IDQxLjkxMTUgMzAuODE5M0M0MS45MTE1IDMyLjAxMzEgNDAuOTQzOCAzMi45ODA4IDM5Ljc1IDMyLjk4MDhaIiBjbGlwLXJ1bGU9ImV2ZW5vZGQiIGZpbGwtcnVsZT0iZXZlbm9kZCIvPiYjeGE7PC9zdmc+;" parent="atDbLLzjIxGfExJ--USy-177" vertex="1">
          <mxGeometry x="10.440000000000055" y="10" width="30.61" height="30" as="geometry" />
        </mxCell>
        <mxCell id="atDbLLzjIxGfExJ--USy-180" value="" style="group" parent="atDbLLzjIxGfExJ--USy-156" vertex="1" connectable="0">
          <mxGeometry x="67.23" y="10" width="22" height="22" as="geometry" />
        </mxCell>
        <mxCell id="atDbLLzjIxGfExJ--USy-181" value="" style="group" parent="atDbLLzjIxGfExJ--USy-180" vertex="1" connectable="0">
          <mxGeometry x="-3.9099999999999886" y="-5.5" width="22" height="22" as="geometry" />
        </mxCell>
        <mxCell id="atDbLLzjIxGfExJ--USy-182" value="" style="whiteSpace=wrap;html=1;aspect=fixed;strokeColor=none;strokeWidth=2;sketch=1;curveFitting=1;jiggle=2;fillColor=#76D2B6;fillStyle=solid;" parent="atDbLLzjIxGfExJ--USy-181" vertex="1">
          <mxGeometry width="22" height="22" as="geometry" />
        </mxCell>
        <mxCell id="atDbLLzjIxGfExJ--USy-183" value="" style="shape=image;verticalLabelPosition=bottom;verticalAlign=top;imageAspect=0;aspect=fixed;image=data:image/svg+xml,PHN2ZyB4bWxucz0iaHR0cDovL3d3dy53My5vcmcvMjAwMC9zdmciIGZpbGw9Im5vbmUiIHZpZXdCb3g9IjYuMDE4Nzk3Mzk3NjEzNTI1IDUuMDAwNDkwMTg4NTk4NjMzIDUwLjk4MzUwMTQzNDMyNjE3IDUzLjg5OTUxMzI0NDYyODkwNiIgaGVpZ2h0PSI1My44OTk1MTMyNDQ2Mjg5MDYiIHdpZHRoPSI1MC45ODM1MDE0MzQzMjYxNyI+JiN4YTs8cGF0aCBmaWxsPSJ3aGl0ZSIgZD0iTTI5LjUzNTkgNTBDMjkuMTg5OCA1MC42NzkgMjguNzk0OCA1MS40MDg4IDI4LjM0MjEgNTIuMTM5N0MyNS45NjIxIDU1Ljk4MjQgMjIuNjU0NCA1Ni44NDAzIDIwLjQwNjMgNTYuMDQ2OUMxOS45MDM0IDU1Ljg2OTQgMjAuMDk4MiA1NS41NjY0IDIwLjA5ODIgNTUuNTY2NEMyMy4xNDgxIDU1LjU2NjQgMjUuMjczNiA1My4xMDQ5IDI3LjAyMzkgNTBDMjcuMzg3MiA0OS4zNTU2IDI3LjczNCA0OC42ODM4IDI4LjA2OTcgNDhINDQuODgzNUM0NC43MDQ0IDQ2Ljc5MyA0NC42MzU1IDQ1LjI2NzggNDQuNjY3MSA0My40Njc0QzQ1LjAxMzUgMzYuMTc5MyA0Ni44ODgyIDI0LjAwNjMgNDguMDg4NyAxOC4wMDI3QzQ4LjQyMSAxNi4zNDExIDQ4LjYxODIgMTMuNzc1OCA0OC4zNTA0IDEyLjA1ODVDNDguMDM0MSAxMC4wMzAxIDQ3LjE5OTYgOC42MzM0OSA0Ni40MTA3IDcuNjcxMzlDNDUuMDE5NiA1Ljk3NDA5IDQzLjAwNTkgNS4wMDA0OSA0MC44ODY4IDUuMDAwNDlIMTQuMDc1OUM5LjE2NjA2IDUuMDAwNDkgNi4zMzkyNiA4LjIyNjk5IDYuMDQ3NzYgMTEuODY0OUM1LjYzMzA2IDE3LjAzMjkgOS43MzczNiAyMC4zMTYxIDE0LjE0OTEgMjEuMDE1OEMxNC40NTk4IDE5LjMxNTcgMTQuNzI0NyAxNy45NDYyIDE0Ljg5NDUgMTcuMDg4N0MxMi45OTM3IDE2LjgwODggOS43NzA2NiAxNS40OCAxMC4wMzUxIDEyLjE4NTJDMTAuMTgyNCAxMC4zNDQgMTEuNzQxMiA4LjkwMjc5IDEzLjU4MzkgOC45MDA0OUgxMy41OTJDMTQuNTIwMiA4LjkwMTU5IDE1LjM4MjIgOS4zMjk3OSAxNi4wMTkgMTAuMTA3MUMxNy4yMTcyIDExLjU2OCAxNy41NCAxNC4wNTczIDE2LjkyODIgMTcuMTE2OUMxNS41NiAyMy45NTc3IDEyLjcyNzEgNDAuMjc4IDEzLjA5MzggNDcuMDA5NUMxMy4yNDYgNDkuNzk4NCAxNC4zMzU0IDU4LjkgMjEuOTY1OCA1OC45SDQ2QzUxLjkzODggNTguOSA1NS4zMzgzIDUzLjY5NjkgNTcuMDAyMyA1MEgyOS41MzU5Wk0yNC45MDM2IDI2LjM3NTNDMjQuMTAzNiAyNi4zNzUzIDIzLjQwMzYgMjcuMDc1MyAyMy40MDM2IDI3Ljg3NTNDMjMuNDAzNiAyOC42NzUzIDI0LjEwMzYgMjkuMzc1MyAyNC45MDM2IDI5LjM3NTNDMjUuNzAzNiAyOS4zNzUzIDI2LjQwMzYgMjguNjc1MyAyNi40MDM2IDI3Ljg3NTNDMjYuNDAzNiAyNy4wNzUzIDI1LjgwMzYgMjYuMzc1MyAyNC45MDM2IDI2LjM3NTNaTTI0LjQxNTEgMjAuOTc1M0MyNC40MTUxIDIwLjE3NTMgMjUuMTE1MSAxOS40NzUzIDI1LjkxNTEgMTkuNDc1M0MyNi44MTUxIDE5LjQ3NTMgMjcuNDE1MSAyMC4xNzUzIDI3LjQxNTEgMjAuOTc1M0MyNy40MTUxIDIxLjc3NTMgMjYuNzE1MSAyMi40NzUzIDI1LjkxNTEgMjIuNDc1M0MyNS4xMTUxIDIyLjQ3NTMgMjQuNDE1MSAyMS43NzUzIDI0LjQxNTEgMjAuOTc1M1pNMjQuMDAzNyAzMy4zNzUzQzIzLjIwMzcgMzMuMzc1MyAyMi41MDM3IDM0LjA3NTMgMjIuNTAzNyAzNC44NzUzQzIyLjUwMzcgMzUuNjc1MyAyMy4yMDM3IDM2LjM3NTMgMjQuMDAzNyAzNi4zNzUzQzI0LjgwMzcgMzYuMzc1MyAyNS41MDM3IDM1LjY3NTMgMjUuNTAzNyAzNC44NzUzQzI1LjUwMzcgMzMuOTc1MyAyNC45MDM3IDMzLjM3NTMgMjQuMDAzNyAzMy4zNzUzWk0yMS45MDM2IDQxLjg3NTNDMjEuOTAzNiA0MS4wNzUzIDIyLjYwMzYgNDAuMzc1MyAyMy40MDM2IDQwLjM3NTNDMjQuMjAzNiA0MC4zNzUzIDI0LjkwMzYgNDEuMDc1MyAyNC45MDM2IDQxLjg3NTNDMjQuOTAzNiA0Mi42NzUzIDI0LjIwMzYgNDMuMzc1MyAyMy40MDM2IDQzLjM3NTNDMjIuNjAzNiA0My4zNzUzIDIxLjkwMzYgNDIuNjc1MyAyMS45MDM2IDQxLjg3NTNaTTI4LjEwMzcgMjkuNDc1M0g0Mi4wMDM3QzQyLjA1MzcgMjguOTc1MyA0Mi4xMjg3IDI4LjQ3NTMgNDIuMjAzNyAyNy45NzUzQzQyLjI3ODcgMjcuNDc1MyA0Mi4zNTM3IDI2Ljk3NTMgNDIuNDAzNyAyNi40NzUzSDI4LjUwMzdDMjguMzAzNyAyNy40NzUzIDI4LjIwMzcgMjguNDc1MyAyOC4xMDM3IDI5LjQ3NTNaTTQzLjE2NjMgMjIuNTc1M0gyOS4xMTMxQzI5LjIwNTMgMjEuNjUzMyAyOS4zOTA0IDIwLjczMTMgMjkuNTc1NCAxOS44MDkzTDI5LjYyMjMgMTkuNTc1M0g0My41OTA3QzQzLjU0MDcgMjAuMDc1MyA0My40NTk2IDIwLjU3NTMgNDMuMzc4NSAyMS4wNzUzQzQzLjI5NzQgMjEuNTc1MyA0My4yMTYzIDIyLjA3NTMgNDMuMTY2MyAyMi41NzUzWk0yNy4yMDM3IDM2LjQ3NTNINDEuMTAzN0w0MS40MDM3IDMzLjQ3NTNIMjcuNjAzN0MyNy40MDM3IDM0LjQ3NTMgMjcuMzAzNyAzNS40NzUzIDI3LjIwMzcgMzYuNDc1M1pNNDAuNjAzNyA0My40NzUzSDI2LjcwMzdDMjYuNzAzNyA0My4wNDc5IDI2LjcyNjIgNDIuNTk3OSAyNi43NDk5IDQyLjEyNTNDMjYuNzc2MSA0MS42MDI5IDI2LjgwMzcgNDEuMDUyOSAyNi44MDM3IDQwLjQ3NTNINDAuODAzN0M0MC43OTQ1IDQwLjU3NjIgNDAuNzg1MyA0MC42NzYyIDQwLjc3NjIgNDAuNzc1NEM0MC42ODYyIDQxLjc1NzkgNDAuNjAzNyA0Mi42NTc5IDQwLjYwMzcgNDMuNDc1M1oiIGNsaXAtcnVsZT0iZXZlbm9kZCIgZmlsbC1ydWxlPSJldmVub2RkIi8+JiN4YTs8L3N2Zz4=;" parent="atDbLLzjIxGfExJ--USy-181" vertex="1">
          <mxGeometry x="2.9100000000000614" y="2" width="14.165999999999999" height="15" as="geometry" />
        </mxCell>
        <mxCell id="atDbLLzjIxGfExJ--USy-33" style="edgeStyle=none;html=1;exitX=1;exitY=0.75;exitDx=0;exitDy=0;entryX=0.5;entryY=1;entryDx=0;entryDy=0;entryPerimeter=0;strokeColor=#FFFFFF;strokeWidth=2;rounded=0;curved=1;sketch=1;curveFitting=1;jiggle=2;endArrow=open;endFill=0;" parent="1" target="atDbLLzjIxGfExJ--USy-29" edge="1">
          <mxGeometry relative="1" as="geometry">
            <Array as="points">
              <mxPoint x="608" y="320" />
            </Array>
            <mxPoint x="527" y="292.75" as="sourcePoint" />
          </mxGeometry>
        </mxCell>
        <mxCell id="2" value="Text" style="text;strokeColor=none;align=center;fillColor=none;html=1;verticalAlign=middle;whiteSpace=wrap;rounded=0;" vertex="1" parent="1">
          <mxGeometry x="550" y="10" width="60" height="30" as="geometry" />
        </mxCell>
      </root>
    </mxGraphModel>
  </diagram>
</mxfile>
